<svg width="760" height="560" viewBox="0 0 760 560" fill="none" xmlns="http://www.w3.org/2000/svg">
  <path d="M63 427C176 229 346 110 562 71C642 56 707 83 718 145C731 219 660 275 578 307C457 355 304 397 177 465C94 509 45 505 31 470C20 443 35 475 63 427Z" stroke="#FDCC0D" stroke-width="86" stroke-linecap="round" stroke-linejoin="round"/>
  <path d="M520 492C442 440 358 356 277 253C223 184 219 113 267 80C320 44 392 82 447 146C533 246 613 369 690 462" stroke="#FDCC0D" stroke-width="86" stroke-linecap="round" stroke-linejoin="round"/>
</svg>
