<svg preserveAspectRatio="xMidYMid meet" width="100%" height="100%" overflow="visible" style="display: block;" viewBox="0 0 157.5 180" fill="none" xmlns="http://www.w3.org/2000/svg">
<g id="Vector">
<path id="path11-1" d="M0 0V69.0239C0 115.334 23.5867 158.394 78.75 180C133.913 158.394 157.5 115.334 157.5 69.0239V0H0Z" fill="var(--fill-0, #FFBF00)"/>
<path id="path15-0" d="M5.55969 5.55967V69.0255C5.55969 112.852 26.9839 152.748 78.7506 173.879C130.517 152.747 151.942 112.852 151.942 69.0255V5.55967H5.55969Z" fill="var(--fill-0, #4B5320)"/>
<path id="path46" fill-rule="evenodd" clip-rule="evenodd" d="M58.5034 18.3486V58.5031H18.3489V62.918H62.9183V18.3486H58.5034Z" fill="var(--fill-0, #FFBF00)"/>
<path id="path44" fill-rule="evenodd" clip-rule="evenodd" d="M94.5825 18.3486V62.918H139.152V58.5031H98.9985V18.3486H94.5825Z" fill="var(--fill-0, #FFBF00)"/>
<path id="path42" fill-rule="evenodd" clip-rule="evenodd" d="M18.3489 94.5825V98.9985H58.5034V139.152H62.9183V94.5825H18.3489Z" fill="var(--fill-0, #FFBF00)"/>
<path id="rect30" fill-rule="evenodd" clip-rule="evenodd" d="M94.5825 94.5825V139.152H98.9985V98.9985H139.152V94.5825H94.5825Z" fill="var(--fill-0, #FFBF00)"/>
<path id="path841" fill-rule="evenodd" clip-rule="evenodd" d="M62.9177 18.3483V62.9177H18.3483V94.582H62.9177V139.151H94.582V94.582H139.151V62.9177H94.582V18.3483H62.9177Z" fill="var(--fill-0, black)"/>
<path id="path872" d="M78.7501 115.294L67.0392 90.4607L42.2057 78.7501L67.0392 67.0394L78.7501 42.2057L90.4606 67.0394L115.294 78.7501L90.4606 90.4607L78.7501 115.294Z" fill="var(--fill-0, #FFBF00)"/>
<path id="path878" fill-rule="evenodd" clip-rule="evenodd" d="M92.6475 78.7499C92.6475 80.5749 92.288 82.3821 91.5896 84.0682C90.8912 85.7544 89.8675 87.2864 88.577 88.5769C87.2865 89.8674 85.7544 90.8911 84.0683 91.5896C82.3821 92.288 80.5749 92.6475 78.7499 92.6475C76.9248 92.6475 75.1176 92.288 73.4315 91.5896C71.7454 90.8911 70.2133 89.8674 68.9228 88.5769C67.6323 87.2864 66.6086 85.7544 65.9102 84.0682C65.2118 82.3821 64.8523 80.5749 64.8523 78.7499C64.8523 75.064 66.3165 71.5291 68.9228 68.9228C71.5291 66.3165 75.064 64.8523 78.7499 64.8523C82.4358 64.8523 85.9707 66.3165 88.577 68.9228C91.1833 71.5291 92.6475 75.064 92.6475 78.7499Z" fill="var(--fill-0, #0080FE)"/>
<path id="path3766-0" fill-rule="evenodd" clip-rule="evenodd" d="M78.7505 67.4188L78.6461 67.5339C76.9639 69.3703 76.1693 71.4892 76.3702 73.9228C76.5036 75.537 76.5502 77.1868 76.6385 78.826L76.7537 83.2008H73.575C73.8905 80.8637 74.2057 78.2461 73.8848 75.9267C73.5569 73.5562 72.5598 71.4871 70.257 70.437L70.054 70.3465V87.1043H76.5757C77.0144 88.3748 77.7087 89.6532 78.6386 90.7672L78.6836 90.8198H78.75H78.8161L78.8575 90.7672C79.7875 89.6532 80.4864 88.3748 80.925 87.1043H87.4421V70.3466L87.24 70.437C84.9372 71.4871 83.9402 73.5562 83.6122 75.9267C83.2913 78.2461 83.6104 80.8638 83.9257 83.2009H80.7433L80.8585 78.8261V78.8171C80.9467 77.1801 80.9935 75.5313 81.1269 73.9194C81.3278 71.4858 80.5359 69.3678 78.8537 67.5315L78.7505 67.4188Z" fill="var(--fill-0, #FFBF00)"/>
</g>
</svg>
