<svg preserveAspectRatio="xMidYMid meet" width="100%" height="100%" overflow="visible" style="display: block;" viewBox="0 0 169.638 180" fill="none" xmlns="http://www.w3.org/2000/svg">
<g id="Vector">
<g id="g5630">
<path id="path5417" fill-rule="evenodd" clip-rule="evenodd" d="M36.7825 0.503308L0.619822 44.4144L84.8202 179.051L169.021 44.4144L132.858 0.503308H36.7825Z" fill="var(--fill-0, black)"/>
<path id="path5421" fill-rule="evenodd" clip-rule="evenodd" d="M36.5442 0L0 44.374L84.8192 180L169.638 44.374L133.094 0H36.5442ZM39.2141 5.64824H130.427L162.692 44.8255L84.8202 169.344L6.94855 44.8255L39.2141 5.64824Z" fill="var(--fill-0, #596167)"/>
<g id="g1509">
<path id="path104-6" fill-rule="evenodd" clip-rule="evenodd" d="M74.6036 73.5879C74.4767 58.0742 73.2017 25.242 47.268 16.9183V97.1217H70.643C71.2402 97.1217 71.5004 97.772 71.7137 98.2933C74.8258 105.899 78.507 113.529 82.6619 121.139C82.8209 121.43 83.0876 121.585 83.4012 121.585H84.8202H86.2392C86.5528 121.585 86.8195 121.43 86.9785 121.139C91.1334 113.529 94.8146 105.899 97.9267 98.2933C98.14 97.772 98.4002 97.1217 98.9974 97.1217H122.372V16.9183C96.4387 25.242 95.1637 58.0742 95.0368 73.5879H84.8202H74.6036Z" fill="var(--fill-0, #596167)"/>
<g id="g1468" opacity="0.15">
<g id="Clip path group">
<mask id="mask0_0_2067" style="mask-type:luminance" maskUnits="userSpaceOnUse" x="47" y="16" width="76" height="106">
<g id="clipPath1418">
<path id="path1420" d="M74.6036 73.5879C74.4767 58.0742 73.2017 25.242 47.268 16.9183V97.1217H70.643C71.2402 97.1217 71.5004 97.772 71.7137 98.2933C74.8258 105.899 78.507 113.529 82.6619 121.139C82.8209 121.43 83.0876 121.585 83.4012 121.585H84.8202H86.2392C86.5528 121.585 86.8195 121.43 86.9785 121.139C91.1334 113.529 94.8146 105.899 97.9267 98.2933C98.14 97.772 98.4002 97.1217 98.9974 97.1217H122.372V16.9183C96.4387 25.242 95.1637 58.0742 95.0368 73.5879H84.8202H74.6036Z" fill="var(--fill-0, white)"/>
</g>
</mask>
<g mask="url(#mask0_0_2067)">
<path id="path1414" fill-rule="evenodd" clip-rule="evenodd" d="M74.6036 73.5879C74.4767 58.0742 73.2017 25.242 47.268 16.9183V97.1217H70.643C71.2402 97.1217 71.5004 97.772 71.7137 98.2933C74.8258 105.899 78.507 113.529 82.6619 121.139C82.8209 121.43 83.0876 121.585 83.4012 121.585H84.8202H86.2392C86.5528 121.585 86.8195 121.43 86.9785 121.139C91.1334 113.529 94.8146 105.899 97.9267 98.2933C98.14 97.772 98.4002 97.1217 98.9974 97.1217H122.372V16.9183C96.4387 25.242 95.1637 58.0742 95.0368 73.5879H84.8202H74.6036Z" stroke="var(--stroke-0, black)" stroke-width="6.97555"/>
</g>
</g>
<g id="Clip path group_2">
<mask id="mask1_0_2067" style="mask-type:luminance" maskUnits="userSpaceOnUse" x="47" y="16" width="76" height="106">
<g id="clipPath1428">
<path id="path1430" d="M74.6036 73.588C74.4767 58.0743 73.2017 25.2421 47.2681 16.9185V97.1218H70.6431C71.2402 97.1218 71.5004 97.7721 71.7137 98.2934C74.8259 105.899 78.5071 113.529 82.662 121.139C82.8209 121.431 83.0876 121.585 83.4012 121.585H84.8202H86.2393C86.5528 121.585 86.8196 121.431 86.9785 121.139C91.1334 113.529 94.8146 105.899 97.9268 98.2934C98.14 97.7721 98.4002 97.1218 98.9974 97.1218H122.372V16.9185C96.4388 25.2421 95.1638 58.0743 95.0368 73.588H84.8202H74.6036Z" fill="var(--fill-0, white)"/>
</g>
</mask>
<g mask="url(#mask1_0_2067)">
<g id="g1007">
<path id="path943-3" d="M11.3722 91.7891L107.497 -4.25525" stroke="var(--stroke-0, black)" stroke-width="2.44144" stroke-linecap="round" stroke-linejoin="round"/>
<path id="path945-6" d="M54.8905 135.271L151.015 39.2269" stroke="var(--stroke-0, black)" stroke-width="2.44144" stroke-linecap="round" stroke-linejoin="round"/>
<path id="path947-9" d="M52.4729 132.855L148.597 36.8111" stroke="var(--stroke-0, black)" stroke-width="2.44144" stroke-linecap="round" stroke-linejoin="round"/>
<path id="path949-6" d="M50.0551 130.44L146.18 34.3955" stroke="var(--stroke-0, black)" stroke-width="2.44144" stroke-linecap="round" stroke-linejoin="round"/>
<path id="path951-6" d="M47.6375 128.024L143.762 31.98" stroke="var(--stroke-0, black)" stroke-width="2.44144" stroke-linecap="round" stroke-linejoin="round"/>
<path id="path953-2" d="M45.2199 125.608L141.344 29.5641" stroke="var(--stroke-0, black)" stroke-width="2.44144" stroke-linecap="round" stroke-linejoin="round"/>
<path id="path955-4" d="M42.8021 123.193L138.927 27.1486" stroke="var(--stroke-0, black)" stroke-width="2.44144" stroke-linecap="round" stroke-linejoin="round"/>
<path id="path957-5" d="M40.3845 120.777L136.509 24.7328" stroke="var(--stroke-0, black)" stroke-width="2.44144" stroke-linecap="round" stroke-linejoin="round"/>
<path id="path959-6" d="M37.9669 118.362L134.091 22.3172" stroke="var(--stroke-0, black)" stroke-width="2.44144" stroke-linecap="round" stroke-linejoin="round"/>
<path id="path961-9" d="M35.5491 115.946L131.674 19.9014" stroke="var(--stroke-0, black)" stroke-width="2.44144" stroke-linecap="round" stroke-linejoin="round"/>
<path id="path963-2" d="M33.1314 113.53L129.256 17.4859" stroke="var(--stroke-0, black)" stroke-width="2.44144" stroke-linecap="round" stroke-linejoin="round"/>
<path id="path965-3" d="M30.7136 111.115L126.838 15.0703" stroke="var(--stroke-0, black)" stroke-width="2.44144" stroke-linecap="round" stroke-linejoin="round"/>
<path id="path967-5" d="M28.2961 108.699L124.421 12.6545" stroke="var(--stroke-0, black)" stroke-width="2.44144" stroke-linecap="round" stroke-linejoin="round"/>
<path id="path969-8" d="M25.8785 106.283L122.003 10.2389" stroke="var(--stroke-0, black)" stroke-width="2.44144" stroke-linecap="round" stroke-linejoin="round"/>
<path id="path971-2" d="M23.4606 103.867L119.585 7.82306" stroke="var(--stroke-0, black)" stroke-width="2.44144" stroke-linecap="round" stroke-linejoin="round"/>
<path id="path973-8" d="M21.043 101.452L117.168 5.40752" stroke="var(--stroke-0, black)" stroke-width="2.44144" stroke-linecap="round" stroke-linejoin="round"/>
<path id="path975-9" d="M18.6252 99.0363L114.75 2.99197" stroke="var(--stroke-0, black)" stroke-width="2.44144" stroke-linecap="round" stroke-linejoin="round"/>
<path id="path977-2" d="M16.2077 96.6205L112.332 0.576157" stroke="var(--stroke-0, black)" stroke-width="2.44144" stroke-linecap="round" stroke-linejoin="round"/>
<path id="path979-1" d="M13.7901 94.2049L109.915 -1.83941" stroke="var(--stroke-0, black)" stroke-width="2.44144" stroke-linecap="round" stroke-linejoin="round"/>
<path id="path981-2" d="M57.3084 137.687L153.433 41.6425" stroke="var(--stroke-0, black)" stroke-width="2.44144" stroke-linecap="round" stroke-linejoin="round"/>
<path id="path983-3" d="M76.6498 157.012L172.774 60.9677" stroke="var(--stroke-0, black)" stroke-width="2.44144" stroke-linecap="round" stroke-linejoin="round"/>
<path id="path985-2" d="M59.7259 140.103L155.85 44.0583" stroke="var(--stroke-0, black)" stroke-width="2.44144" stroke-linecap="round" stroke-linejoin="round"/>
<path id="path987-9" d="M62.1435 142.518L158.268 46.4738" stroke="var(--stroke-0, black)" stroke-width="2.44144" stroke-linecap="round" stroke-linejoin="round"/>
<path id="path989-0" d="M64.5614 144.934L160.686 48.8894" stroke="var(--stroke-0, black)" stroke-width="2.44144" stroke-linecap="round" stroke-linejoin="round"/>
<path id="path991-4" d="M66.979 147.349L163.103 51.3052" stroke="var(--stroke-0, black)" stroke-width="2.44144" stroke-linecap="round" stroke-linejoin="round"/>
<path id="path993-9" d="M69.3968 149.765L165.521 53.7208" stroke="var(--stroke-0, black)" stroke-width="2.44144" stroke-linecap="round" stroke-linejoin="round"/>
<path id="path995-7" d="M71.8143 152.181L167.939 56.1366" stroke="var(--stroke-0, black)" stroke-width="2.44144" stroke-linecap="round" stroke-linejoin="round"/>
<path id="path997-6" d="M74.2319 154.596L170.356 58.5521" stroke="var(--stroke-0, black)" stroke-width="2.44144" stroke-linecap="round" stroke-linejoin="round"/>
<path id="path999" d="M8.95463 89.3736L105.079 -6.67081" stroke="var(--stroke-0, black)" stroke-width="2.44144" stroke-linecap="round" stroke-linejoin="round"/>
<path id="path1001" d="M6.53706 86.958L102.662 -9.08634" stroke="var(--stroke-0, black)" stroke-width="2.44144" stroke-linecap="round" stroke-linejoin="round"/>
<path id="path1003-5" d="M4.11925 84.5422L100.244 -11.5021" stroke="var(--stroke-0, black)" stroke-width="2.44144" stroke-linecap="round" stroke-linejoin="round"/>
<path id="path1005" d="M1.70163 82.1266L97.8261 -13.9177" stroke="var(--stroke-0, black)" stroke-width="2.44144" stroke-linecap="round" stroke-linejoin="round"/>
<path id="path1007-8" d="M-0.71623 79.7107L95.4083 -16.3336" stroke="var(--stroke-0, black)" stroke-width="2.44144" stroke-linecap="round" stroke-linejoin="round"/>
<path id="path1009-0" d="M-3.1338 77.2952L92.9907 -18.7491" stroke="var(--stroke-0, black)" stroke-width="2.44144" stroke-linecap="round" stroke-linejoin="round"/>
</g>
</g>
</g>
</g>
<path id="path1412" fill-rule="evenodd" clip-rule="evenodd" d="M74.6036 73.5879C74.4767 58.0742 73.2017 25.242 47.268 16.9183V97.1217H70.643C71.2402 97.1217 71.5004 97.772 71.7137 98.2933C74.8258 105.899 78.507 113.529 82.6619 121.139C82.8209 121.43 83.0876 121.585 83.4012 121.585H84.8202H86.2392C86.5528 121.585 86.8195 121.43 86.9785 121.139C91.1334 113.529 94.8146 105.899 97.9267 98.2933C98.14 97.772 98.4002 97.1217 98.9974 97.1217H122.372V16.9183C96.4387 25.242 95.1637 58.0742 95.0368 73.5879H84.8202H74.6036Z" stroke="var(--stroke-0, #596167)" stroke-width="2.44144"/>
</g>
</g>
</g>
</svg>
