<svg preserveAspectRatio="xMidYMid meet" width="100%" height="100%" overflow="visible" style="display: block;" viewBox="0 0 153.355 180" fill="none" xmlns="http://www.w3.org/2000/svg">
<g id="Vector">
<path id="path295" d="M0.00013808 1.05714C0.00013808 0.494556 0.494917 0 1.05772 0H152.298C152.861 0 153.355 0.494556 153.355 1.05714L153.355 70.2509C153.355 121.216 123.361 161.812 77.0641 179.974C76.9742 180.009 76.3813 180.009 76.2913 179.974C29.9923 161.811 0.000102639 121.212 0.000102639 70.2509L0.00013808 1.05714Z" fill="var(--fill-0, #162521)"/>
<path id="path297" d="M1.05768 70.2507V1.057H152.298V70.2507C152.298 120.753 122.596 160.976 76.6777 178.989C30.7565 160.975 1.05768 120.749 1.05768 70.2507ZM5.55464 70.2507C5.55464 122.007 37.4569 158.443 76.6777 174.157C115.898 158.443 147.801 122.007 147.801 70.2507L147.801 5.55194H5.55464V70.2507Z" fill="var(--fill-0, #7B8D76)"/>
<path id="path299" d="M5.55456 70.2509C5.55456 122.007 37.4568 158.443 76.6776 174.157C115.898 158.443 147.801 122.007 147.801 70.2509L147.801 5.55214H5.55456V70.2509Z" fill="var(--fill-0, #1B1B0F)"/>
<path id="path301" d="M76.6776 173.018C115.379 157.353 146.743 121.338 146.743 70.2508V6.60914H6.61214L6.61217 70.2508C6.61217 121.338 37.9766 157.353 76.6776 173.018Z" fill="var(--fill-0, #3F3F22)"/>
<path id="path303" d="M1.58676 70.2509V1.58579H151.769C151.337 2.27855 150.505 2.90722 149.278 2.90722H2.90879V70.2509C2.90879 90.0499 7.54268 108.243 15.981 124.089C17.337 126.839 16.6369 127.591 14.8931 124.871C6.29214 108.792 1.58676 90.3327 1.58676 70.2509Z" fill="var(--fill-0, #A3BC9E)"/>
<path id="path305" d="M149.652 6.1623L149.652 70.2509C149.652 118.936 121.35 158.251 76.6778 176.15C76.6778 175.197 76.553 174.788 78.0953 174.145C120.956 156.281 148.33 117.811 148.33 70.2509L148.33 8.21062C148.33 5.61553 149.652 4.7956 149.652 6.1623Z" fill="var(--fill-0, #A3BC9E)"/>
<path id="path309" d="M145.005 39.8302C141.359 42.3051 138.197 43.8603 133.33 45.5726L91.2721 60.7723C91.2111 60.7941 91.1519 60.8175 91.0926 60.8374C90.3827 61.0762 90.2127 60.5449 90.406 60.1035C90.4072 60.1006 90.4084 60.0976 90.4096 60.0949C90.817 59.1647 91.2644 58.1508 91.7757 57.0204C91.7799 57.0118 91.7839 57.0023 91.7887 56.9919C92.0283 56.4634 92.6367 55.8141 93.1591 55.5991C93.9946 55.2553 133.924 38.4015 133.924 38.4015C140.927 35.5151 143.042 30.7522 144.896 21.8114C145.523 18.7894 146.079 15.4159 146.488 12.7261C146.658 11.6113 146.743 10.4875 146.743 9.35988V6.60914H145.855C144.924 6.60914 144.009 6.8306 143.181 7.25789C131.388 13.3482 74.8962 42.5453 63.3391 48.9744C55.7417 53.0327 48.0964 62.1351 51.5531 74.4329C51.6003 74.6008 51.7017 75.0081 51.8125 75.4591C52.1983 77.0292 53.3147 78.351 54.799 78.9949L61.8431 82.0502C62.6832 82.4145 63.5703 82.5992 64.48 82.5992C65.2678 82.5992 66.0387 82.4589 66.7707 82.1823C68.2411 81.6271 69.7817 81.3455 71.3495 81.3455C79.2578 81.3455 85.6915 88.5542 85.6915 97.4149C85.6915 103.245 82.8587 108.63 78.2982 111.469L78.2796 111.48C77.9003 111.717 77.4203 111.711 77.0414 111.473C76.5979 111.194 76.0209 110.896 75.5976 110.896C75.5378 110.896 71.2414 111.184 71.2414 111.184C70.6216 111.226 70.0811 111.666 69.9372 112.31C69.8645 112.635 69.9318 112.973 70.0671 113.278C70.5881 114.45 70.6808 115.557 70.5576 116.529C70.4168 117.64 69.7632 119.691 68.7967 117.759C67.4144 114.996 65.4379 110.808 64.4947 108.83C61.5029 102.556 61.539 99.7356 61.4284 98.729C61.2844 97.4194 61.4307 97.0741 61.2291 97.0291C61.0834 96.9965 59.5951 97.5415 58.2059 99.2171C57.8524 99.6435 57.6834 98.9335 57.671 98.4512C57.557 94.0137 56.4728 90.756 54.432 86.1375C51.1715 78.7578 50.7385 75.9939 50.651 74.4059C50.6076 73.6193 50.472 73.618 50.2491 73.6898C49.7347 73.8554 48.6552 74.4493 47.8752 75.4537C47.3374 76.1463 47.3807 75.1584 47.383 74.7172C47.3979 71.9281 46.8293 68.1399 44.6169 63.8119C41.2812 57.2862 40.9405 55.1316 40.7857 54.3555C40.4824 52.8347 40.6313 52.5662 40.4522 52.5883C40.0211 52.6417 38.7062 53.2348 37.8322 54.3967C37.4517 54.9026 37.1988 54.4697 37.1621 53.4789C37.0044 49.2152 36.4312 45.7826 35.1259 43.0938C31.7136 36.0655 31.5474 34.1493 31.4369 33.031C31.335 32.0002 31.4183 31.6925 31.17 31.7559C30.4594 31.9371 29.4367 32.6515 28.7183 33.4534C28.3473 33.8674 27.6546 33.6927 27.5141 33.155C25.9987 27.3545 25.8578 21.018 25.8597 19.4491C25.8604 18.9093 24.3379 20.2453 23.441 21.28C22.8353 21.9789 22.4017 21.3959 22.2512 20.9875C22.0693 20.4939 21.8562 19.9248 21.5807 19.1933C18.0595 9.84109 10.2295 7.92778 9.2278 7.66528C8.19889 7.39569 6.7661 7.22865 7.16931 7.70754C8.37595 9.00614 9.02281 11.4456 9.42845 13.6661C9.85668 16.0107 10.1318 17.8551 10.3746 19.4824C10.6945 21.6255 10.9471 23.3186 11.3852 24.9279C12.3737 28.5608 13.7971 30.2528 15.5823 32.0926C15.972 32.4942 15.8374 32.7648 15.2824 32.6915C12.5954 32.3364 10.853 32.4406 10.4946 32.8491C10.1809 33.2065 10.6731 33.2071 11.8349 34.6398C12.4339 35.3786 14.1154 36.748 16.1312 43.2427C18.0927 49.5614 20.1095 51.7632 22.2163 53.2745C22.543 53.5088 23.8183 54.3703 22.7447 54.3337C20.03 54.2409 18.568 54.4479 18.5676 54.7312C18.5672 55.1555 19.2466 55.3052 20.335 56.5847C20.8915 57.2388 22.6506 58.4493 24.8801 65.3224C26.7871 71.2005 28.1692 73.3099 31.1246 75.4328C31.2639 75.5328 31.4947 75.6896 31.7528 75.8623C32.1424 76.1232 33.4738 76.9767 32.0848 76.8883C30.6529 76.797 28.1848 77.0021 28.1462 77.4202C28.116 77.7482 28.529 77.8851 29.5828 79.0213C30.202 79.6889 31.5998 80.9213 33.9826 87.9389C35.4399 92.2311 37.1727 94.6905 38.8885 96.2813C39.2 96.5702 39.6687 96.9257 40.139 97.2617C40.6057 97.595 41.5158 98.3098 39.8201 98.3574C38.0428 98.4073 36.2839 98.8794 36.1148 99.3171C35.9652 99.7046 36.5918 99.6755 37.9355 100.866C38.5531 101.414 40.4851 102.835 42.8963 109.772C44.1906 113.495 46.8781 120.393 48.707 125.047C49.0399 125.894 49.5156 127.42 47.3228 126.106C46.4681 125.594 45.7639 124.691 45.2041 123.515C45.0634 123.219 44.8456 122.956 44.5528 122.809C44.3414 122.703 44.1118 122.649 43.8878 122.649C43.5052 122.649 43.1344 122.803 42.8626 123.081L40.1343 125.878C39.7289 126.294 39.4359 126.817 39.3519 127.392C39.2022 128.415 39.6416 129.394 40.4526 129.956C44.5262 132.787 49.3054 134.282 54.2736 134.282H54.2807C55.4628 134.282 56.6259 134.196 57.7646 134.033C58.718 133.896 59.6443 134.417 60.0419 135.294C60.2032 135.65 60.3262 135.927 60.3262 135.927L63.4078 143.179C63.9238 144.467 63.9808 146.144 63.8777 146.826C63.7844 147.442 63.8565 148.09 64.122 148.704C64.3481 149.226 64.6939 149.669 65.1189 150.01C65.7485 150.516 66.7199 151.21 67.6475 153.094L71.2922 161.671C71.9855 163.472 71.7504 165.073 71.3404 165.729C70.8244 166.555 70.9685 167.629 71.6789 168.296C73.1278 169.654 75.0149 170.404 76.9932 170.406L77.0422 170.406C81.1383 170.386 84.5407 167.171 84.7881 163.088C84.8516 162.029 84.0756 161.089 83.0219 160.946C82.1065 160.822 80.5816 159.934 79.7603 158.071L76.0529 149.383C75.9964 149.222 75.9503 149.056 75.9025 148.893C75.1759 146.403 76.1423 146.692 77.6113 147.678C80.0171 149.294 82.9596 150.152 86.1145 150.152C94.0078 150.152 100.376 148.385 100.644 148.31C101.868 147.965 102.914 146.843 102.497 146.597C102.497 146.597 101.347 145.91 100.961 145.687C100.922 145.664 97.072 143.46 94.7849 140.358C93.5105 138.629 90.1994 134.3 88.6871 132.327C88.2521 131.759 87.8764 131.148 89.0328 131.311C89.6488 131.398 90.2305 131.491 90.7229 131.58C92.1519 131.836 92.324 132.106 92.7416 132.499L99.564 138.43C102.41 140.956 106.083 141.487 108.664 141.487C110.465 141.487 112.295 141.226 113.956 140.734C118.91 139.263 122.622 137.122 124.987 135.464C126.153 134.647 127.159 133.625 127.966 132.453C128.322 131.936 128.673 131.416 129.02 130.891L127.269 130.584C127.245 130.58 124.885 130.149 122.471 129.159C119.17 127.805 102.822 119.305 102.644 119.212C102.641 119.21 102.637 119.208 102.634 119.206C102.102 118.933 101.538 118.426 102.741 117.973C102.75 117.97 102.759 117.967 102.769 117.964C103.487 117.737 104.077 117.539 104.532 117.381C104.555 117.373 104.578 117.365 104.602 117.357C105.109 117.178 105.912 116.928 106.871 117.247C107.594 117.488 115.565 119.975 115.565 119.975C117.923 120.732 120.204 121.116 122.344 121.116C126.544 121.116 130.157 119.681 133.081 116.849C136.3 113.731 138.635 110.318 140.096 107.853C140.748 106.753 141.267 105.583 141.65 104.363C141.786 103.929 142.264 102.353 142.395 101.916C141.09 102.351 139.079 102.725 136.028 102.725C133.577 102.725 130.61 102.543 127.207 102.184C122.945 101.734 109.728 100.279 109.131 100.177C108.271 100.03 107.755 99.8577 108.551 99.1323C109.059 98.6698 109.495 98.3235 109.832 98.0273C109.842 98.019 109.851 98.0106 109.861 98.0024C110.809 97.1665 111.53 96.9104 112.866 96.9107C113.129 96.9108 125.735 97.0311 125.735 97.0311C137.043 97.0311 140.946 91.5376 143.272 86.1636C144.348 83.6775 145.122 81.5885 145.678 79.8882C146.276 78.0601 146.607 76.1585 146.663 74.2362C146.686 73.4398 146.705 72.6532 146.717 72.0167C145.681 72.6929 143.922 73.3058 142.008 73.7519C139.916 74.2391 136.403 74.8839 130.609 75.5544C124.823 76.2241 105.823 78.7977 105.608 78.8207C104.34 78.9564 104.589 78.2351 104.928 77.7302C104.931 77.7254 104.934 77.7212 104.937 77.7169C105.384 77.0502 105.747 76.5115 106.039 76.0769C106.049 76.0624 106.058 76.048 106.068 76.0336C106.507 75.3821 106.895 74.732 107.854 74.5109C108.939 74.2604 129.95 69.8749 129.95 69.8749C139.451 67.796 143.461 63.745 145.276 54.3942C145.782 51.7842 146.172 49.4001 146.466 47.395C146.652 46.1262 146.743 44.8477 146.743 43.5654V38.4092C146.091 39.0175 145.005 39.8302 145.005 39.8302Z" fill="var(--fill-0, #31321B)"/>
<path id="path311" d="M66.6198 116.48C66.0333 115.3 64.9769 113.167 63.2023 109.446C59.9899 102.709 59.9684 99.2909 59.9684 99.2909C59.9684 99.2909 58.2201 101.009 57.6737 104.68C57.5586 105.454 56.0486 105.286 56.2256 100.499C56.4127 95.4381 55.563 92.2388 53.1225 86.7153C49.1333 77.6871 49.4891 75.7258 49.4891 75.7258C49.4891 75.7258 47.8686 77.2616 47.141 80.4997C46.9352 81.4159 45.4461 80.6866 45.8707 76.3128C46.1899 73.0246 45.6259 68.9302 43.3422 64.463C39.7478 57.4316 39.5634 55.3778 39.4333 54.5114C39.0845 54.7538 37.5323 56.6546 37.3064 59.2254C37.1764 60.7056 35.7002 59.3225 35.7959 55.9832C35.8784 53.1052 35.7876 47.735 33.8377 43.7187C29.6895 35.1743 30.2166 33.4765 30.2166 33.4765C30.2166 33.4765 28.8513 34.8106 28.6675 37.9667C28.584 39.4029 27.6932 38.198 27.0991 36.6128C24.5302 29.7576 24.7131 21.6378 24.7131 21.6378C24.7131 21.6378 23.3726 22.937 22.7534 24.6446C22.5207 25.2863 22.1476 25.034 21.8758 24.2323C21.3317 22.6274 21.0847 21.939 20.2406 19.6972C16.937 10.9235 9.02913 8.77894 9.02913 8.77894C9.31745 9.12132 10.3783 10.8961 10.8373 13.4093C11.8465 18.9358 12.0396 21.879 12.7669 24.552C13.8674 28.5962 15.4359 29.8707 17.8575 32.3716C19.7032 34.2776 19.5126 36.0841 18.8688 35.6124C17.4495 34.5724 14.5593 33.6136 12.6929 33.6229C12.6929 33.6229 15.0963 35.078 17.4989 42.8182C19.8779 50.4821 22.1558 51.5497 24.8701 53.3094C27.9246 55.2896 28.1221 57.5482 27.0331 56.8063C25.5328 55.7841 22.8722 55.2991 21.1921 55.438C21.1921 55.438 23.7792 57.2874 26.2425 64.8808C28.369 71.4364 29.6715 72.8647 33.3691 75.2149C37.1298 77.6051 37.0423 79.7658 36.0671 79.3055C34.0093 78.3343 31.9225 77.9052 30.5271 77.9453C30.5271 77.9453 32.7293 79.7943 35.3385 87.4788C37.4015 93.5548 39.9354 95.5815 42.0534 96.8517C45.4471 98.887 46.2901 101.579 44.7623 100.825C42.7341 99.8235 40.5111 99.5062 38.6671 99.6343C38.6671 99.6343 41.442 101.227 44.2491 109.302C46.8172 116.69 50.14 124.959 50.14 124.959C50.9654 126.937 51.9465 127.776 53.8648 127.613C56.1361 127.42 57.7511 125.737 58.1721 124.039C58.3967 123.133 58.3107 122.274 58.0273 121.511L40.8651 80.1276C39.5981 77.0725 38.4171 73.9825 37.3236 70.8611L35.2823 65.0346L37.0686 68.5206C39.2817 72.8395 41.316 77.2476 43.1662 81.7338L59.3359 120.939C60.1144 122.593 61.9442 123.705 63.9646 123.507C66.4292 123.266 67.4923 121.913 67.7339 120.319C67.9213 119.083 67.1155 117.477 66.6198 116.48Z" fill="var(--fill-0, #807732)"/>
<path id="path313" d="M15.6155 17.645C20.2525 28.6615 33.0788 58.7782 33.0788 58.7782C34.2979 61.6429 35.6145 64.4653 37.0353 67.2356C39.5383 72.1156 42.373 77.9379 43.8265 81.462L59.6242 119.858C60.2176 121.118 61.4977 121.927 62.8852 121.921C63.0712 121.92 63.2606 121.904 63.4482 121.875C64.9758 121.637 65.7314 120.642 65.9516 119.108C66.0912 118.136 65.6813 117.271 65.2127 116.373C64.3916 114.798 63.8847 113.84 62.0193 110.029C60.0841 106.074 59.4329 103.889 59.513 101.104C59.0802 101.926 58.2801 103.82 58.2497 106.675C58.2415 107.433 54.8634 107.807 54.6957 100.982C54.574 96.0324 54.2625 93.2167 51.7279 87.4806C49.5598 82.5736 49.0565 79.7765 49.011 77.585C48.5942 78.3095 47.8073 80.3102 47.5072 82.3269C47.3344 83.4876 44.1178 82.8344 44.3001 76.3774C44.3986 72.8857 44.4129 70.3424 41.976 64.9122C39.9203 60.3314 39.1313 58.235 38.9925 56.2666C38.5675 57.0085 38.0618 58.5525 37.8959 61.096C37.8667 61.5434 34.4626 61.7376 34.3883 55.7604C34.314 49.7818 34.1265 47.9551 32.6809 44.4381C30.3337 38.7276 30.1037 37.715 29.814 35.6755C29.6095 36.2777 29.2094 37.9335 29.1138 40.3309C29.0668 41.5131 27.5776 40.8751 26.3323 37.9512C23.7271 31.8344 23.8877 26.192 23.9644 23.6489C23.9023 23.7943 23.499 24.6944 23.439 24.8438C22.8525 26.3024 22.2141 28.3667 21.1615 25.4026C20.6351 23.9204 19.7932 21.6515 18.989 19.4886C16.9577 14.0251 13.2886 10.3227 9.02913 8.77894C12.5756 10.8986 14.7019 15.4745 15.6155 17.645Z" fill="var(--fill-0, #A59746)"/>
<path id="path315" d="M12.7669 24.552C13.8674 28.5962 15.4359 29.8707 17.8575 32.3716C14.6116 28.5981 14.0101 25.6039 13.6745 23.6509C13.3389 21.6979 12.9276 19.5512 12.2639 15.2528C11.5905 10.8906 9.02913 8.77894 9.02913 8.77894C9.31745 9.12132 10.3783 10.8961 10.8373 13.4093C11.8465 18.9358 12.0396 21.879 12.7669 24.552Z" fill="var(--fill-0, #A59746)"/>
<path id="path317" d="M24.87 53.3096C22.183 51.0058 21.1626 48.973 20.2583 46.5252C19.1869 43.6251 19.2379 43.6368 17.7056 39.5164C15.8511 34.5293 12.6928 33.6231 12.6928 33.6231C12.6928 33.6231 15.0962 35.0782 17.4988 42.8184C19.8778 50.4823 22.1557 51.5499 24.87 53.3096Z" fill="var(--fill-0, #A59746)"/>
<path id="path319" d="M33.3692 75.2151C30.6981 72.9613 29.894 70.7537 28.9202 68.0046C28.0278 65.4852 28.0035 65.3664 26.7607 61.8398C25.1392 57.2389 21.1922 55.4382 21.1922 55.4382C21.1922 55.4382 23.7793 57.2875 26.2426 64.881C28.3691 71.4365 29.6716 72.865 33.3692 75.2151Z" fill="var(--fill-0, #A59746)"/>
<path id="path321" d="M42.0533 96.8518C39.1758 94.2342 38.56 91.8281 37.8162 90.0477C37.1839 88.5341 36.8211 87.3761 35.5545 83.9475C33.7482 79.0581 30.5271 77.9454 30.5271 77.9454C30.5271 77.9454 32.7293 79.7944 35.3384 87.4789C37.4015 93.5549 39.9353 95.5816 42.0533 96.8518Z" fill="var(--fill-0, #A59746)"/>
<path id="path323" d="M38.6668 99.6344C38.6668 99.6344 41.4417 101.227 44.2487 109.302C46.8169 116.69 50.1396 124.959 50.1396 124.959C49.9228 123.933 46.2982 111.161 45.2651 107.274C44.1282 102.998 41.2594 100.469 38.6668 99.6344Z" fill="var(--fill-0, #A59746)"/>
<path id="path327" d="M82.829 162.364C81.5538 162.191 80.4173 161.585 79.5722 160.696C79.2682 160.377 78.7884 160.296 78.3821 160.468L74.0466 162.311C73.6316 162.488 73.3676 162.901 73.3881 163.352C73.3911 163.415 73.3928 163.479 73.3928 163.543C73.3982 164.626 73.0881 165.635 72.5531 166.49C72.4009 166.733 72.4443 167.05 72.6536 167.247C73.799 168.323 75.3386 168.983 77.0348 168.975C80.4091 168.958 83.1574 166.321 83.3584 163.002C83.3776 162.684 83.1444 162.407 82.829 162.364Z" fill="var(--fill-0, #807732)"/>
<path id="path329" d="M73.7725 148.019L68.1818 150.47C67.9278 150.581 67.8574 150.909 68.0432 151.114L68.0889 151.165C68.4574 151.573 68.7554 152.04 68.9704 152.547L72.6101 161.113C72.7359 161.409 73.0782 161.547 73.3745 161.421L78.1348 159.398C78.4312 159.272 78.5692 158.929 78.4428 158.633L74.7356 149.945C74.5605 149.535 74.4417 149.103 74.3823 148.661L74.3388 148.337C74.3027 148.069 74.0201 147.91 73.7725 148.019Z" fill="var(--fill-0, #807732)"/>
<path id="path331" d="M71.4699 141.513C71.0404 141.063 70.6954 140.539 70.4512 139.967L66.6631 131.089C66.5339 130.787 66.1643 130.662 65.8843 130.836C64.4616 131.716 62.9084 132.405 61.2589 132.867C60.9392 132.956 60.7658 133.3 60.8956 133.605L64.7269 142.623C64.9239 143.086 65.0522 143.576 65.1081 144.076L65.1292 144.266C65.1553 144.5 65.4003 144.642 65.6166 144.549L71.355 142.077C71.5794 141.98 71.6385 141.689 71.4699 141.513Z" fill="var(--fill-0, #807732)"/>
<path id="path333" d="M67.3042 149.354C66.5182 149.358 65.7682 148.901 65.436 148.135C64.9917 147.109 65.4629 145.918 66.4888 145.474L71.3609 143.364C72.3862 142.922 73.5783 143.391 74.0228 144.417C74.467 145.442 73.9958 146.634 72.9699 147.078L68.0979 149.187C67.839 149.299 67.5696 149.353 67.3042 149.354Z" fill="var(--fill-0, #807732)"/>
<path id="path335" d="M67.2158 148.071C66.8056 148.073 66.4352 147.831 66.2723 147.455C66.0483 146.938 66.2869 146.335 66.8039 146.111L69.7497 144.801C69.8773 144.746 70.012 144.717 70.1498 144.717C70.5605 144.714 70.9309 144.956 71.0938 145.332C71.3178 145.849 71.0794 146.452 70.5621 146.676L67.6164 147.986C67.4882 148.042 67.3533 148.07 67.2158 148.071Z" fill="var(--fill-0, #A59746)"/>
<path id="path337" d="M63.4637 132.863C63.0793 133.021 62.69 133.166 62.2957 133.296C61.9375 133.415 61.762 133.819 61.9095 134.166L65.3841 142.344C65.4744 142.557 65.552 142.774 65.6167 142.995C65.7246 143.364 66.1416 143.546 66.4947 143.394L67.729 142.862C68.045 142.726 68.1914 142.36 68.0565 142.044L64.2843 133.192C64.149 132.874 63.7834 132.732 63.4637 132.863Z" fill="var(--fill-0, #A59746)"/>
<path id="path339" d="M70.8223 150.092L69.4904 150.676C69.1659 150.818 69.0529 151.212 69.2386 151.513C69.3866 151.754 69.5166 152.006 69.628 152.267L72.9908 160.182C73.1153 160.475 73.454 160.612 73.7472 160.487L75.0274 159.943C75.3349 159.812 75.478 159.457 75.3471 159.15L71.6216 150.408C71.4897 150.099 71.1304 149.957 70.8223 150.092Z" fill="var(--fill-0, #A59746)"/>
<path id="path341" d="M81.7239 163.07L79.817 163.851C78.6226 164.339 77.2572 163.776 76.756 162.587C76.6275 162.282 76.2757 162.14 75.9713 162.269L74.5395 162.878C74.276 162.99 74.1054 163.249 74.1068 163.535V163.54C74.1116 164.518 73.8914 165.464 73.4631 166.326C73.3201 166.614 73.4001 166.966 73.6589 167.157C74.6311 167.873 75.8133 168.267 77.0312 168.261C79.7638 168.248 82.0402 166.288 82.5496 163.706C82.5564 163.671 82.5603 163.637 82.5614 163.602C82.5743 163.183 82.1119 162.911 81.7239 163.07Z" fill="var(--fill-0, #A59746)"/>
<path id="path343" d="M71.3381 112.612C74.7779 120.125 64.6944 127.937 59.7422 123.285C59.3246 129.249 47.5108 131.814 43.8876 124.081L41.1024 126.936C40.5799 127.472 40.655 128.354 41.2696 128.781C44.9615 131.346 49.4432 132.852 54.28 132.851C65.6272 132.848 75.0309 124.571 76.802 113.73C76.9276 112.961 76.2915 112.278 75.5139 112.33L71.3381 112.612Z" fill="var(--fill-0, #807732)"/>
<path id="path345" d="M60.2302 124.552C59.2434 127.743 55.3852 129.611 51.7688 129.611H51.7681C48.3224 129.611 45.3828 128.01 43.7194 125.279L41.6155 127.436C41.5109 127.543 41.4592 127.69 41.4735 127.84C41.4815 127.924 41.519 128.083 41.6787 128.194C45.3906 130.772 49.746 132.135 54.2736 132.135H54.2803C55.6443 132.135 56.9813 132.012 58.2802 131.777C60.7679 131.326 62.4272 129.45 61.3536 127.162L60.2302 124.552Z" fill="var(--fill-0, #A59746)"/>
<path id="path349" d="M64.0143 50.2369C57.344 53.7999 49.5627 62.0582 52.932 74.0459C52.9814 74.2214 53.0878 74.6464 53.2036 75.1179C53.4851 76.2635 54.2867 77.2123 55.3694 77.6819L62.4134 80.7372C63.6359 81.2674 65.0186 81.3142 66.2651 80.8435C67.8605 80.2411 69.5708 79.9142 71.3499 79.9142C80.0617 79.9142 87.124 87.7495 87.124 97.4148C87.124 103.974 83.8696 109.687 79.0558 112.683C78.605 112.964 78.3014 113.429 78.2166 113.953L78.2154 113.961C77.2081 120.127 73.9643 125.405 69.3882 129.037C68.7223 129.565 68.4853 130.596 68.8789 131.349L74.3011 142.101C77.0755 147.021 82.0037 148.721 86.1148 148.721C93.9011 148.721 100.256 146.932 100.256 146.932C100.256 146.932 96.1386 144.606 93.6327 141.207C91.9808 138.966 86.7778 132.189 86.7778 132.189C85.7019 130.766 85.4179 130.855 81.304 130.038C79.738 129.727 79.1846 129.627 80.3667 131.303L86.6939 140.684C84.5729 139.374 81.8815 136.061 80.4632 134.087L76.8449 129.125C76.3637 128.462 75.3242 128.154 74.4944 128.059L72.4525 127.78C75.1445 127.205 78.7014 125.896 79.9569 125.326C79.9569 125.326 79.557 126.212 79.474 126.799C79.3572 127.624 79.8686 128.29 83.0159 128.84C87.5472 129.644 90.9407 130.165 90.9407 130.165L92.1351 123.642C92.273 122.577 91.7701 121.493 90.8338 120.841L90.3589 120.512C89.6911 120.126 89.1317 120.182 88.3705 120.229L87.0475 120.409C88.188 119.705 90.7999 117.14 91.4612 116.349C92.1212 119.907 94.0607 118.969 100.057 117.284C103.347 116.344 105.131 115.641 105.131 115.641L103.52 109.341C103.219 108.01 102.598 106.767 100.863 106.365L99.3975 106.099C98.4186 105.942 97.42 106.22 96.6769 106.854L96.2592 107.21C96.7599 106.156 97.4934 102.014 97.6315 101.175C99.7271 103.493 101.043 103.458 105.236 100.039C109.314 96.6731 110.07 95.8683 110.07 95.8683L105.356 89.0146C104.469 87.6501 103.022 86.9118 101.776 87.0593L99.4456 87.1402C98.4854 87.2609 97.5061 87.7152 97.1077 88.5751C96.6521 86.2638 95.5177 83.2335 94.8576 82.4114C98.3413 83.2355 99.3012 83.5039 103.122 77.8511C105.666 74.0611 106.044 73.5115 106.044 73.5115L99.3843 68.9736C97.3535 67.4044 94.9609 67.1392 92.3717 67.9811L88.9076 69.0982C87.3548 69.6434 86.3191 70.8574 86.1823 71.8122C84.034 70.1428 80.0991 68.7623 79.5629 68.5201L80.0259 68.4795C86.4786 67.8775 85.6459 66.9459 90.9321 55.42C90.9321 55.42 84.136 53.6456 81.1656 52.8669C79.0241 52.3131 76.6852 52.4087 74.5979 53.4064C73.1716 54.0849 65.652 58.2668 65.2826 58.5097C65.2826 58.5097 65.3852 56.2836 67.8296 54.8874C77.3322 49.4598 112.87 30.8987 113.209 30.6928C109.643 34.51 108.356 35.3679 102.777 38.3703C99.5103 40.1287 86.7272 46.7901 84.1093 48.3576C81.811 49.7222 81.6235 50.4942 83.9441 51.3015C85.5046 51.8498 89.7055 52.9191 90.6494 53.2105C92.9818 53.9368 93.5859 53.8192 94.9453 53.2105L133.379 37.0784C139.456 34.5736 141.604 30.6375 143.495 21.5208C144.796 15.2447 145.78 7.52766 145.78 7.52766C145.78 7.52766 77.0864 42.9653 64.0143 50.2369Z" fill="var(--fill-0, #7B8D76)"/>
<path id="path351" d="M95.8519 119.87C93.2683 120.439 93.414 120.927 94.5996 121.586L107.934 129.226C106.003 128.954 104.115 128.382 102.34 127.539C102.156 127.452 96.3424 124.115 96.0403 123.954C95.111 123.461 93.7276 122.725 93.447 124.582C93.3244 125.395 93.0351 126.946 92.9046 127.854C92.5816 130.106 92.882 130.78 93.8033 131.497L100.515 137.36C104.042 140.491 109.702 140.503 113.548 139.361C122.269 136.774 127.015 131.993 127.015 131.993C127.015 131.993 124.51 131.542 121.928 130.483C118.527 129.088 101.448 120.184 101.448 120.184C99.2407 119.051 99.2147 119.121 95.8519 119.87Z" fill="var(--fill-0, #7B8D76)"/>
<path id="path353" d="M88.0252 66.0012C87.1903 67.7487 87.257 68.0711 88.0836 67.8219L121.891 56.9019C118.237 59.2948 115.105 60.6988 110.542 62.3847C108.794 63.0242 102.224 65.1979 102.224 65.1979C99.4449 66.2122 99.9176 67.0814 101.758 68.3503C102.921 69.1518 104.726 70.4741 106.252 71.4301C108.49 72.8321 110.088 72.5232 111.067 72.3004L129.644 68.4768C138.612 66.5146 142.162 62.9229 143.87 54.1218C145.312 46.6918 145.81 41.0146 145.81 41.0146C141.82 43.7222 138.492 45.2744 133.817 46.9187L91.754 62.1203C89.6528 62.8706 89.3579 63.212 88.0252 66.0012Z" fill="var(--fill-0, #7B8D76)"/>
<path id="path355" d="M144.63 9.31612C144.63 9.31612 77.6503 43.6576 64.1353 51.1375C60.5002 53.0888 51.2099 59.2638 53.3807 72.3831C53.6939 74.2761 54.2308 75.8528 55.2346 75.3207L62.4866 71.2511C63.1975 70.8639 62.8017 70.2551 62.5761 69.5514C59.6227 60.3373 63.2026 54.5226 69.5304 50.9756C76.6835 46.9661 116.443 26.5041 135.389 16.4956C142.919 12.5181 144.63 9.31612 144.63 9.31612Z" fill="var(--fill-0, #A3BC9E)"/>
<path id="path357" d="M79.2874 63.8569C80.9559 63.4721 81.1699 63.5148 80.8704 65.1826L80.5256 66.6601C80.457 67.1781 80.0678 67.6286 79.5285 67.8145L79.9871 67.7741C84.6847 67.3295 84.8501 66.9836 87.622 61.173C88.2282 59.899 88.9842 57.8488 89.9172 55.995L72.6001 65.526L79.2874 63.8569Z" fill="var(--fill-0, #A3BC9E)"/>
<path id="path359" d="M98.0639 78.4851L97.0426 80.5779C96.6864 81.3069 95.8933 81.7567 95.0603 81.703L95.1219 81.7178C96.156 81.9596 96.9728 82.1516 97.633 82.1222C98.7948 82.0705 99.8622 81.3397 102.478 77.4662C103.864 75.4047 104.607 74.302 104.997 73.724L92.0233 76.6166L96.9315 76.7382C98.662 76.8596 98.4461 77.6639 98.0639 78.4851Z" fill="var(--fill-0, #A3BC9E)"/>
<path id="path361" d="M102.123 98.4981L99.6502 100.617C99.2477 100.96 98.6512 100.993 98.2034 100.697C99.1534 101.745 99.6724 102.099 100.261 102.095C101.189 102.09 102.409 101.479 104.343 99.8619C106.971 97.6503 107.793 96.9031 108.86 95.8891L98.4071 95.7655L101.688 96.6778C103.341 97.2185 102.765 97.9389 102.123 98.4981Z" fill="var(--fill-0, #A3BC9E)"/>
<path id="path363" d="M97.3938 113.655C98.1043 114.399 97.9887 114.886 96.9884 115.293L93.35 116.632C92.9388 116.816 92.4341 116.649 92.206 116.254C92.5347 118.03 93.1011 118.044 93.6491 118.057C94.6055 118.081 96.1252 117.644 98.2295 117.035C98.7239 116.892 99.2519 116.738 99.8155 116.577C101.977 115.958 103.491 115.439 104.254 115.163L95.078 111.797L97.3938 113.655Z" fill="var(--fill-0, #A3BC9E)"/>
<path id="path365" d="M84.8576 126.751L81.4669 126.395C81.0498 126.352 80.7057 126.032 80.6541 125.64C80.553 125.865 80.2782 126.537 80.2206 126.943C80.1941 127.13 80.2339 127.18 80.2601 127.213C80.3797 127.364 80.8956 127.757 83.0975 128.139C86.3887 128.717 89.1018 129.151 90.3171 129.343L84.5908 122.79L85.9987 125.877C86.4638 126.79 85.5253 126.821 84.8576 126.751Z" fill="var(--fill-0, #A3BC9E)"/>
<path id="path367" d="M73.5787 75.8104L65.9701 79.8889C67.6586 79.2511 69.4667 78.9 71.3497 78.9C80.5663 78.9 88.0379 87.1894 88.0379 97.4148C88.0379 104.585 84.3616 110.799 78.9884 113.875C78.9919 113.874 78.9951 113.873 78.9985 113.873C79.7183 113.74 80.4155 113.498 81.0624 113.155C87.7962 109.592 92.0213 102.188 92.0213 94.0627C92.0213 85.9432 87.843 79.2911 81.0798 75.7625C78.7275 74.5351 75.9172 74.5569 73.5787 75.8104Z" fill="var(--fill-0, #A3BC9E)"/>
<path id="path369" d="M72.9521 131.536L72.4031 132.044C71.4424 132.931 71.1866 134.348 71.7761 135.516L74.9242 141.75C78.108 147.396 83.8104 148.006 86.1142 148.006C91.3457 148.006 95.7535 147.218 98.0038 146.724L89.9606 145.572C85.8011 144.976 82.0866 142.652 79.7319 139.174L74.6984 131.738C74.2408 130.979 73.4731 131.055 72.9521 131.536Z" fill="var(--fill-0, #A3BC9E)"/>
<path id="path371" d="M93.267 50.0978L94.587 50.6461C96.6753 51.6003 98.1213 51.067 100.076 50.1392L133.204 36.0981C139.23 33.5039 140.798 29.3851 142.796 21.3626C143.938 16.7767 144.393 12.5739 144.706 10.0921C144.706 10.0921 142.439 14.8632 139.764 19.0035C135.58 25.4805 132.4 27.6159 127.403 30.1305L92.4987 48.1413C91.222 48.8386 92.0214 49.5726 93.267 50.0978Z" fill="var(--fill-0, #A3BC9E)"/>
<path id="path373" d="M95.3532 128.701L95.2554 129.502C95.0958 130.808 95.5958 132.108 96.5927 132.979L100.998 136.828C102.823 138.447 105.545 139.339 108.664 139.34C110.259 139.34 111.877 139.11 113.34 138.676C119.419 136.872 123.244 134.118 124.91 132.718C124.91 132.718 120.589 133.856 119.125 134.128C112.634 135.333 108.43 134.575 103.841 131.844L97.1219 127.847C95.9926 127.162 95.4552 127.867 95.3532 128.701Z" fill="var(--fill-0, #A3BC9E)"/>
<path id="path375" d="M103.333 105.401L122.991 108.903C120.566 109.416 118.075 109.493 115.63 109.142C115.493 109.122 107.422 107.819 107.072 107.758C104.702 107.354 104.96 108.711 105.323 110.09C105.643 111.31 105.776 112.579 106.075 113.512C106.554 115.004 106.875 115.629 108.5 116.223L116.003 118.612C122.287 120.632 127.918 119.856 132.084 115.821C137.743 110.34 140.619 103.814 140.619 103.814C140.619 103.814 137.486 104.708 127.057 103.608C122.664 103.144 108.489 101.518 108.489 101.518C106.401 101.219 105.934 101.297 103.119 103.724C101.791 104.869 101.863 105.139 103.333 105.401Z" fill="var(--fill-0, #7B8D76)"/>
<path id="path377" d="M109.318 112.943C109.367 113.276 109.473 114.28 109.473 114.28C109.756 115.742 110.279 115.98 112.242 116.673L116.228 117.942C118.295 118.606 120.283 118.955 122.139 118.979C125.846 119.027 129.021 117.795 131.577 115.32C135.578 111.445 138.041 107.238 139.09 105.224C139.09 105.224 134.928 108.44 131.974 110.325C128.035 112.839 123.596 113.902 118.965 113.084L110.663 111.617C109.122 111.323 109.175 111.958 109.318 112.943Z" fill="var(--fill-0, #A3BC9E)"/>
<path id="path381" d="M100.374 85.5941L127.303 82.7158C124.318 84.1818 121.126 85.0914 117.875 85.4136L109.189 86.4979C107.879 86.6225 106.243 87.0094 107.306 88.7974C107.868 89.7479 108.867 91.5573 109.563 92.6314C111.06 94.9546 112.247 95.5077 114.147 95.523L125.516 95.5992C135.987 95.6649 139.615 91.0077 141.958 85.5953C145.318 77.8334 145.648 74.0961 145.648 74.0961C145.648 74.0961 143.741 75.4757 130.774 76.9763C124.934 77.6521 106.841 80.1144 106.841 80.1144C103.719 80.4787 103.633 80.3589 100.703 83.6057C99.5978 84.8237 98.8675 85.7817 100.374 85.5941Z" fill="var(--fill-0, #7B8D76)"/>
<path id="polygon383" d="M125.522 94.8837H125.521H125.522Z" fill="var(--fill-0, #A3BC9E)"/>
<path id="path385" d="M113.315 91.4284L113.872 92.474C114.641 93.9182 115.291 94.8358 117.528 94.8358L125.521 94.8838C135.151 94.9441 138.794 91.1006 141.3 85.3111C143.45 80.3453 144.288 77.2212 144.609 75.668C144.609 75.668 141.075 80.806 137.791 84.0484C134.909 86.893 131.856 88.4842 127.797 88.7569L114.217 89.7694C112.868 89.8599 112.934 90.7123 113.315 91.4284Z" fill="var(--fill-0, #A3BC9E)"/>
<path id="path391" d="M127.427 61.4826L108.847 67.2255C107.433 67.6213 107.415 68.4779 108.451 69.0246L110.368 70.3565C111.875 71.7119 113.849 71.0145 115.738 70.6249L129.484 67.8023C138.18 65.8994 141.505 62.5442 143.163 53.9942C144.104 49.1448 144.607 45.5512 144.84 43.6701C144.84 43.6701 141.825 49.1793 140.699 50.9481C136.745 57.1602 133.091 59.7404 127.427 61.4826Z" fill="var(--fill-0, #A3BC9E)"/>
</g>
</svg>
