<svg preserveAspectRatio="xMidYMid meet" width="100%" height="100%" overflow="visible" style="display: block;" viewBox="0 0 137.369 180" fill="none" xmlns="http://www.w3.org/2000/svg">
<g id="Vector">
<path id="Vector_2" d="M0.0111634 14.35C9.01679 10.5278 17.0807 7.40432 26.6976 5.05012C60.5709 -3.24155 98.0332 -1.47966 130.527 11.4991C132.525 12.2971 135.416 13.6876 137.284 14.3332L137.285 89.0829C137.486 107.48 137.251 126.093 137.321 144.523C134.915 145.578 131.574 147.423 129.159 148.68L115.337 155.858L68.6706 180C66.1589 178.827 63.1072 177.163 60.6146 175.869L46.1535 168.352L0.0245466 144.503C0.0802588 126.172 0.234482 107.339 0.000116825 89.0382L0.0229888 39.2214L0.0245466 22.5789C0.025169 20.1619 0.146242 16.6419 0.0111634 14.35Z" fill="var(--fill-0, #ACABAB)"/>
<path id="Vector_3" d="M64.575 4.62638C68.535 4.31616 74.3396 4.6663 78.3251 4.88937C97.8897 5.98391 114.617 9.96733 132.679 17.3342C132.444 31.1002 132.663 45.5233 132.663 59.3326L132.665 141.702L71.2646 173.46L68.6299 174.855C64.5505 172.604 59.9856 170.31 55.8298 168.154L29.9054 154.757L13.1145 146.05C10.8115 144.862 6.92437 142.709 4.6411 141.749L4.62881 17.3776C24.3913 8.86922 43.2424 5.51881 64.575 4.62638Z" fill="var(--fill-0, #2B2B2A)"/>
<path id="Vector_4" d="M68.6367 137.155C69.4646 137.603 70.2909 138.956 70.3703 139.886C70.7049 143.735 70.5913 147.768 70.6333 151.659C72.5039 152.739 72.8011 153.286 73.7519 155.12C74.0149 155.013 75.207 154.541 75.2661 154.387C76.0489 152.368 73.5107 152.08 73.3069 149.979C73.0548 147.366 74.0321 145.053 75.5852 143.119C77.9381 140.186 80.2818 139.29 83.8222 138.886C83.9902 145.935 83.7257 153.121 83.914 160.208C78.9621 162.894 73.9356 165.438 68.8405 167.838C67.3808 167.582 55.5068 161.281 53.5578 160.192C53.5298 153.09 53.5411 145.986 53.5917 138.886C59.317 139.428 62.7254 142.516 64.0971 148.059C65.0025 151.718 61.6568 152.07 62.0205 154.128C62.306 154.511 62.7894 154.746 63.2589 154.897C63.7321 155.049 64.7455 153.283 65.157 152.879C65.7266 152.32 66.1576 152.06 66.8066 151.658C66.8393 148.887 66.4689 141.516 67.2485 139.226C67.5364 138.384 68.0469 137.806 68.6367 137.155Z" fill="var(--fill-0, #ACABAB)"/>
<path id="Vector_5" d="M56.3993 142.819C57.6457 143.279 58.3619 143.651 59.1622 144.577C61.8204 147.653 61.0194 149.71 59.2439 152.888C59.0338 153.264 58.9719 155.038 58.9462 155.653C59.7827 156.215 62.3176 157.458 62.5683 157.679L62.4875 158.07L61.546 160.632L56.3407 157.853C56.5184 153.025 56.3266 147.729 56.3993 142.819Z" fill="var(--fill-0, #2B2B2A)"/>
<path id="Vector_6" d="M80.5925 142.914C80.8321 142.925 80.7512 142.921 80.9815 143.044C81.1014 144.442 81.036 146.831 81.0376 148.281L81.0422 157.881C79.304 158.79 77.5781 159.718 75.8616 160.668L75.1286 158.543C74.9855 158.173 74.9699 158.143 74.9108 157.755C75.3496 157.267 77.4676 156.351 78.5056 155.617C78.4854 154.985 78.3967 153.674 78.2068 153.112C77.4194 150.772 75.9597 149.415 76.8451 146.828C77.4972 144.921 78.8573 143.81 80.5925 142.914Z" fill="var(--fill-0, #2B2B2A)"/>
<path id="Vector_7" d="M65.103 159.307C65.8684 159.566 67.8401 160.581 68.7785 160.986C69.9487 160.405 71.1268 159.838 72.3111 159.285C72.5772 160.222 72.8184 161.303 73.0581 162.258L72.1274 162.847C71.0568 163.461 69.8881 164.192 68.7365 164.602C67.4697 164.172 65.5322 162.965 64.3315 162.258C64.6011 161.34 64.8587 160.245 65.103 159.307Z" fill="var(--fill-0, #2B2B2A)"/>
<path id="Vector_8" d="M67.8807 154.639C68.9358 154.547 70.0485 154.648 70.6476 155.694C70.797 155.956 70.8281 156.269 70.7332 156.556C70.5636 157.086 69.966 157.336 69.4882 157.594C68.6775 157.668 67.5912 157.643 66.9859 157.011C66.768 156.786 66.6637 156.475 66.7011 156.164C66.782 155.472 67.364 155.072 67.8807 154.639Z" fill="var(--fill-0, #2B2B2A)"/>
<path id="Vector_9" d="M71.1933 58.9092C75.7266 58.895 78.951 58.7156 82.9162 61.5952C85.7703 63.6514 87.6782 66.7659 88.2105 70.2393C88.766 74.0744 87.9552 77.694 85.6334 80.81C93.2386 86.4049 92.5585 99.0381 84.0274 103.228C79.6856 105.361 75.9055 105.217 71.2665 105.208C71.1856 104.106 71.2151 102.732 71.2089 101.609L71.1933 96.875C74.1937 96.909 78.8935 97.2719 81.2309 95.0848C83.1559 93.2856 82.8633 89.6949 81.041 87.8732C80.3656 87.2046 79.5237 86.7271 78.6024 86.4897C76.7786 86.0062 68.498 86.2174 65.9925 86.2135C65.8586 83.58 65.924 80.5279 65.9271 77.8745C69.2465 77.9076 75.9616 78.6739 78.4702 76.3913C79.3681 75.5741 80.1135 73.7201 80.0139 72.4713C79.5751 66.9414 75.5243 67.1643 71.2151 67.2613C71.2369 64.4772 71.2291 61.693 71.1933 58.9092Z" fill="var(--fill-0, #E31E24)"/>
<path id="Vector_10" d="M49.3466 58.9177L67.8023 58.9391C67.7291 61.5362 67.768 64.2386 67.8023 66.8367L62.6906 66.8527C62.7964 70.3666 62.7149 74.3586 62.7121 77.8979L62.7332 97.1652C64.2708 97.2454 66.2134 97.1972 67.7805 97.201C67.7478 99.8357 67.7758 102.534 67.7743 105.174C67.1144 105.277 63.2186 105.209 62.3078 105.208L49.3888 105.199L49.3612 97.2334C51.0016 97.258 52.7335 97.1986 54.3809 97.1676L54.3766 66.8514L49.3749 66.8335L49.3466 58.9177Z" fill="var(--fill-0, #E31E24)"/>
<path id="Vector_11" d="M8.11642 33.9799C42.104 21.7108 74.3365 18.7808 109.648 27.8235C114.611 29.0969 119.519 30.5729 124.361 32.2483C126.012 32.8192 128.925 33.8137 130.464 34.529C130.626 34.6045 130.786 34.6826 130.947 34.7633C84.7211 23.65 55.0739 23.2671 8.78325 34.1713L8.11642 33.9799Z" fill="var(--fill-0, #ACABAB)"/>
<path id="Vector_12" d="M73.539 36.3179C80.6089 36.1141 88.1347 37.6842 94.6132 40.4752L92.9091 43.5486C84.2504 39.8134 75.6321 39.0757 66.3991 40.523C60.9172 41.6062 55.6305 43.5107 50.7185 46.172C49.5297 45.4769 48.3143 44.8456 47.0972 44.2012C54.8504 39.3454 64.4274 36.7071 73.539 36.3179Z" fill="var(--fill-0, #ACABAB)"/>
<path id="Vector_13" d="M109.352 61.9649C110.362 62.7839 113.325 69.985 113.883 71.4372C118.558 83.6038 118.224 96.9912 113.186 108.986C113.104 109.183 113.068 109.124 112.848 109.202L112.277 108.899C111.647 108.475 110.752 108.01 110.071 107.632C110.511 106.322 110.992 105.049 111.412 103.719C115.707 90.1184 113.848 77.9159 107.411 65.4321L109.352 61.9649Z" fill="var(--fill-0, #ACABAB)"/>
<path id="Vector_14" d="M86.7479 121.688C87.1229 121.815 89.8774 123.422 90.4034 123.721C89.2798 124.318 88.15 124.905 87.0155 125.481C73.1964 132.415 60.1339 133.26 45.5508 128.432L42.8545 127.431C43.3314 126.478 44.0346 125.293 44.5647 124.342C58.686 130.409 73.3878 128.739 86.7479 121.688Z" fill="var(--fill-0, #ACABAB)"/>
<path id="Vector_15" d="M24.4225 58.5152C25.1577 58.8768 26.6765 59.8381 27.4395 60.2897C27.0111 61.3671 26.6137 62.4567 26.2481 63.5568C21.6781 77.4644 23.5484 89.522 30.0613 102.385L28.7254 104.829C28.5505 105.2 28.4713 105.486 28.1339 105.703C27.5211 105.414 25.3981 100.754 25.0196 99.8758C18.7778 85.3929 18.8127 73.0207 24.4225 58.5152Z" fill="var(--fill-0, #ACABAB)"/>
<path id="Vector_16" d="M120.219 49.804L120.527 49.7837L120.655 49.9889C120.462 50.8013 119.805 51.9995 119.414 52.7836C117.505 54.0147 114.66 55.524 112.623 56.6798C118.384 66.4872 120.249 78.2497 119.743 89.5078C119.687 90.7559 119.648 92.0989 119.463 93.3309C119.268 93.058 119.225 92.3067 119.178 91.9325C118.243 80.5536 116.696 70.1399 110.23 60.3306C111.691 57.3188 113.616 53.9271 115.217 50.9438C116.876 50.5284 118.543 50.1484 120.219 49.804Z" fill="var(--fill-0, #ACABAB)"/>
<path id="Vector_17" d="M18.0421 74.2595C18.2631 74.8664 18.669 80.7851 18.8137 81.931C20.0721 91.9002 22.1003 99.0337 27.2577 107.613C25.5868 110.689 23.9335 113.774 22.2979 116.869L18.6483 117.688C17.9827 117.837 17.2903 117.971 16.6202 118.11C17.1139 117.035 17.6364 115.975 18.1875 114.929C20.2509 113.684 22.7352 112.345 24.8608 111.217C18.4178 99.1673 16.7917 87.8356 18.0421 74.2595Z" fill="var(--fill-0, #ACABAB)"/>
<path id="Vector_18" d="M34.8907 32.7647C36.1336 33.2374 36.9903 33.6511 38.181 34.2411C39.4443 36.4575 40.6933 38.6821 41.9277 40.9149C51.5494 35.3698 62.0787 33.4715 73.109 33.7795C74.6885 33.8237 76.8672 33.8637 78.4094 34.0408C77.9799 34.238 77.0353 34.2916 76.5171 34.3462C65.5505 34.9266 54.8078 37.4329 45.4875 43.3666C43.2391 41.909 38.6928 39.6339 36.1733 38.284L34.8907 32.7647Z" fill="var(--fill-0, #ACABAB)"/>
<path id="Vector_19" d="M91.9641 124.49C94.7591 126.157 98.3897 127.974 101.309 129.536L102.581 135.088C101.519 134.614 100.466 134.126 99.4168 133.624C98.4753 132.33 96.4071 128.458 95.5621 126.93C89.5987 130.451 83.2634 132.234 76.4939 133.363C71.2308 133.967 66.6291 134.321 61.3006 133.897C60.8001 133.857 59.3417 133.82 58.9744 133.608C61.3387 133.345 63.6338 133.24 66.0548 132.956C74.7992 131.929 84.6235 129.575 91.9641 124.49Z" fill="var(--fill-0, #ACABAB)"/>
<path id="Vector_20" d="M71.3489 41.592C79.0459 41.0556 84.8319 42.1814 91.9033 45.1645C90.3845 47.5104 88.8251 50.4131 87.3421 52.8745C85.5229 53.285 83.1481 54.0249 81.3087 54.5374C82.6579 52.2857 82.3109 51.4927 84.8023 50.0895L88.8158 47.6989C78.8623 42.4113 71.089 43.2455 60.3563 43.7795C63.2317 42.7875 68.3859 41.8924 71.3489 41.592Z" fill="var(--fill-0, #ACABAB)"/>
<path id="Vector_21" d="M55.4168 113.454L55.8554 113.436L55.9634 113.601C54.1948 117.603 52.5173 117.861 48.6648 120.096C55.2805 123.933 62.5058 124.668 70.0284 124.477C72.3331 124.419 74.6457 124.166 76.9411 124.209L73.0381 125.164C62.2807 127.396 55.7111 126.7 45.5964 122.736L50.0811 115.006C51.8542 114.47 53.6328 113.952 55.4168 113.454Z" fill="var(--fill-0, #ACABAB)"/>
<path id="Vector_22" d="M17.4721 50.6744C19.0947 50.7535 21.4093 50.7551 22.8265 51.5453C28.2588 54.5744 33.7872 57.4987 39.1099 60.7098C40.1582 61.3421 39.8401 62.4948 39.3914 63.3759C38.9723 63.7259 38.0887 64.2782 37.5537 64.013C31.6603 61.0918 25.7755 57.7538 20.1459 54.3523C19.4293 53.9192 17.9245 51.3934 17.4721 50.6744Z" fill="var(--fill-0, #ACABAB)"/>
<path id="Vector_23" d="M80.7594 113.713C82.409 113.76 84.6562 113.733 86.1299 114.55C91.4755 117.512 96.9175 120.392 102.145 123.554C103.458 124.347 103.198 125.307 102.577 126.479C102.251 126.689 101.357 127.24 100.979 127.057C95.1948 124.262 88.9949 120.651 83.4657 117.375C82.7451 116.949 81.0722 114.201 80.7594 113.713Z" fill="var(--fill-0, #ACABAB)"/>
<path id="Vector_24" d="M29.0455 61.3028L36.8325 65.7725C37.41 67.7562 37.9674 69.7457 38.5046 71.7407C34.0533 69.6773 34.2185 68.6893 31.6525 64.3454C29.1023 68.9071 28.1001 72.8394 27.5407 77.9974C26.8002 82.0043 27.7299 88.4239 27.5659 92.4232C24.5735 80.2688 24.2894 73.1691 29.0455 61.3028Z" fill="var(--fill-0, #ACABAB)"/>
<path id="Vector_25" d="M102.658 32.3897C102.997 33.0142 102.664 35.8211 102.421 36.4305C101.312 39.2108 99.281 42.3527 97.8462 45.0286C96.3211 47.7283 94.8692 50.4755 93.2912 53.1446C92.4057 54.6444 91.8221 54.7654 90.2581 54.2248C89.8955 53.8168 89.2046 52.8417 89.4753 52.3152C92.4851 46.4511 95.7344 40.533 99.1581 34.9027C99.5845 34.2012 101.92 32.8363 102.658 32.3897Z" fill="var(--fill-0, #ACABAB)"/>
<path id="Vector_26" d="M109.798 75.9762C109.917 76.0606 110.018 76.1372 110.064 76.2852C112.705 84.8767 112.838 94.2349 109.878 102.768C109.425 104.072 108.933 105.296 108.39 106.565C106.439 105.215 102.752 103.238 100.643 102.039L100.165 100.37C99.7717 98.952 99.3609 97.5389 98.9345 96.1304C104.115 98.306 102.671 98.9924 105.743 103.213L105.869 103.383C110.659 95.7178 110.55 84.6204 109.798 75.9762Z" fill="var(--fill-0, #ACABAB)"/>
<path id="Vector_27" d="M45.5255 113.297C46.3366 113.265 47.1833 113.424 47.6838 114.117C48.5608 115.331 47.3417 116.995 46.6982 118.135C43.9596 122.99 41.3768 127.981 38.5032 132.753C38.1996 133.257 36.9767 134.044 36.4506 134.402C35.9073 134.765 35.1899 135.168 34.6174 135.51C34.6905 134.246 34.6994 132.889 34.9881 131.655C35.3458 130.126 43.193 116.027 44.4984 114.179C44.7796 113.782 45.1166 113.544 45.5255 113.297Z" fill="var(--fill-0, #ACABAB)"/>
<path id="Vector_28" d="M38.0272 96.4851C38.3145 97.3937 37.7902 100.73 37.335 101.55C34.3126 106.993 31.3533 112.504 28.167 117.851C27.4973 118.974 26.3378 118.744 25.3418 118.193C25.2629 118.074 25.1857 117.953 25.1106 117.832C24.8852 117.465 24.5581 116.791 24.7912 116.339C27.7516 110.593 31.08 104.453 34.4853 98.9843C34.9122 98.2989 37.4413 96.8393 38.0272 96.4851Z" fill="var(--fill-0, #ACABAB)"/>
<path id="Vector_29" d="M110.229 49.1433C110.387 49.1462 110.544 49.1525 110.699 49.1619C113.936 49.3661 112.436 52.2803 111.507 53.9017C108.673 58.8445 106.116 64.0017 103.06 68.8084C102.809 69.2015 101.529 70.0454 101.077 70.3544L99.3313 71.4076C99.4044 70.1764 99.4309 68.9027 99.6674 67.6908C99.974 66.1227 107.943 51.9436 109.195 50.1097C109.479 49.6941 109.815 49.4203 110.229 49.1433Z" fill="var(--fill-0, #ACABAB)"/>
<path id="Vector_30" d="M98.8883 103.826C99.9823 103.735 100.41 103.896 101.375 104.447C106.662 107.467 112.141 110.254 117.318 113.442C117.994 113.858 119.427 116.163 119.784 116.88L119.682 117.048L119.001 117.066C118.349 117.034 115.983 116.91 115.269 116.521C109.523 113.385 103.44 110.416 98.0215 106.776C96.9493 106.056 98.146 104.414 98.8883 103.826Z" fill="var(--fill-0, #ACABAB)"/>
<path id="Vector_31" d="M35.8839 40.7602C36.8209 40.7467 37.6205 41.17 38.4249 41.6355C43.564 44.6108 48.9139 47.2859 53.9759 50.3769C54.6092 50.7635 56.2745 53.1908 56.4841 53.896C56.1646 54.1918 55.8996 54.0844 55.3522 54.0872C54.5542 54.0172 53.7453 53.9589 52.9534 53.8384C51.5571 53.6259 35.2313 44.5639 34.6984 43.7174C34.4535 43.3281 34.3084 42.8172 34.4128 42.3617C34.5993 41.5499 35.2186 41.1538 35.8839 40.7602Z" fill="var(--fill-0, #ACABAB)"/>
<path id="Vector_32" d="M37.7156 105.22C38.651 105.212 39.3572 105.3 39.9791 106.12C40.2007 106.382 40.3694 107.254 40.2229 107.55C37.7973 112.445 34.8791 117.16 32.1652 121.909C31.9512 122.283 31.5223 122.571 31.1605 122.786C27.3556 122.927 28.7515 119.534 30.0774 117.722C31.7033 115.499 35.7613 106.46 37.7156 105.22Z" fill="var(--fill-0, #ACABAB)"/>
<path id="Vector_33" d="M102.596 40.7605C106.031 40.5293 105.363 43.4901 104.005 45.3243C102.193 47.7681 98.1843 56.8408 96.211 58.2835C94.5973 58.3647 92.9383 57.2411 93.6262 56.0017C95.0019 53.5218 100.78 41.8895 102.596 40.7605Z" fill="var(--fill-0, #ACABAB)"/>
<path id="Vector_34" d="M106.203 45.1084C110.018 44.5109 108.762 48.2966 107.428 50.0739C105.774 52.2766 101.795 61.3234 99.7902 62.5768C96.5113 62.9787 97.0015 59.9244 98.3429 58.1285C100.153 55.7042 104.102 46.6177 106.203 45.1084Z" fill="var(--fill-0, #ACABAB)"/>
<path id="Vector_35" d="M41.3364 109.554C44.7116 109.414 44.1866 112.132 42.8113 114.026C40.9703 116.561 37.1358 125.462 34.9253 127.08C34.7228 127.1 34.5192 127.108 34.3158 127.103C33.0357 127.071 31.8805 125.684 32.3598 124.851C33.833 122.292 39.4333 110.85 41.3364 109.554Z" fill="var(--fill-0, #ACABAB)"/>
<path id="Vector_36" d="M27.3423 48.361C27.5608 48.3498 27.7805 48.3433 27.9986 48.3666C29.2098 48.496 42.67 56.0948 43.2945 57.0374C43.5384 57.4056 43.6453 57.8909 43.5585 58.3249C43.4003 59.1153 42.8418 59.572 42.2175 60.001C41.9769 60.0173 41.7245 60.0326 41.4854 59.9931C40.294 59.7963 26.7502 52.0391 26.161 51.1784C25.954 50.8759 25.8966 50.3397 25.9666 49.9893C26.1208 49.2177 26.734 48.7729 27.3423 48.361Z" fill="var(--fill-0, #ACABAB)"/>
<path id="Vector_37" d="M90.9324 111.575C91.2733 111.546 91.6218 111.519 91.9549 111.62C93.4955 112.09 106.515 119.353 107.017 120.326C107.256 120.79 107.358 121.25 107.17 121.751C106.891 122.492 106.342 122.841 105.674 123.174C104.017 123.246 92.1463 116.013 89.9489 114.563C88.9514 113.904 89.9489 112.254 90.9324 111.575Z" fill="var(--fill-0, #ACABAB)"/>
<path id="Vector_38" d="M95.3629 107.822C95.5092 107.82 95.5123 107.816 95.643 107.827C96.9674 107.933 110.617 115.663 111.239 116.515C111.524 116.904 111.614 117.422 111.493 117.886C111.297 118.642 110.752 119.061 110.128 119.453C109.887 119.472 109.638 119.489 109.398 119.456C108.348 119.308 94.6486 111.515 94.1569 110.786C93.9219 110.437 93.8005 109.969 93.883 109.553C94.0526 108.7 94.6829 108.26 95.3629 107.822Z" fill="var(--fill-0, #ACABAB)"/>
<path id="Vector_39" d="M31.8723 44.6262C32.0479 44.6364 32.2223 44.661 32.3938 44.6995C35.2909 45.3777 42.9334 50.8555 46.1656 52.2407C48.1468 53.0898 48.7275 55.2553 46.2425 56.3349C45.9053 56.3285 45.423 56.2738 45.1469 56.1013C42.5107 54.4548 32.1381 49.2364 30.4727 47.5906C29.8281 46.0177 30.5292 45.3201 31.8723 44.6262Z" fill="var(--fill-0, #ACABAB)"/>
<path id="Vector_40" d="M85.4501 10.9442C87.0032 10.8358 88.8333 11.1415 90.3973 11.3272C92.6616 11.498 92.6725 13.7957 92.6336 15.566C92.6009 17.0546 92.8997 18.8538 91.5131 19.7417C90.0939 19.7959 86.0399 19.6522 84.9381 18.5902C84.4697 17.9382 84.3079 16.5072 84.3623 15.7629C84.4822 14.1255 83.9266 11.9345 85.4501 10.9442Z" fill="var(--fill-0, #ACABAB)"/>
<path id="Vector_41" d="M87.0313 13.2128C87.9105 13.2151 89.1026 13.3725 89.9989 13.4646L89.9912 17.4236C89.0014 17.3087 88.0117 17.199 87.0219 17.0945L87.0313 13.2128Z" fill="var(--fill-0, #2B2B2A)"/>
<path id="Vector_42" d="M43.8853 12.07C47.0393 11.6494 46.7398 13.3953 46.7595 15.9477C46.7682 17.1026 46.6054 18.6811 46.0632 19.7138C44.8696 20.532 43.3568 20.5904 41.8947 20.8125C40.9668 20.9543 40.0222 21.2063 39.1902 20.7676C38.2724 19.6774 38.339 14.5875 39.1221 13.3466C39.6491 12.5117 42.9162 12.205 43.8853 12.07Z" fill="var(--fill-0, #ACABAB)"/>
<path id="Vector_43" d="M43.9044 14.2522C44.259 14.6539 44.0832 17.4861 44.0701 18.1992L41.3516 18.6112C41.0464 18.172 41.1692 15.4004 41.1746 14.668C42.0441 14.5089 43.022 14.3845 43.9044 14.2522Z" fill="var(--fill-0, #2B2B2A)"/>
<path id="Vector_44" d="M17.518 18.2361C19.7569 18.249 18.0988 21.5757 18.2424 21.9796C19.9955 26.9072 16.4193 27.1414 12.4717 28.4833L10.9203 29.0487L10.9186 20.5201C13.0974 19.7389 15.3088 18.9164 17.518 18.2361Z" fill="var(--fill-0, #ACABAB)"/>
<path id="Vector_45" d="M15.8368 23.827C15.9019 23.8373 16.0505 23.9327 16.1182 23.9709L16.1235 24.6163C15.7898 25.1645 14.4336 25.4746 13.7887 25.675C13.5508 25.679 13.6608 25.6823 13.4109 25.5401L13.416 24.9001C13.8592 24.3504 15.1267 24.0538 15.8368 23.827Z" fill="var(--fill-0, #2B2B2A)"/>
<path id="Vector_46" d="M15.9438 21.0567C16.2024 21.4226 16.1324 21.2644 16.1375 21.7623C15.781 22.2867 14.2721 22.658 13.5964 22.8679L13.4695 22.7703C13.2952 22.2973 13.2853 22.5232 13.4918 22.0703C14.0936 21.6475 15.2164 21.3117 15.9438 21.0567Z" fill="var(--fill-0, #2B2B2A)"/>
<path id="Vector_47" d="M25.8317 15.764C26.1112 15.7248 26.8373 15.624 27.0576 15.776C28.5682 16.8174 27.9546 22.025 27.2905 23.2626C26.7823 24.2099 23.261 24.9569 22.069 25.2684C21.8097 25.3318 21.0755 25.4189 20.9054 25.3312C19.2582 24.4808 19.9116 19.0401 20.4997 17.8755C21.049 16.7875 24.6671 16.0638 25.8317 15.764Z" fill="var(--fill-0, #ACABAB)"/>
<path id="Vector_48" d="M25.1381 18.1121L25.2349 18.1951C25.3992 18.82 25.3388 21.2777 25.336 22.0764L22.6847 22.801C22.3685 22.3798 22.4889 19.5778 22.4928 18.8523L25.1381 18.1121Z" fill="var(--fill-0, #2B2B2A)"/>
<path id="Vector_49" d="M103.245 13.2472L105.701 13.7617C105.741 15.3215 105.72 16.9808 105.726 18.5489C106.736 17.2233 107.719 15.8103 108.689 14.4502L111.199 15.0367C111.213 16.4819 111.347 22.3591 111.081 23.4625C110.327 23.2819 109.496 23.1316 108.731 22.9778C108.665 21.4977 108.709 19.703 108.706 18.1989C107.711 19.4345 106.664 20.963 105.727 22.2674C104.82 22.0318 104.165 21.9042 103.237 21.7543C103.217 18.9187 103.22 16.0828 103.245 13.2472Z" fill="var(--fill-0, #ACABAB)"/>
<path id="Vector_50" d="M55.534 10.6819L56.0997 10.6608C56.4535 11.1619 56.2897 17.9676 56.2866 19.0814C55.3929 19.155 54.4998 19.236 53.6075 19.3242L53.6243 15.9859C52.6966 16.0334 51.7067 16.1476 50.7772 16.2375C50.7636 17.2541 50.9985 18.5338 50.6379 19.3699C50.0963 19.8191 50.0677 19.6934 49.2547 19.8109C48.7515 19.816 48.5009 19.9108 48.1551 19.6628C47.9707 17.7983 48.1033 13.4622 48.1108 11.4221L50.7706 11.1916L50.7721 14.4023C51.7103 14.3809 52.6647 14.2554 53.5994 14.151L53.6104 10.8369L55.534 10.6819Z" fill="var(--fill-0, #ACABAB)"/>
<path id="Vector_51" d="M66.6336 9.97544C69.0317 9.9728 71.4283 10.0068 73.8249 10.0775L73.8015 12.3172C72.6562 12.276 70.5475 12.1463 69.4799 12.2243C69.1827 12.5877 69.1282 12.7428 69.4068 13.0931C70.6673 13.5943 72.527 12.8479 73.4125 13.7874C73.4545 14.2584 73.5245 14.5443 73.3533 14.9855C72.8071 15.2471 70.6533 15.1188 69.9032 15.1042L69.4146 15.1805C69.1796 15.6271 69.1983 15.4077 69.2885 15.8506C69.9375 16.3879 72.7558 16.2506 73.8155 16.2753L73.828 18.5444L66.6399 18.3807L66.6336 9.97544Z" fill="var(--fill-0, #ACABAB)"/>
<path id="Vector_52" d="M36.5048 13.2949L36.9715 13.3125C37.3339 13.9222 37.1803 20.3305 37.177 21.5859C36.3725 21.8273 35.3508 21.9785 34.5092 22.1276L34.5077 15.9427C33.6441 16.0435 32.9641 16.208 32.1147 16.4044L32.1153 19.9219C32.1429 22.8124 31.3756 22.8484 28.8121 23.3797C28.8049 23.151 28.7706 21.9457 28.8334 21.8646C30.7205 19.4346 27.8681 15.0308 32.0579 14.1931C33.8033 13.844 35.0372 13.5883 36.5048 13.2949Z" fill="var(--fill-0, #ACABAB)"/>
<path id="Vector_53" d="M75.2224 10.1329C76.3708 10.1851 81.6993 10.1498 82.6252 11.0713C83.657 12.0973 83.6975 14.8048 82.1724 15.4202C81.5032 15.6904 80.7734 15.5928 79.9875 15.5622C79.3276 15.4892 78.5059 15.4626 77.8305 15.4232L77.815 18.7194L75.2224 18.6178V10.1329Z" fill="var(--fill-0, #ACABAB)"/>
<path id="Vector_54" d="M77.6921 12.4481C78.2367 12.467 78.8157 12.4234 79.365 12.4552C80.5711 12.5254 80.5539 12.821 80.6987 13.8014C78.9837 13.6669 78.022 14.344 77.6921 12.4481Z" fill="var(--fill-0, #2B2B2A)"/>
<path id="Vector_55" d="M94.0433 11.7849C95.5746 11.9814 100.106 12.3717 101.424 13.4795C102.413 14.3109 102.288 16.9818 101.123 17.6611C100.586 17.9744 99.9585 17.8029 99.3173 17.6968C98.4739 17.604 97.4545 17.412 96.6033 17.2753C96.5675 18.3602 96.5722 19.5204 96.5582 20.6117L94.0278 20.2272C93.9998 17.4132 94.0044 14.5989 94.0433 11.7849Z" fill="var(--fill-0, #ACABAB)"/>
<path id="Vector_56" d="M96.5972 14.3675C97.4516 14.5202 98.3075 14.3858 99.0669 14.7806C99.4638 15.2576 99.3424 15.2267 99.361 15.9436C98.4242 15.7381 97.5885 15.87 96.8026 15.458C96.468 14.9962 96.577 15.0254 96.5972 14.3675Z" fill="var(--fill-0, #2B2B2A)"/>
<path id="Vector_57" d="M113.138 15.8941C114.898 15.8026 118.185 16.924 120.032 17.4318L120.023 19.6332L115.219 18.259L115.197 22.2639L117.629 22.9707C118.431 23.1998 119.238 23.4102 120.051 23.6014L120.035 25.9682C115.78 24.6801 111.921 25.0392 112.589 19.5519C112.738 18.3165 112.288 17.0548 113.138 15.8941Z" fill="var(--fill-0, #ACABAB)"/>
<path id="Vector_58" d="M62.6502 10.2407C63.5405 10.178 64.493 10.1522 65.3902 10.1115V12.297L62.7678 12.3841L62.7635 18.6997L60.1304 18.8196L60.1223 12.5812L57.5264 12.7071L57.5271 10.5003L62.6502 10.2407Z" fill="var(--fill-0, #ACABAB)"/>
<path id="Vector_59" d="M121.112 17.7877C123.42 18.5053 126.165 19.5516 128.446 20.4018L128.432 22.5757C127.638 22.281 126.825 22.0001 126.025 21.7154C125.998 22.6819 126.004 23.6847 125.998 24.6546L125.975 28.047L123.494 27.1337L123.515 20.8341L121.031 19.9476C121.104 19.3328 121.098 18.4302 121.112 17.7877Z" fill="var(--fill-0, #ACABAB)"/>
<path id="Vector_60" d="M5.94989 34.7706C6.74247 34.4363 7.29476 34.2374 8.11691 33.9796L8.78374 34.1709C7.71136 34.5492 7.08639 34.7769 5.94989 34.7706Z" fill="var(--fill-0, #727375)"/>
</g>
</svg>
