<svg preserveAspectRatio="xMidYMid meet" width="100%" height="100%" overflow="visible" style="display: block;" viewBox="0 0 157.796 180" fill="none" xmlns="http://www.w3.org/2000/svg">
<g id="Vector">
<g id="Shield">
<path id="path229" d="M0 1.05706C0.0114443 0.775018 0.130709 0.508124 0.333191 0.311436C0.535673 0.114749 0.805927 0.00327124 1.0882 0L156.708 0C156.99 0.00326838 157.26 0.114745 157.463 0.311433C157.665 0.50812 157.785 0.775016 157.796 1.05706V70.2508C157.796 121.216 126.933 161.812 79.2956 179.974C79.0317 180.009 78.7643 180.009 78.5005 179.974C30.8607 161.811 0 121.213 0 70.2508V1.05706Z" fill="var(--fill-0, #6D7277)"/>
<path id="path231" d="M1.08821 70.2508V1.05706H156.708V70.2508C156.708 120.753 126.146 160.976 78.898 178.989C31.6471 160.975 1.08821 120.749 1.08821 70.2508ZM5.71539 70.2508C5.71539 122.007 38.5415 158.443 78.898 174.157C119.255 158.443 152.081 122.007 152.081 70.2508V5.55212H5.71539L5.71539 70.2508Z" fill="var(--fill-0, #B5B5BA)"/>
<path id="path233" d="M5.71549 70.2509C5.71549 122.007 38.5416 158.443 78.8982 174.157C119.255 158.443 152.081 122.007 152.081 70.2509V5.55214H5.71549V70.2509Z" fill="var(--fill-0, #4B0B1B)"/>
<path id="path235" d="M78.8982 173.018C118.72 157.353 150.993 121.338 150.993 70.2507V6.60914H6.80372V70.2507C6.80372 121.338 39.0763 157.353 78.8982 173.018Z" fill="var(--fill-0, #71112A)"/>
<path id="path237" d="M1.63234 70.2509V1.58579H156.164C155.885 2.00664 155.503 2.34905 155.054 2.58038C154.605 2.81172 154.105 2.92427 153.6 2.9073H2.99269V70.2509C2.99269 90.0499 7.76069 108.243 16.4435 124.089C17.1574 125.497 16.2732 126.31 15.3241 124.871C6.47397 108.792 1.63234 90.3328 1.63234 70.2509Z" fill="var(--fill-0, #D0D4D7)"/>
<path id="path239" d="M153.985 7.1824V70.2508C153.985 118.936 124.864 158.251 78.898 176.15C78.9219 175.711 79.0723 175.288 79.3311 174.932C79.5899 174.577 79.946 174.303 80.3566 174.145C124.458 156.281 152.625 117.811 152.625 70.2508V8.21062C152.625 6.04862 153.985 6.13181 153.985 7.1824Z" fill="var(--fill-0, #D0D4D7)"/>
</g>
<g id="Shepherds_axes">
<path id="Vector_2" d="M89.7743 162.984H83.6332L81.9925 26.4061H80.3596V15.6405H81.7855V13.3787H91.6592V15.6639C91.6592 15.6639 97.2904 15.6288 108.448 15.1997C116.006 14.9091 127.33 13.9611 128.963 13.922C128.963 13.922 131.22 25.873 122.626 37.6387C122.626 37.6387 113.088 31.8592 101.884 30.7342C101.873 29.6869 101.542 28.6681 100.936 27.8137C100.33 26.9594 99.4782 26.3102 98.4936 25.953L95.0403 24.7811L94.6496 26.4061H91.4697L89.7743 162.984Z" fill="var(--fill-0, #CC9944)"/>
<path id="Vector_3" d="M85.4067 26.5002H90.8212L89.0514 161.914H87.5044L87.5866 29.7734H85.3719L85.4067 26.5002Z" fill="var(--fill-0, #DFB560)"/>
<path id="Vector_4" d="M90.4872 16.703V25.328H85.7896C86.3055 23.9496 86.5599 22.4871 86.5397 21.0155C86.5213 19.5472 86.2681 18.0913 85.7896 16.703L90.4872 16.703Z" fill="var(--fill-0, #DFB560)"/>
<path id="Vector_5" d="M90.9915 13.8748H85.3248V15.6288H90.9915V13.8748Z" fill="var(--fill-0, #DFB560)"/>
<path id="Vector_6" d="M95.259 23.1875V17.204C95.259 17.204 113.104 17.0937 127.605 15.5C127.605 15.5 128.73 26.2187 122.323 35.6562C122.323 35.6562 121.573 25.9765 112.557 22.2968C105.15 19.4531 99.353 24.625 99.353 24.625L95.259 23.1875Z" fill="var(--fill-0, #DFB560)"/>
<path id="Vector_7" d="M67.8043 162.984H73.9453L75.5861 26.4061H77.219V15.6405H75.7931V13.3787H65.9194V15.6639C65.9194 15.6639 60.2882 15.6288 49.1307 15.1997C41.5725 14.9091 30.249 13.9611 28.616 13.922C28.616 13.922 26.3583 25.873 34.9527 37.6387C34.9527 37.6387 44.4902 31.8592 55.6941 30.7342C55.7056 29.6869 56.0364 28.6681 56.6423 27.8137C57.2482 26.9594 58.1003 26.3102 59.0849 25.953L62.5383 24.7811L62.929 26.4061H66.1089L67.8043 162.984Z" fill="var(--fill-0, #CC9944)"/>
<path id="Vector_8" d="M72.172 26.5002H66.7576L68.5273 161.914H70.0743L69.9922 29.7734H72.2069L72.172 26.5002Z" fill="var(--fill-0, #DFB560)"/>
<path id="Vector_9" d="M67.0915 16.703V25.328H71.7891C71.2732 23.9496 71.0188 22.4871 71.039 21.0155C71.0574 19.5472 71.3106 18.0913 71.7891 16.703L67.0915 16.703Z" fill="var(--fill-0, #DFB560)"/>
<path id="Vector_10" d="M66.5872 15.6286H72.2539V13.8747H66.5872V15.6286Z" fill="var(--fill-0, #DFB560)"/>
<path id="Vector_11" d="M62.3195 23.1875V17.204C62.3195 17.204 44.4746 17.0937 29.9736 15.5C29.9736 15.5 28.8485 26.2187 35.2552 35.6562C35.2552 35.6562 36.0052 25.9765 45.0215 22.2968C52.4282 19.4531 58.2255 24.625 58.2255 24.625L62.3195 23.1875Z" fill="var(--fill-0, #DFB560)"/>
</g>
<g id="Wings">
<path id="Vector_12" d="M94.4654 119.079L96.3554 119.375C96.3782 119.378 96.4 119.387 96.4196 119.399C96.4391 119.411 96.4561 119.427 96.4695 119.446C98.3138 122.046 100.074 124.743 102.496 126.723C102.506 126.73 102.518 126.733 102.53 126.732C102.541 126.731 102.552 126.725 102.56 126.716C102.566 126.708 102.57 126.699 102.57 126.689C102.57 126.68 102.567 126.671 102.562 126.663L98.7075 120.851C98.6703 120.795 98.6504 120.729 98.6502 120.661C98.65 120.594 98.6695 120.528 98.7064 120.472C98.7432 120.415 98.7958 120.371 98.8576 120.344C98.9194 120.317 98.9877 120.309 99.0541 120.32C100.044 120.492 101.043 120.683 102.051 120.892C102.362 120.96 102.638 121.137 102.83 121.391C104.553 123.549 106.176 125.894 108.145 127.825C109.18 128.842 110.383 129.874 111.532 130.872C111.567 130.901 111.562 130.923 111.518 130.936C108.202 131.989 104.698 132.317 101.244 131.897C100.07 131.781 98.935 131.418 97.9117 130.832C96.8884 130.246 96.0004 129.451 95.3055 128.499C94.7768 127.709 94.3104 126.879 93.9105 126.017C93.2258 124.629 92.6356 123.247 91.9309 121.871C91.827 121.689 91.7775 121.481 91.7883 121.271C91.8073 118.352 91.7483 115.449 91.7882 112.619C91.7813 112.522 91.8065 112.426 91.8599 112.345C91.9132 112.263 91.9919 112.202 92.0836 112.17C96.9938 110.219 98.8689 109.547 101.275 107.156C103.762 104.685 104.713 102.328 105.658 99.2237C105.924 97.955 106.01 96.6554 105.915 95.3627C105.864 93.4602 105.238 91.6178 104.119 90.0779C102.766 87.9119 100.66 86.3229 98.2054 85.6168C97.9716 85.5434 97.7273 85.5088 97.4822 85.5141C96.8599 85.53 96.2449 85.3772 95.7025 85.0718C95.16 84.7665 94.7104 84.32 94.4012 83.7797C92.7645 81.3942 91.9381 78.5457 92.044 75.6547C92.1498 72.7637 93.1822 69.9833 94.9889 67.7238C95.9484 66.6121 96.9949 65.5786 98.1184 64.633C109.009 54.7525 119.893 44.8659 130.773 34.973C131.528 34.2865 132.208 33.6228 132.811 32.9819C137.761 27.733 142.242 22.0619 146.204 16.0331C146.209 16.0248 146.217 16.0184 146.226 16.0149C146.235 16.0115 146.246 16.0111 146.255 16.0138C146.264 16.0165 146.273 16.0222 146.279 16.0301C146.285 16.0379 146.288 16.0475 146.288 16.0574C146.262 22.7823 145.358 29.4751 143.598 35.9658C142.444 40.3444 140.294 44.6561 134.623 49.5342C127.004 55.9212 119.373 62.2934 111.729 68.6509C110.833 69.3969 108.958 70.14 107.714 69.7677C106.543 69.4178 105.379 69.0465 104.221 68.6538C103.405 68.3771 103.409 67.7609 103.96 67.2189C108.488 62.7593 113.021 58.304 117.557 53.853C118.829 52.6055 119.506 51.9385 119.589 51.8519C121.041 50.3209 122.266 48.5887 123.225 46.7087C123.226 46.7057 123.227 46.7025 123.228 46.6992C123.228 46.6958 123.228 46.6924 123.227 46.6892C123.226 46.6859 123.225 46.6829 123.223 46.6802C123.22 46.6776 123.218 46.6753 123.215 46.6736C123.21 46.6709 123.205 46.6698 123.199 46.6705C123.194 46.6711 123.189 46.6735 123.185 46.6773C115.119 54.0779 107.057 61.4776 98.9999 68.8763C97.9544 69.8376 97.4622 70.6563 97.6762 72.047C97.6867 72.1145 97.7161 72.1244 97.7646 72.0769C98.3695 71.476 98.9904 70.9016 99.6275 70.3539C100.659 69.4682 102.594 69.8433 103.843 70.2341C105.686 70.8103 107.526 71.3832 109.36 71.9528C109.379 71.9585 109.395 71.9716 109.404 71.989C109.413 72.0065 109.415 72.0269 109.41 72.0459L109.406 72.0569C108.637 73.7124 107.869 75.3517 107.1 76.9748C106.115 79.0544 104.951 80.1755 102.423 79.9087C102.407 79.907 102.391 79.9094 102.376 79.9158C102.361 79.9221 102.348 79.9322 102.338 79.9451C102.328 79.9579 102.321 79.9731 102.319 79.9893C102.316 80.0054 102.318 80.0218 102.323 80.0371C102.338 80.0701 102.358 80.1 102.383 80.1255C102.407 80.1517 102.437 80.1717 102.47 80.184C103.854 80.7114 105.141 81.4611 106.283 82.4034C106.292 82.4105 106.302 82.4153 106.313 82.4172C106.324 82.419 106.336 82.418 106.346 82.4141C106.357 82.4102 106.366 82.4036 106.373 82.3949C106.381 82.3863 106.385 82.3759 106.387 82.3649C106.718 80.4436 108.488 80.3609 110.002 79.9729C111.765 79.5208 113.12 79.5565 114.583 80.6176C115.899 81.5714 117.255 82.5569 118.651 83.5744C118.679 83.594 118.697 83.6237 118.702 83.6568C118.707 83.6898 118.699 83.7236 118.679 83.7507L118.676 83.7555C117.746 84.9413 116.819 86.1408 115.894 87.3541C115.472 87.9747 114.96 88.529 114.375 88.9986C113.995 89.2302 113.568 89.3746 113.125 89.4212C112.682 89.4678 112.235 89.4155 111.815 89.2682C111.798 89.263 111.78 89.263 111.763 89.2682C111.746 89.2735 111.731 89.2837 111.72 89.2975C111.709 89.3113 111.702 89.3282 111.701 89.3458C111.699 89.3635 111.703 89.3811 111.712 89.3965C112.303 90.4627 112.639 91.6516 112.692 92.8696C112.693 92.8909 112.7 92.9116 112.712 92.9292C112.724 92.9469 112.741 92.9608 112.76 92.9696C112.78 92.9783 112.801 92.9814 112.822 92.9786C112.844 92.9758 112.864 92.9672 112.88 92.9537C113.256 92.6454 113.688 92.4145 114.154 92.2742C114.619 92.134 115.107 92.0872 115.59 92.1365C116.074 92.1858 116.542 92.3303 116.97 92.5616C117.397 92.793 117.774 93.1065 118.079 93.4843C118.138 93.5575 118.383 93.9331 118.813 94.6111C119.449 95.6143 120.091 96.6312 120.74 97.662C120.764 97.7005 120.773 97.7466 120.765 97.7914C120.757 97.8363 120.733 97.8765 120.697 97.9044C119.386 98.9104 118.098 99.907 116.833 100.894C116.351 101.317 115.801 101.653 115.205 101.89C114.351 102.123 113.629 101.8 113.037 100.918C113.03 100.907 113.019 100.898 113.006 100.893C112.993 100.888 112.979 100.886 112.966 100.89C112.952 100.893 112.94 100.9 112.931 100.91C112.922 100.92 112.916 100.933 112.914 100.947C112.739 102.235 112.396 103.494 111.895 104.694C111.89 104.704 111.889 104.715 111.891 104.725C111.893 104.736 111.899 104.746 111.907 104.753C111.915 104.76 111.925 104.765 111.936 104.766C111.947 104.767 111.958 104.765 111.967 104.759C112.219 104.582 112.486 104.428 112.766 104.3C114.08 103.905 115.792 104.336 116.208 105.786C116.645 107.312 117.051 108.847 117.423 110.389C117.427 110.399 117.429 110.409 117.428 110.42C117.427 110.431 117.423 110.441 117.418 110.45C117.412 110.459 117.405 110.467 117.396 110.472C117.387 110.478 117.377 110.482 117.366 110.483C115.567 110.932 113.773 111.373 111.983 111.807C110.465 112.176 109.28 111.944 108.742 110.298C108.738 110.286 108.732 110.276 108.722 110.269C108.713 110.261 108.702 110.256 108.691 110.254C108.679 110.252 108.667 110.254 108.656 110.258C108.645 110.262 108.635 110.27 108.628 110.279C107.915 111.217 107.057 112.035 106.085 112.701C106.075 112.708 106.068 112.717 106.064 112.729C106.061 112.74 106.061 112.752 106.065 112.763C106.069 112.774 106.076 112.784 106.086 112.79C106.096 112.797 106.107 112.8 106.119 112.799C107.568 112.686 108.488 113.257 108.879 114.511C108.938 114.713 108.94 114.927 108.885 115.13C108.485 116.742 108.098 118.33 107.725 119.895C107.723 119.914 107.717 119.933 107.707 119.949C107.697 119.965 107.683 119.979 107.667 119.989C107.651 120 107.632 120.006 107.613 120.008C107.594 120.011 107.575 120.008 107.557 120.002C105.819 119.659 104.09 119.32 102.372 118.985C101.13 118.743 100.361 118.378 100.272 117.057C100.272 117.049 100.273 117.041 100.275 117.033L100.428 116.471C100.454 116.373 100.425 116.351 100.339 116.406C98.5262 117.571 96.5431 118.447 94.4611 119.002C94.4528 119.005 94.4456 119.01 94.4406 119.018C94.4357 119.025 94.4332 119.034 94.4337 119.042C94.4342 119.051 94.4376 119.06 94.4433 119.066C94.449 119.073 94.4568 119.077 94.4654 119.079Z" fill="var(--fill-0, #B5B5BA)"/>
<path id="Vector_13" d="M129.178 68.9419C129.356 68.8021 129.341 68.7764 129.134 68.8649C122.604 71.6262 116.043 74.4027 109.45 77.1945C109.36 77.233 109.269 77.233 109.173 77.2658C109.131 77.281 109.085 77.28 109.043 77.2629C108.991 77.25 108.942 77.2253 108.9 77.1907C108.859 77.156 108.825 77.1124 108.803 77.063C108.781 77.0136 108.771 76.9598 108.772 76.9058C108.774 76.8517 108.788 76.7987 108.814 76.7509C109.169 75.7591 109.406 75.1159 109.525 74.8211C109.813 74.0994 110.291 73.9468 111.119 73.5617C118.181 70.285 125.244 67.0083 132.306 63.7316C135.572 62.2171 138.719 60.4588 141.721 58.4714C143.099 57.5585 144.7 56.3105 146.19 55.2265C146.245 55.1866 146.268 55.2004 146.259 55.2679C145.804 59.0298 145.056 62.7504 144.021 66.3959C142.625 71.3209 139.264 74.0623 134.467 75.5599C129.402 77.1431 124.335 78.7239 119.268 80.3023C118.878 80.4547 118.461 80.5223 118.044 80.5004C117.626 80.4785 117.218 80.3677 116.847 80.1754C115.685 79.4965 114.527 78.809 113.374 78.113C113.335 78.0897 113.305 78.0541 113.288 78.0117C113.225 77.8945 113.189 77.7648 113.183 77.632C113.176 77.4992 113.199 77.3666 113.249 77.2436C113.3 77.1207 113.377 77.0104 113.475 76.9208C113.573 76.8312 113.69 76.7644 113.817 76.7252C116.887 75.3407 119.961 73.9639 123.04 72.5946C125.228 71.6324 127.289 70.4057 129.178 68.9419Z" fill="var(--fill-0, #B5B5BA)"/>
<path id="Vector_14" d="M118.062 78.1386C117.64 77.7606 117.98 77.3456 118.398 77.1915C123.127 75.44 127.856 73.6814 132.585 71.9156C133.182 71.6955 133.761 71.4274 134.315 71.1141C139.767 68.0349 143.787 62.9323 145.505 56.9109C145.506 56.9052 145.508 56.8997 145.511 56.8948C145.514 56.8899 145.519 56.8857 145.523 56.8823C145.528 56.879 145.534 56.8767 145.539 56.8755C145.545 56.8743 145.551 56.8742 145.557 56.8752L145.566 56.8781C145.577 56.8821 145.589 56.8855 145.6 56.8881C145.603 56.8889 145.604 56.8905 145.606 56.8927C145.607 56.8948 145.607 56.8972 145.606 56.8995C145.355 58.2003 145.21 59.5924 144.946 60.809C144.622 62.3052 144.325 63.7814 143.884 65.2691C143.677 66.0923 143.415 66.9009 143.1 67.6895C142.331 69.4205 141.193 70.9621 139.764 72.2055C138.336 73.449 136.652 74.3642 134.831 74.8866C127.633 77.1763 123.117 78.5927 121.282 79.1356C120.181 79.4622 118.87 78.8617 118.062 78.1386Z" fill="var(--fill-0, #D0D4D7)"/>
<path id="Vector_15" d="M103.513 75.8565C102.197 75.8926 100.898 75.9715 99.6174 76.0932C99.6046 76.094 99.592 76.0903 99.5817 76.0826C99.5714 76.075 99.5642 76.0639 99.5613 76.0514C99.5584 76.0389 99.56 76.0258 99.5658 76.0144C99.5717 76.003 99.5814 75.994 99.5932 75.9891C102.505 74.8205 105.401 73.6219 108.281 72.3934C108.372 72.3428 108.475 72.3204 108.578 72.3292C108.598 72.3311 108.616 72.338 108.632 72.3494C108.648 72.3608 108.66 72.3762 108.668 72.3941C108.676 72.4119 108.68 72.4315 108.677 72.451C108.675 72.4704 108.668 72.4889 108.657 72.5047C107.85 74.2001 107.069 75.8436 106.313 77.4354C105.574 78.9901 104.163 79.5934 102.432 79.301C102.413 79.2981 102.396 79.2897 102.382 79.277C102.369 79.2643 102.359 79.2478 102.355 79.2296C102.35 79.2113 102.352 79.1923 102.358 79.1747C102.365 79.1572 102.377 79.1421 102.392 79.1313C102.86 78.804 103.248 78.3754 103.528 77.8773C103.807 77.3792 103.971 76.8245 104.006 76.2544C104.011 76.2089 103.998 76.1634 103.972 76.126C103.925 76.0454 103.858 75.9782 103.778 75.9309C103.698 75.8837 103.606 75.8581 103.513 75.8565Z" fill="var(--fill-0, #D0D4D7)"/>
<path id="Vector_16" d="M133.192 86.9633L116.779 88.6506C116.765 88.6516 116.751 88.6501 116.737 88.6463C116.382 88.5332 116.299 88.3506 116.489 88.0986C116.974 87.4568 117.47 86.8235 117.977 86.1988C118.553 85.4871 118.887 85.4885 119.865 85.3658C123.372 84.9246 126.878 84.4848 130.384 84.0465C135.541 83.4093 140.639 82.357 145.628 80.9001C145.715 80.8744 145.749 80.9062 145.729 80.9956C144.929 84.6276 143.39 88.0559 141.207 91.0667C139.641 93.2376 136.743 94.527 134.174 94.8721C133.228 94.9651 132.277 95.0046 131.327 94.9905C128.594 94.9991 125.86 95.001 123.125 94.9962C121.763 94.9934 120.88 94.6525 120.132 93.5571C119.57 92.7327 119.015 91.904 118.466 91.071C117.961 90.308 118.185 89.803 119.071 89.6847C121.583 89.349 124.095 89.01 126.607 88.6677C128.868 88.4023 131.086 87.8491 133.207 87.0217C133.21 87.0208 133.214 87.0191 133.217 87.0168C133.22 87.0145 133.223 87.0115 133.225 87.0081C133.227 87.0048 133.229 87.001 133.229 86.9971C133.23 86.9932 133.23 86.9892 133.229 86.9854C133.228 86.9815 133.226 86.9779 133.224 86.9747C133.221 86.9715 133.218 86.9688 133.215 86.9668C133.212 86.9647 133.208 86.9634 133.204 86.9627C133.2 86.9621 133.196 86.9623 133.192 86.9633Z" fill="var(--fill-0, #B5B5BA)"/>
<path id="Vector_17" d="M124.098 94.407C123.177 94.35 122.3 93.1733 121.929 92.3688C121.899 92.3256 121.88 92.2751 121.875 92.2225C121.87 92.1698 121.879 92.1167 121.9 92.0684C121.922 92.0201 121.955 91.9782 121.998 91.9469C122.041 91.9155 122.091 91.8958 122.143 91.8896C122.348 91.8368 122.557 91.8066 122.768 91.7997C125.692 91.6238 128.616 91.4526 131.54 91.2862C136.825 90.9867 141.297 88.0457 144.07 83.6256C144.407 83.0706 144.694 82.4863 144.926 81.8798C144.931 81.8669 144.94 81.8559 144.951 81.8478C144.963 81.8398 144.976 81.835 144.99 81.8341C145.024 81.8284 145.035 81.8417 145.023 81.874C144.688 82.7797 144.402 83.8181 144.09 84.6083C143.25 86.734 142.161 88.7525 140.845 90.6216C139.222 92.9293 135.79 94.2943 133.058 94.3956C129.247 94.5363 126.26 94.5401 124.098 94.407Z" fill="var(--fill-0, #D0D4D7)"/>
<path id="Vector_18" d="M113.231 86.126C113.022 85.9625 112.772 85.859 112.508 85.8265C111.38 85.6562 110.24 85.477 109.087 85.2887C109.078 85.2887 109.07 85.2851 109.063 85.2787C109.057 85.2723 109.053 85.2636 109.053 85.2545C109.053 85.2454 109.057 85.2367 109.063 85.2303C109.07 85.2239 109.078 85.2203 109.087 85.2203L117.965 83.8282C117.983 83.8254 118.001 83.8279 118.017 83.8354C118.033 83.8429 118.046 83.855 118.055 83.8702C118.064 83.8855 118.069 83.903 118.068 83.9207C118.067 83.9384 118.06 83.9553 118.05 83.9694C116.983 85.3529 115.956 86.6822 114.97 87.9573C114.096 89.087 112.669 89.2325 111.365 88.719C111.348 88.7116 111.333 88.6994 111.322 88.6837C111.311 88.668 111.305 88.6495 111.305 88.6305C111.304 88.6115 111.31 88.5928 111.32 88.5766C111.329 88.5604 111.344 88.5474 111.361 88.5392C111.834 88.3307 112.252 88.0161 112.583 87.6198C112.915 87.2236 113.151 86.7563 113.272 86.2543C113.28 86.2313 113.28 86.2064 113.273 86.1833C113.265 86.1602 113.251 86.1401 113.231 86.126Z" fill="var(--fill-0, #D0D4D7)"/>
<path id="Vector_19" d="M114.894 98.7658C114.78 98.5901 114.624 98.4448 114.441 98.3422C113.478 97.7945 112.511 97.2649 111.542 96.7533C111.531 96.7464 111.522 96.7357 111.517 96.723C111.512 96.7103 111.512 96.6964 111.516 96.6834C111.52 96.6705 111.528 96.6594 111.54 96.6518C111.551 96.6443 111.565 96.6409 111.578 96.642L120.168 97.7075C120.181 97.709 120.194 97.7146 120.204 97.7235C120.215 97.7324 120.222 97.7442 120.225 97.7573C120.229 97.7704 120.228 97.7843 120.223 97.7971C120.219 97.8098 120.21 97.8208 120.199 97.8287C118.934 98.7463 117.687 99.7048 116.458 100.704C116.137 100.994 115.762 101.218 115.355 101.363C114.952 101.474 114.524 101.447 114.138 101.286C113.752 101.126 113.432 100.84 113.227 100.476C113.204 100.444 113.189 100.407 113.184 100.368C113.179 100.33 113.184 100.29 113.197 100.254C113.211 100.217 113.233 100.184 113.263 100.158C113.292 100.132 113.327 100.114 113.365 100.105C113.694 100.035 114.003 99.891 114.269 99.6851C114.535 99.4792 114.751 99.2162 114.902 98.9156C114.914 98.8923 114.92 98.8661 114.919 98.8397C114.918 98.8133 114.909 98.7878 114.894 98.7658Z" fill="var(--fill-0, #D0D4D7)"/>
<path id="Vector_20" d="M130.234 105.468L117.774 102.462C117.707 102.445 117.646 102.41 117.597 102.361C117.549 102.311 117.516 102.249 117.501 102.181C117.486 102.114 117.491 102.043 117.514 101.978C117.538 101.913 117.579 101.855 117.633 101.813C118.409 101.204 119.557 100.047 120.553 100.204C125.912 101.045 131.272 101.964 136.651 102.668C138.009 102.847 139.516 102.869 140.95 103.006C140.966 103.008 140.98 103.015 140.99 103.027C141 103.039 141.005 103.054 141.003 103.069C141.003 103.077 141 103.085 140.996 103.092C139.613 105.714 137.886 108.14 135.861 110.305C134.184 112.065 131.084 112.605 128.818 112.286C127.882 112.115 126.963 111.866 126.069 111.541C124.426 110.988 122.784 110.427 121.143 109.86C119.228 109.195 118.662 109.148 118.232 107.233C118.066 106.485 117.899 105.738 117.733 104.992C117.513 104.009 118.001 103.667 118.911 103.876C120.968 104.352 123.028 104.814 125.092 105.264C126.775 105.664 128.519 105.745 130.233 105.501C130.284 105.491 130.284 105.481 130.234 105.468Z" fill="var(--fill-0, #B5B5BA)"/>
<path id="Vector_21" d="M121.022 109.197C120.559 108.946 120.372 107.523 120.283 107.029C120.225 106.705 120.319 106.201 120.77 106.32C123.112 106.935 125.446 107.579 127.773 108.251C128.529 108.445 129.309 108.523 130.088 108.483C133.293 108.442 136.377 107.254 138.782 105.136C139.213 104.731 139.613 104.295 139.979 103.831C139.985 103.822 139.994 103.816 140.004 103.814C140.015 103.812 140.025 103.814 140.034 103.819C140.043 103.824 140.05 103.832 140.054 103.842C140.057 103.852 140.057 103.862 140.053 103.872C139.983 104.079 139.886 104.276 139.764 104.457C139.299 105.143 138.832 105.936 138.408 106.531C137.653 107.594 136.822 108.601 135.919 109.543C135.014 110.438 133.911 111.107 132.7 111.498C131.488 111.889 130.202 111.99 128.944 111.794C128.358 111.724 121.664 109.533 121.022 109.197Z" fill="var(--fill-0, #D0D4D7)"/>
<path id="Vector_22" d="M111.579 111.46C111.308 111.534 111.023 111.549 110.745 111.504C110.467 111.459 110.201 111.355 109.967 111.2C109.732 111.044 109.532 110.84 109.382 110.602C109.232 110.364 109.135 110.096 109.096 109.817C109.088 109.781 109.089 109.744 109.099 109.708C109.108 109.673 109.127 109.641 109.152 109.614C109.178 109.588 109.209 109.568 109.244 109.557C109.28 109.546 109.317 109.543 109.353 109.55C109.917 109.661 110.502 109.592 111.025 109.353C111.609 109.091 111.621 108.603 111.221 108.175C110.585 107.491 110.002 106.862 109.471 106.288C109.227 106.023 109.263 105.976 109.58 106.149C111.825 107.364 114.06 108.591 116.284 109.83C116.431 109.915 116.562 110.025 116.67 110.156C116.68 110.168 116.685 110.183 116.684 110.199C116.683 110.214 116.676 110.228 116.664 110.238C116.657 110.245 116.648 110.249 116.639 110.251C114.94 110.604 113.265 111.049 111.579 111.46Z" fill="var(--fill-0, #D0D4D7)"/>
<path id="Vector_23" d="M119.175 118.529C119.348 118.566 119.358 118.54 119.206 118.45C116.583 116.91 113.947 115.365 111.3 113.816C111.218 113.776 111.148 113.716 111.096 113.642C111.072 113.6 111.058 113.553 111.055 113.504C111.052 113.456 111.059 113.407 111.077 113.362C111.095 113.317 111.123 113.277 111.158 113.244C111.194 113.211 111.236 113.186 111.283 113.171C112.301 112.851 114.014 112.146 115.028 112.668C118.035 114.218 121.036 115.78 124.03 117.355C126.905 118.867 129.901 120.136 132.988 121.147C132.997 121.151 133.005 121.157 133.009 121.166C133.013 121.175 133.014 121.185 133.011 121.194C133.009 121.2 133.005 121.206 132.999 121.21C130.378 123.25 127.4 124.785 124.217 125.734C123.549 125.942 122.857 126.064 122.157 126.098C119.94 126.202 117.744 125.621 115.868 124.434C115.086 123.895 114.338 123.308 113.628 122.678C112.648 121.843 111.66 121.02 110.662 120.209C109.619 119.36 109.268 118.654 109.532 117.353C109.688 116.587 109.855 115.823 110.033 115.061C110.198 114.351 110.749 114.529 111.214 114.796C113.79 116.272 116.283 117.908 119.175 118.529Z" fill="var(--fill-0, #B5B5BA)"/>
<path id="Vector_24" d="M101.201 117.904C100.986 117.653 100.851 117.343 100.816 117.014C100.781 116.685 100.847 116.353 101.004 116.063C101.012 116.045 101.024 116.029 101.038 116.016C101.053 116.003 101.07 115.994 101.089 115.988C101.108 115.983 101.128 115.982 101.147 115.985C101.166 115.988 101.184 115.995 101.201 116.006C101.582 116.256 102.045 116.352 102.494 116.274C103.285 116.157 103.173 115.615 102.96 115.027C102.664 114.218 102.37 113.396 102.078 112.561C102.076 112.556 102.076 112.552 102.076 112.547C102.076 112.542 102.077 112.537 102.08 112.532C102.082 112.528 102.085 112.524 102.088 112.521C102.092 112.517 102.096 112.515 102.101 112.513L102.103 112.513C102.11 112.51 102.119 112.51 102.127 112.512C102.134 112.515 102.141 112.519 102.146 112.525L107.16 119.175C107.297 119.356 107.253 119.428 107.029 119.39C105.836 119.191 104.592 118.954 103.299 118.68C102.546 118.52 101.747 118.553 101.201 117.904Z" fill="var(--fill-0, #D0D4D7)"/>
<path id="Vector_25" d="M112.4 121.07C111.619 120.377 111.247 120.236 111.338 119.248C111.334 118.623 111.461 118.004 111.709 117.43C111.72 117.411 111.736 117.394 111.755 117.382C111.774 117.37 111.795 117.363 111.818 117.361C111.943 117.341 112.071 117.347 112.195 117.378C112.318 117.408 112.434 117.463 112.536 117.539C114.027 118.655 115.52 119.769 117.015 120.879C119.82 122.963 124.421 123.375 127.773 122.801C128.903 122.625 130.004 122.303 131.05 121.841C131.762 121.51 131.786 121.553 131.121 121.972C128.886 123.381 126.48 124.499 123.962 125.299C121.225 126.171 118.075 125.391 115.725 123.837C114.567 122.976 113.457 122.052 112.4 121.07Z" fill="var(--fill-0, #D0D4D7)"/>
<path id="Vector_26" d="M101.382 131.363C99.1483 131.226 96.8418 129.713 95.5281 127.95C95.1647 127.428 93.3371 123.827 92.7238 122.588C92.5106 122.2 92.4482 121.746 92.5483 121.314C92.8693 120.366 93.6566 119.369 94.4811 120.762C95.452 122.405 96.4481 124.032 97.4694 125.643C97.6983 126.011 97.974 126.347 98.2896 126.643C99.8121 128.077 101.607 129.19 103.568 129.918C105.529 130.645 107.616 130.971 109.705 130.876C109.76 130.874 109.779 130.898 109.761 130.949C109.755 130.963 109.745 130.976 109.732 130.985C109.72 130.994 109.705 130.999 109.689 131C108.577 131.218 107.452 131.359 106.32 131.421C104.674 131.489 103.026 131.469 101.382 131.363Z" fill="var(--fill-0, #D0D4D7)"/>
<path id="Vector_27" d="M145.736 17.983C145.734 17.6554 145.553 17.9075 145.55 17.9128L145.301 18.2754C141.726 23.671 137.644 28.7126 133.109 33.3314C131.174 35.3054 100.598 63.0656 99.8743 63.6789C97.9943 65.2749 96.0444 66.9936 94.6822 69.0646C93.303 71.2327 92.5965 73.7604 92.6516 76.3293C92.7066 78.8982 93.5209 81.3933 94.9917 83.5002C95.2425 83.9106 95.591 84.2524 96.0062 84.4951C96.4214 84.7378 96.8903 84.8738 97.371 84.8909C97.6409 84.9038 97.9082 84.9498 98.1669 85.0278C99.9337 85.5847 101.552 86.5341 102.899 87.805C104.247 89.0758 105.29 90.6352 105.949 92.3662C106.245 93.1062 106.436 93.8839 106.517 94.6768C106.978 99.231 105.36 103.474 102.545 106.984C102.538 106.991 102.535 106.999 102.535 107.008C102.535 107.017 102.538 107.026 102.545 107.032C102.551 107.038 102.559 107.041 102.568 107.041C102.577 107.041 102.585 107.038 102.592 107.031C104.668 105.402 106.34 103.314 107.474 100.931C108.609 98.5474 109.176 95.9338 109.132 93.2947C109.117 92.4283 108.955 91.5706 108.652 90.7587C107.837 88.3865 106.48 86.2367 104.69 84.4794C102.9 82.722 100.725 81.4053 98.3381 80.6334C98.2945 80.6173 98.256 80.5897 98.2268 80.5535C94.8764 76.4609 95.1343 70.2499 97.0044 68.4756C105.316 60.9371 113.618 53.3891 121.911 45.8316C125.853 42.2387 129.786 38.7414 133.179 35.5437C136.413 32.4906 139.261 29.0534 141.659 25.3085C142.167 24.5169 142.688 23.5827 143.2 22.7183C144.026 21.3234 144.678 19.8515 145.395 18.3996C145.451 18.2879 145.513 18.1378 145.59 18.126C145.651 18.1161 145.601 18.378 145.579 18.4893C143.378 29.5147 137.875 40.1749 129.506 47.8084C124.427 52.4425 117.005 59.4014 110.755 65.2008C110.267 65.6529 110.219 66.1707 110.987 66.3604C112.121 66.6399 112.87 66.9437 113.897 66.1093C114.336 65.7528 126.987 55.2195 133.124 50.1105C139.856 44.5937 141.856 39.4999 142.929 36.04C144.143 31.7522 144.979 27.3661 145.428 22.9323C145.534 21.8844 145.601 20.8342 145.629 19.7816C145.642 19.2567 145.777 18.5977 145.736 17.983Z" fill="var(--fill-0, #D0D4D7)"/>
<path id="Vector_28" d="M63.0755 119.079L61.1855 119.375C61.1627 119.378 61.1409 119.387 61.1213 119.399C61.1017 119.411 61.0847 119.427 61.0714 119.446C59.227 122.046 57.4669 124.743 55.0448 126.723C55.0353 126.73 55.0233 126.733 55.0113 126.732C54.9994 126.731 54.9884 126.725 54.9808 126.716C54.9747 126.708 54.9713 126.699 54.971 126.69C54.9707 126.68 54.9736 126.671 54.9792 126.663L58.8334 120.851C58.8705 120.795 58.8905 120.729 58.8907 120.661C58.8909 120.594 58.8713 120.528 58.8345 120.472C58.7976 120.415 58.745 120.371 58.6833 120.344C58.6215 120.317 58.5532 120.309 58.4867 120.32C57.4968 120.492 56.4979 120.683 55.4899 120.892C55.1789 120.96 54.9026 121.137 54.7111 121.391C52.988 123.549 51.3647 125.894 49.3963 127.825C48.3607 128.842 47.1583 129.874 46.0086 130.872C45.9743 130.901 45.9791 130.923 46.0228 130.936C49.3392 131.989 52.8431 132.317 56.2972 131.897C57.4705 131.781 58.6059 131.418 59.6291 130.832C60.6524 130.246 61.5405 129.451 62.2353 128.499C62.764 127.709 63.2304 126.879 63.6303 126.017C64.315 124.63 64.9053 123.247 65.6099 121.871C65.7138 121.689 65.7633 121.481 65.7526 121.271C65.7336 118.352 65.7926 115.449 65.7526 112.619C65.7596 112.522 65.7344 112.426 65.681 112.345C65.6276 112.263 65.549 112.202 65.4573 112.17C60.5471 110.219 58.672 109.547 56.2655 107.156C53.7784 104.685 52.8278 102.328 51.8825 99.2237C51.6169 97.955 51.5304 96.6554 51.6257 95.3627C51.677 93.4602 52.3031 91.6178 53.4216 90.0779C54.7746 87.9119 56.881 86.3229 59.3354 85.6168C59.5693 85.5435 59.8136 85.5088 60.0586 85.5141C60.6809 85.53 61.2959 85.3772 61.8384 85.0718C62.3808 84.7665 62.8305 84.32 63.1396 83.7797C64.7763 81.3942 65.6027 78.5457 65.4969 75.6547C65.3911 72.7637 64.3586 69.9833 62.552 67.7238C61.5925 66.6121 60.546 65.5786 59.4224 64.633C48.5324 54.7525 37.6475 44.8659 26.7679 34.973C26.0128 34.2865 25.3334 33.6228 24.7295 32.9819C19.7803 27.7331 15.2991 22.0619 11.337 16.0332C11.3318 16.0249 11.3239 16.0185 11.3147 16.015C11.3055 16.0115 11.2954 16.0111 11.2859 16.0138C11.2764 16.0165 11.2681 16.0223 11.2621 16.0301C11.2562 16.038 11.253 16.0476 11.2529 16.0574C11.2786 22.7824 12.183 29.4751 13.9431 35.9658C15.0965 40.3444 17.2473 44.6561 22.918 49.5342C30.5369 55.9212 38.1681 62.2934 45.8117 68.6509C46.7075 69.3969 48.5832 70.14 49.8271 69.7677C50.9977 69.4178 52.1621 69.0465 53.3203 68.6538C54.1362 68.3771 54.1319 67.7609 53.5813 67.2189C49.053 62.7593 44.5204 58.304 39.9835 53.853C38.7121 52.6055 38.035 51.9385 37.9523 51.8519C36.4997 50.3209 35.2751 48.5887 34.3164 46.7087C34.3147 46.7057 34.3136 46.7025 34.3132 46.6992C34.3128 46.6958 34.313 46.6924 34.3139 46.6892C34.3148 46.6859 34.3163 46.6829 34.3184 46.6802C34.3204 46.6776 34.323 46.6753 34.3259 46.6736C34.3307 46.6709 34.3363 46.6698 34.3417 46.6704C34.3472 46.6711 34.3523 46.6735 34.3563 46.6773C42.4221 54.0779 50.4837 61.4776 58.541 68.8763C59.5865 69.8376 60.0786 70.6563 59.8647 72.0469C59.8542 72.1144 59.8247 72.1244 59.7762 72.0769C59.1714 71.476 58.5505 70.9016 57.9133 70.3539C56.8821 69.4682 54.9464 69.8433 53.6983 70.2341C51.8545 70.8103 50.0154 71.3832 48.181 71.9528C48.1716 71.9557 48.1629 71.9603 48.1553 71.9665C48.1477 71.9727 48.1415 71.9804 48.1368 71.989C48.1322 71.9977 48.1293 72.0071 48.1284 72.0169C48.1274 72.0266 48.1283 72.0365 48.1312 72.0459L48.1354 72.0569C48.9037 73.7124 49.6721 75.3517 50.4404 76.9748C51.4261 79.0544 52.59 80.1755 55.1176 79.9087C55.1338 79.907 55.1502 79.9094 55.1652 79.9158C55.1802 79.9221 55.1933 79.9322 55.2033 79.9451C55.2133 79.9579 55.2199 79.9731 55.2224 79.9892C55.2248 80.0054 55.2231 80.0218 55.2174 80.0371C55.2031 80.07 55.1828 80.1 55.1575 80.1255C55.1336 80.1517 55.1038 80.1717 55.0705 80.184C53.6873 80.7114 52.3994 81.461 51.2578 82.4034C51.2491 82.4105 51.2387 82.4153 51.2276 82.4172C51.2165 82.419 51.2052 82.418 51.1946 82.4141C51.1841 82.4102 51.1747 82.4036 51.1675 82.3949C51.1604 82.3863 51.1556 82.3759 51.1536 82.3649C50.8227 80.4436 49.0526 80.3609 47.5391 79.9729C45.7761 79.5208 44.421 79.5565 42.9575 80.6176C41.6414 81.5713 40.2854 82.5569 38.8894 83.5744C38.8624 83.594 38.8442 83.6237 38.839 83.6567C38.8337 83.6898 38.8418 83.7236 38.8615 83.7507L38.8652 83.7555C39.7952 84.9412 40.7224 86.1408 41.6467 87.3541C42.0685 87.9747 42.5805 88.529 43.1658 88.9986C43.546 89.2302 43.9729 89.3746 44.4157 89.4212C44.8585 89.4678 45.3061 89.4155 45.7262 89.2682C45.7431 89.263 45.7612 89.263 45.7782 89.2682C45.7951 89.2735 45.81 89.2837 45.8211 89.2975C45.8322 89.3113 45.8388 89.3282 45.8402 89.3458C45.8416 89.3635 45.8377 89.3811 45.8289 89.3965C45.2376 90.4627 44.9021 91.6516 44.8489 92.8696C44.8479 92.8909 44.841 92.9116 44.829 92.9292C44.8169 92.9469 44.8002 92.9608 44.7807 92.9696C44.7612 92.9783 44.7396 92.9814 44.7184 92.9786C44.6972 92.9758 44.6772 92.9672 44.6607 92.9537C44.2852 92.6454 43.8524 92.4145 43.3873 92.2742C42.9222 92.134 42.4339 92.0872 41.9505 92.1365C41.4672 92.1858 40.9985 92.3303 40.5713 92.5616C40.144 92.7929 39.7669 93.1065 39.4614 93.4843C39.4025 93.5575 39.1581 93.9331 38.7283 94.6111C38.0921 95.6143 37.4497 96.6312 36.8012 97.662C36.7769 97.7005 36.7679 97.7466 36.7758 97.7914C36.7837 97.8363 36.808 97.8765 36.844 97.9044C38.1553 98.9104 39.4434 99.907 40.7081 100.894C41.1895 101.317 41.74 101.653 42.3356 101.89C43.1895 102.123 43.9123 101.8 44.5037 100.918C44.5113 100.907 44.5221 100.898 44.5349 100.893C44.5476 100.888 44.5617 100.886 44.5751 100.89C44.5884 100.893 44.6006 100.9 44.6097 100.91C44.6189 100.92 44.6248 100.933 44.6264 100.947C44.8017 102.235 45.1445 103.494 45.6463 104.694C45.6509 104.704 45.6521 104.715 45.6499 104.725C45.6477 104.736 45.6421 104.746 45.634 104.753C45.6259 104.76 45.6157 104.765 45.6048 104.766C45.5939 104.767 45.583 104.765 45.5736 104.759C45.3218 104.582 45.0544 104.428 44.7748 104.3C43.461 103.905 41.7494 104.336 41.3328 105.786C40.8954 107.312 40.4903 108.847 40.1175 110.389C40.1138 110.399 40.1123 110.409 40.1133 110.42C40.1142 110.431 40.1176 110.441 40.1231 110.45C40.1286 110.459 40.1361 110.467 40.145 110.472C40.1539 110.478 40.1641 110.482 40.1746 110.483C41.9738 110.932 43.7682 111.373 45.5578 111.807C47.0755 112.176 48.2609 111.944 48.7986 110.298C48.8025 110.286 48.8093 110.276 48.8184 110.269C48.8275 110.261 48.8384 110.256 48.8501 110.254C48.8618 110.252 48.8738 110.254 48.8849 110.258C48.8959 110.262 48.9055 110.27 48.9127 110.279C49.6254 111.217 50.4841 112.035 51.456 112.701C51.4657 112.708 51.4728 112.717 51.4764 112.729C51.48 112.74 51.4799 112.752 51.476 112.763C51.4722 112.774 51.4648 112.784 51.455 112.79C51.4452 112.797 51.4335 112.8 51.4218 112.799C49.9726 112.686 49.0525 113.257 48.6617 114.511C48.6026 114.713 48.6006 114.927 48.656 115.13C49.0563 116.742 49.4429 118.33 49.8157 119.895C49.8177 119.914 49.8239 119.933 49.834 119.949C49.8441 119.965 49.8578 119.979 49.874 119.989C49.8902 120 49.9085 120.006 49.9275 120.008C49.9465 120.011 49.9659 120.008 49.984 120.002C51.7223 119.659 53.4506 119.32 55.1689 118.985C56.4113 118.743 57.1802 118.378 57.2686 117.057C57.2686 117.049 57.2677 117.041 57.2657 117.033L57.1131 116.471C57.0865 116.373 57.116 116.351 57.2015 116.406C59.0147 117.571 60.9977 118.447 63.0797 119.002C63.0881 119.005 63.0953 119.01 63.1003 119.018C63.1052 119.025 63.1076 119.034 63.1071 119.042C63.1067 119.051 63.1033 119.06 63.0976 119.066C63.0918 119.073 63.0841 119.078 63.0755 119.079Z" fill="var(--fill-0, #B5B5BA)"/>
<path id="Vector_29" d="M28.3627 68.9419C28.1848 68.8021 28.1996 68.7764 28.4069 68.8649C34.9369 71.6262 41.4984 74.4027 48.0912 77.1945C48.1811 77.233 48.2724 77.233 48.3679 77.2658C48.4101 77.281 48.4563 77.28 48.4977 77.2629C48.5503 77.25 48.5992 77.2253 48.6408 77.1907C48.6824 77.156 48.7155 77.1124 48.7376 77.063C48.7598 77.0136 48.7703 76.9598 48.7686 76.9058C48.7668 76.8517 48.7527 76.7987 48.7274 76.7509C48.3717 75.7591 48.1345 75.1159 48.0156 74.8211C47.7275 74.0994 47.2497 73.9468 46.4223 73.5617C39.3597 70.285 32.2971 67.0083 25.2346 63.7316C21.9688 62.2172 18.8218 60.4588 15.8203 58.4714C14.4424 57.5586 12.8405 56.3105 11.3514 55.2265C11.2963 55.1866 11.273 55.2004 11.2815 55.2679C11.737 59.0298 12.4853 62.7504 13.5195 66.3959C14.916 71.321 18.2766 74.0623 23.0736 75.5599C28.1392 77.1431 33.2058 78.7239 38.2733 80.3024C38.6625 80.4548 39.0798 80.5223 39.4973 80.5004C39.9148 80.4785 40.3227 80.3677 40.6939 80.1754C41.8559 79.4965 43.0137 78.809 44.1672 78.113C44.2062 78.0897 44.2363 78.0541 44.2528 78.0117C44.3155 77.8945 44.3515 77.7648 44.3582 77.6321C44.3649 77.4993 44.3422 77.3666 44.2916 77.2437C44.241 77.1207 44.1639 77.0104 44.0657 76.9208C43.9675 76.8312 43.8506 76.7644 43.7236 76.7252C40.6539 75.3407 37.5796 73.9639 34.5004 72.5946C32.3129 71.6325 30.2516 70.4057 28.3627 68.9419Z" fill="var(--fill-0, #B5B5BA)"/>
<path id="Vector_30" d="M39.4785 78.1386C39.9008 77.7606 39.5613 77.3456 39.1433 77.1915C34.4134 75.44 29.6844 73.6814 24.9563 71.9156C24.3589 71.6955 23.7803 71.4274 23.2261 71.1141C17.7737 68.0349 13.7535 62.9323 12.036 56.9109C12.0349 56.9052 12.0328 56.8997 12.0296 56.8948C12.0264 56.8899 12.0223 56.8857 12.0175 56.8823C12.0127 56.879 12.0073 56.8767 12.0016 56.8755C11.9959 56.8743 11.99 56.8742 11.9842 56.8752L11.9747 56.8781C11.9635 56.8821 11.952 56.8855 11.9404 56.8881C11.9382 56.8889 11.9364 56.8905 11.9353 56.8927C11.9342 56.8948 11.934 56.8972 11.9347 56.8995C12.1858 58.2003 12.3313 59.5924 12.5952 60.809C12.919 62.3052 13.2156 63.7814 13.6564 65.2691C13.8642 66.0923 14.1262 66.9009 14.4409 67.6895C15.2094 69.4205 16.3481 70.9621 17.7767 72.2055C19.2053 73.449 20.8892 74.3642 22.7098 74.8866C29.9074 77.1763 34.4238 78.5927 36.2592 79.1356C37.3603 79.4622 38.6712 78.8617 39.4785 78.1386Z" fill="var(--fill-0, #D0D4D7)"/>
<path id="Vector_31" d="M54.0277 75.8565C55.3438 75.8926 56.6423 75.9715 57.9232 76.0932C57.936 76.094 57.9487 76.0903 57.9589 76.0826C57.9692 76.075 57.9765 76.0639 57.9794 76.0514C57.9823 76.0389 57.9807 76.0258 57.9748 76.0144C57.969 76.003 57.9593 75.994 57.9474 75.9891C55.0357 74.8205 52.1396 73.6219 49.2592 72.3934C49.169 72.3428 49.0656 72.3204 48.9625 72.3292C48.9431 72.3311 48.9245 72.338 48.9086 72.3494C48.8927 72.3608 48.8802 72.3762 48.8722 72.3941C48.8642 72.4119 48.8611 72.4315 48.8632 72.451C48.8653 72.4704 48.8725 72.4889 48.8841 72.5047C49.6905 74.2001 50.4717 75.8436 51.2277 77.4354C51.9666 78.9901 53.3773 79.5934 55.1089 79.301C55.1274 79.2981 55.1446 79.2897 55.1583 79.277C55.1721 79.2643 55.1817 79.2478 55.186 79.2296C55.1903 79.2113 55.189 79.1923 55.1824 79.1747C55.1758 79.1572 55.1641 79.1421 55.1489 79.1313C54.6807 78.804 54.2924 78.3754 54.0128 77.8773C53.7333 77.3792 53.5697 76.8245 53.5342 76.2544C53.5301 76.2089 53.5422 76.1634 53.5684 76.126C53.6153 76.0454 53.6822 75.9782 53.7626 75.9309C53.8431 75.8837 53.9344 75.8581 54.0277 75.8565Z" fill="var(--fill-0, #D0D4D7)"/>
<path id="Vector_32" d="M24.3487 86.9632L40.7623 88.6505C40.7762 88.6515 40.7902 88.65 40.8036 88.6463C41.1593 88.5331 41.242 88.3505 41.0518 88.0986C40.5669 87.4567 40.0709 86.8234 39.5641 86.1987C38.9878 85.487 38.6541 85.4884 37.6755 85.3658C34.1694 84.9246 30.6634 84.4848 27.1573 84.0464C21.9996 83.4092 16.9017 82.357 11.9133 80.9C11.8258 80.8743 11.7921 80.9062 11.8121 80.9956C12.6115 84.6275 14.1507 88.0558 16.3337 91.0667C17.8999 93.2375 20.7984 94.5269 23.3673 94.8721C24.3134 94.965 25.2639 95.0045 26.2144 94.9904C28.9474 94.999 31.6813 95.0009 34.4162 94.9962C35.7784 94.9933 36.6614 94.6524 37.4088 93.557C37.9708 92.7326 38.5262 91.9039 39.0749 91.071C39.5798 90.3079 39.3558 89.803 38.47 89.6846C35.9577 89.3489 33.4458 89.01 30.9344 88.6677C28.6733 88.4022 26.4553 87.8491 24.3344 87.0217C24.3306 87.0208 24.327 87.0191 24.3238 87.0167C24.3206 87.0144 24.3179 87.0115 24.3158 87.0081C24.3138 87.0047 24.3124 87.001 24.3118 86.9971C24.3112 86.9931 24.3114 86.9892 24.3123 86.9853C24.3132 86.9815 24.3149 86.9779 24.3172 86.9747C24.3196 86.9715 24.3225 86.9688 24.3259 86.9667C24.3293 86.9647 24.333 86.9633 24.3369 86.9627C24.3408 86.9621 24.3448 86.9623 24.3487 86.9632Z" fill="var(--fill-0, #B5B5BA)"/>
<path id="Vector_33" d="M33.4434 94.407C34.3634 94.35 35.2406 93.1733 35.6115 92.3688C35.642 92.3256 35.6607 92.2751 35.6658 92.2225C35.6709 92.1698 35.6622 92.1167 35.6407 92.0684C35.6191 92.0201 35.5854 91.9782 35.5427 91.9469C35.5001 91.9155 35.4501 91.8958 35.3975 91.8896C35.1932 91.8368 34.9837 91.8066 34.7728 91.7997C31.8486 91.6238 28.9245 91.4526 26.0004 91.2862C20.7156 90.9867 16.2438 88.0457 13.4709 83.6256C13.1335 83.0706 12.8471 82.4863 12.615 81.8798C12.6096 81.8669 12.6008 81.8559 12.5894 81.8478C12.5781 81.8398 12.5647 81.835 12.5509 81.8341C12.5166 81.8284 12.5057 81.8417 12.5181 81.874C12.8533 82.7797 13.1385 83.8181 13.4509 84.6083C14.291 86.734 15.3803 88.7525 16.696 90.6216C18.3192 92.9293 21.7511 94.2943 24.4827 94.3956C28.294 94.5363 31.2809 94.5401 33.4434 94.407Z" fill="var(--fill-0, #D0D4D7)"/>
<path id="Vector_34" d="M44.3097 86.126C44.5192 85.9625 44.7692 85.859 45.0329 85.8265C46.1607 85.6562 47.3009 85.477 48.4534 85.2887C48.4625 85.2887 48.4712 85.2851 48.4776 85.2787C48.4841 85.2723 48.4877 85.2636 48.4877 85.2545C48.4877 85.2454 48.4841 85.2367 48.4776 85.2303C48.4712 85.2239 48.4625 85.2203 48.4534 85.2203L39.5755 83.8282C39.558 83.8254 39.5401 83.8279 39.5241 83.8354C39.508 83.8429 39.4946 83.855 39.4855 83.8702C39.4764 83.8855 39.4722 83.903 39.4732 83.9207C39.4742 83.9384 39.4806 83.9553 39.4913 83.9694C40.5583 85.3529 41.5848 86.6822 42.571 87.9573C43.4453 89.087 44.8717 89.2325 46.1755 88.719C46.193 88.7116 46.2081 88.6994 46.2188 88.6837C46.2295 88.668 46.2355 88.6495 46.2359 88.6305C46.2364 88.6115 46.2313 88.5928 46.2213 88.5766C46.2114 88.5604 46.1969 88.5474 46.1798 88.5392C45.7071 88.3307 45.2889 88.0161 44.9574 87.6198C44.6259 87.2236 44.3902 86.7563 44.2684 86.2543C44.2606 86.2313 44.2605 86.2064 44.2679 86.1833C44.2754 86.1602 44.29 86.1401 44.3097 86.126Z" fill="var(--fill-0, #D0D4D7)"/>
<path id="Vector_35" d="M42.6466 98.7658C42.7614 98.5901 42.917 98.4448 43.1002 98.3422C44.0635 97.7945 45.0296 97.2649 45.9986 96.7533C46.0103 96.7464 46.0193 96.7357 46.0241 96.723C46.029 96.7103 46.0293 96.6964 46.0252 96.6834C46.021 96.6705 46.0126 96.6594 46.0013 96.6518C45.99 96.6443 45.9765 96.6409 45.963 96.642L37.3732 97.7075C37.3597 97.709 37.347 97.7146 37.3367 97.7235C37.3265 97.7324 37.3192 97.7442 37.3158 97.7573C37.3124 97.7704 37.313 97.7843 37.3177 97.7971C37.3223 97.8098 37.3307 97.8208 37.3418 97.8287C38.6065 98.7463 39.8537 99.7048 41.0832 100.704C41.4042 100.994 41.7788 101.218 42.1858 101.363C42.5887 101.474 43.0171 101.447 43.4029 101.286C43.7886 101.126 44.1094 100.84 44.314 100.476C44.3369 100.444 44.3515 100.407 44.3567 100.368C44.3619 100.33 44.3575 100.29 44.3438 100.254C44.3301 100.217 44.3076 100.184 44.2783 100.158C44.249 100.132 44.2137 100.114 44.1756 100.105C43.8468 100.035 43.538 99.891 43.2721 99.6851C43.0062 99.4792 42.79 99.2162 42.6394 98.9156C42.6269 98.8923 42.6209 98.8661 42.6222 98.8397C42.6235 98.8133 42.6319 98.7878 42.6466 98.7658Z" fill="var(--fill-0, #D0D4D7)"/>
<path id="Vector_36" d="M27.3069 105.468L39.7666 102.462C39.8338 102.445 39.8951 102.41 39.9435 102.361C39.9918 102.311 40.0253 102.249 40.04 102.181C40.0547 102.114 40.0501 102.043 40.0267 101.978C40.0034 101.913 39.9621 101.855 39.9078 101.813C39.1318 101.204 37.9835 100.047 36.9879 100.204C31.6289 101.045 26.2685 101.964 20.8895 102.668C19.5316 102.847 18.0253 102.869 16.5904 103.006C16.5751 103.008 16.561 103.015 16.5511 103.027C16.5412 103.039 16.5363 103.054 16.5375 103.069C16.5382 103.077 16.5407 103.085 16.5447 103.092C17.9277 105.714 19.6547 108.14 21.6798 110.305C23.3572 112.065 26.4568 112.605 28.7233 112.286C29.6588 112.115 30.5783 111.866 31.472 111.541C33.1152 110.988 34.757 110.427 36.3974 109.86C38.3131 109.195 38.8793 109.148 39.3087 107.233C39.4751 106.485 39.6415 105.738 39.8079 104.992C40.0276 104.009 39.5398 103.667 38.6297 103.876C36.5728 104.352 34.5126 104.814 32.4491 105.264C30.7655 105.665 29.0216 105.745 27.3084 105.501C27.2571 105.492 27.2566 105.481 27.3069 105.468Z" fill="var(--fill-0, #B5B5BA)"/>
<path id="Vector_37" d="M36.5186 109.197C36.9822 108.946 37.1691 107.523 37.2575 107.029C37.316 106.705 37.2218 106.201 36.7711 106.32C34.4289 106.935 32.0944 107.579 29.7675 108.251C29.012 108.445 28.2314 108.523 27.4524 108.483C24.2476 108.442 21.1637 107.254 18.7585 105.136C18.3275 104.731 17.9275 104.295 17.5618 103.831C17.5556 103.822 17.5466 103.816 17.5364 103.814C17.5262 103.812 17.5155 103.814 17.5064 103.819C17.4973 103.824 17.4903 103.832 17.4869 103.842C17.4834 103.852 17.4837 103.862 17.4876 103.872C17.5574 104.079 17.6548 104.276 17.7772 104.457C18.2422 105.143 18.7086 105.936 19.1322 106.531C19.8872 107.594 20.7191 108.601 21.6213 109.543C22.527 110.438 23.6298 111.107 24.8412 111.498C26.0526 111.889 27.3387 111.99 28.5964 111.794C29.1831 111.724 35.8766 109.533 36.5186 109.197Z" fill="var(--fill-0, #D0D4D7)"/>
<path id="Vector_38" d="M45.9614 111.46C46.2333 111.534 46.5178 111.549 46.7959 111.504C47.074 111.459 47.3394 111.355 47.5743 111.2C47.8093 111.044 48.0084 110.84 48.1585 110.602C48.3086 110.364 48.4062 110.096 48.4447 109.817C48.453 109.781 48.4522 109.744 48.4424 109.708C48.4325 109.673 48.4141 109.641 48.3886 109.614C48.3631 109.588 48.3314 109.568 48.2964 109.557C48.2614 109.546 48.2241 109.543 48.188 109.55C47.6239 109.661 47.0393 109.592 46.5163 109.353C45.9314 109.091 45.92 108.603 46.3194 108.175C46.9556 107.491 47.539 106.862 48.0696 106.288C48.314 106.023 48.2779 105.976 47.9612 106.149C45.716 107.364 43.4814 108.591 41.2571 109.83C41.1098 109.915 40.9789 110.025 40.8706 110.156C40.8606 110.168 40.8557 110.183 40.8569 110.199C40.858 110.214 40.8652 110.228 40.8767 110.238C40.884 110.245 40.8926 110.249 40.9019 110.251C42.6008 110.604 44.2754 111.049 45.9614 111.46Z" fill="var(--fill-0, #D0D4D7)"/>
<path id="Vector_39" d="M38.366 118.529C38.1929 118.566 38.1825 118.54 38.3346 118.45C40.9583 116.91 43.5938 115.365 46.2412 113.816C46.3225 113.776 46.3926 113.716 46.4452 113.642C46.4688 113.6 46.4828 113.553 46.4859 113.504C46.4891 113.456 46.4815 113.407 46.4636 113.362C46.4457 113.317 46.418 113.277 46.3825 113.244C46.347 113.211 46.3046 113.186 46.2583 113.171C45.2398 112.851 43.5267 112.146 42.5126 112.668C39.5057 114.218 36.505 115.78 33.5105 117.355C30.6361 118.867 27.6396 120.136 24.5528 121.147C24.5436 121.151 24.5361 121.157 24.5317 121.166C24.5274 121.175 24.5267 121.185 24.5296 121.194C24.5318 121.2 24.5359 121.206 24.5414 121.21C27.1625 123.25 30.1407 124.785 33.3237 125.734C33.9921 125.942 34.6842 126.064 35.3834 126.098C37.601 126.202 39.7968 125.621 41.6724 124.434C42.4547 123.895 43.2031 123.308 43.9133 122.678C44.8928 121.843 45.8813 121.02 46.8788 120.209C47.9215 119.36 48.2724 118.654 48.0085 117.353C47.8525 116.587 47.6857 115.823 47.5078 115.061C47.3424 114.351 46.7918 114.529 46.3268 114.796C43.7507 116.272 41.2573 117.908 38.366 118.529Z" fill="var(--fill-0, #B5B5BA)"/>
<path id="Vector_40" d="M56.34 117.904C56.5552 117.653 56.6893 117.343 56.7244 117.014C56.7596 116.685 56.6942 116.353 56.5369 116.063C56.5289 116.045 56.5172 116.029 56.5025 116.016C56.4878 116.003 56.4704 115.994 56.4517 115.988C56.4329 115.983 56.4132 115.982 56.3939 115.985C56.3747 115.988 56.3563 115.995 56.34 116.006C55.9584 116.256 55.4959 116.352 55.0463 116.274C54.256 116.157 54.3673 115.615 54.5813 115.027C54.877 114.218 55.1708 113.396 55.4628 112.561C55.4644 112.556 55.4651 112.551 55.4649 112.547C55.4646 112.542 55.4634 112.537 55.4612 112.532C55.4591 112.528 55.4561 112.524 55.4524 112.521C55.4488 112.517 55.4445 112.515 55.4398 112.513L55.438 112.512C55.4303 112.51 55.422 112.51 55.4142 112.512C55.4064 112.515 55.3995 112.519 55.3943 112.525L50.3805 119.175C50.2436 119.356 50.2873 119.428 50.5117 119.39C51.7052 119.191 52.9485 118.954 54.2418 118.68C54.9949 118.52 55.7937 118.553 56.34 117.904Z" fill="var(--fill-0, #D0D4D7)"/>
<path id="Vector_41" d="M45.1413 121.07C45.9216 120.377 46.2939 120.236 46.2026 119.248C46.2064 118.623 46.0801 118.004 45.8317 117.43C45.8206 117.411 45.8049 117.394 45.786 117.382C45.7672 117.37 45.7457 117.363 45.7233 117.361C45.5976 117.341 45.4694 117.347 45.346 117.378C45.2226 117.408 45.1065 117.463 45.0044 117.539C43.5143 118.655 42.0213 119.769 40.5255 120.879C37.7212 122.963 33.1196 123.375 29.7676 122.801C28.6381 122.625 27.5365 122.303 26.4911 121.841C25.7789 121.51 25.7551 121.553 26.4198 121.972C28.655 123.381 31.0608 124.499 33.5789 125.299C36.3162 126.171 39.4657 125.391 41.8164 123.837C42.9739 122.976 44.0839 122.052 45.1413 121.07Z" fill="var(--fill-0, #D0D4D7)"/>
<path id="Vector_42" d="M56.1588 131.363C58.3926 131.226 60.6991 129.713 62.0128 127.95C62.3762 127.428 64.2037 123.827 64.8171 122.588C65.0302 122.2 65.0927 121.746 64.9925 121.314C64.6716 120.366 63.8842 119.369 63.0598 120.762C62.0889 122.405 61.0928 124.032 60.0715 125.643C59.8425 126.011 59.5668 126.347 59.2513 126.643C57.7288 128.077 55.9339 129.19 53.9729 129.918C52.012 130.645 49.9251 130.971 47.8358 130.876C47.7806 130.874 47.7621 130.898 47.7802 130.949C47.7863 130.963 47.7962 130.976 47.8087 130.985C47.8213 130.994 47.8361 130.999 47.8515 131C48.9635 131.218 50.0892 131.359 51.2206 131.421C52.8666 131.489 54.5149 131.469 56.1588 131.363Z" fill="var(--fill-0, #D0D4D7)"/>
<path id="Vector_43" d="M11.8048 17.983C11.8071 17.6554 11.9877 17.9075 11.9909 17.9128L12.2399 18.2754C15.8147 23.671 19.8971 28.7126 24.4313 33.3314C26.3669 35.3054 56.9432 63.0656 57.6665 63.6789C59.5465 65.2749 61.4963 66.9936 62.8586 69.0646C64.2377 71.2327 64.9443 73.7604 64.8892 76.3293C64.8341 78.8982 64.0199 81.3933 62.549 83.5002C62.2983 83.9106 61.9497 84.2524 61.5345 84.4951C61.1193 84.7378 60.6504 84.8738 60.1698 84.8909C59.8999 84.9038 59.6326 84.9498 59.3738 85.0278C57.607 85.5847 55.9892 86.5341 54.6414 87.805C53.2936 89.0758 52.2509 90.6352 51.5914 92.3662C51.2956 93.1062 51.1045 93.8839 51.0237 94.6768C50.563 99.231 52.1805 103.474 54.9962 106.984C55.0024 106.991 55.0062 106.999 55.0061 107.008C55.0061 107.017 55.0025 107.026 54.9962 107.032C54.99 107.038 54.9815 107.041 54.9726 107.041C54.9638 107.041 54.9554 107.038 54.9492 107.031C52.8724 105.402 51.2013 103.314 50.0666 100.931C48.9319 98.5474 48.3646 95.9338 48.4091 93.2947C48.4236 92.4283 48.5856 91.5706 48.8884 90.7587C49.7042 88.3865 51.0608 86.2367 52.851 84.4793C54.6412 82.722 56.8157 81.4053 59.2027 80.6334C59.2463 80.6173 59.2848 80.5897 59.314 80.5535C62.6644 76.4608 62.4066 70.2499 60.5364 68.4756C52.2252 60.9371 43.9231 53.3891 35.63 45.8316C31.6874 42.2387 27.7548 38.7414 24.3614 35.5436C21.1278 32.4906 18.2799 29.0533 15.8815 25.3085C15.3737 24.5169 14.853 23.5826 14.341 22.7183C13.5151 21.3234 12.8628 19.8515 12.1454 18.3995C12.0898 18.2879 12.0277 18.1378 11.9512 18.126C11.8895 18.1161 11.9394 18.3779 11.9617 18.4893C14.1627 29.5146 19.6657 40.1748 28.0344 47.8084C33.1138 52.4425 40.5354 59.4014 46.7859 65.2008C47.2737 65.6529 47.3222 66.1707 46.5534 66.3603C45.4194 66.6399 44.6705 66.9437 43.6435 66.1093C43.2051 65.7527 30.5534 55.2195 24.4171 50.1105C17.6847 44.5936 15.6846 39.4999 14.612 36.04C13.3975 31.7521 12.5613 27.3661 12.1129 22.9322C12.0064 21.8844 11.9394 20.8342 11.9118 19.7815C11.8989 19.2567 11.7635 18.5977 11.8048 17.983Z" fill="var(--fill-0, #D0D4D7)"/>
</g>
</g>
</svg>
