<svg preserveAspectRatio="xMidYMid meet" width="100%" height="100%" overflow="visible" style="display: block;" viewBox="0 0 153.355 180" fill="none" xmlns="http://www.w3.org/2000/svg">
<g id="Vector">
<path id="path229" d="M3.54412e-05 1.05714C3.54412e-05 0.494556 0.494815 0 1.05762 0H152.298C152.86 0 153.355 0.494556 153.355 1.05714L153.355 70.2509C153.355 121.216 123.361 161.812 77.064 179.974C76.9741 180.009 76.3812 180.009 76.2912 179.974C29.9922 161.811 0 121.212 0 70.2509L3.54412e-05 1.05714Z" fill="var(--fill-0, #2B2B2D)"/>
<path id="path231" d="M147.801 5.55214H5.55446V70.2509C5.55446 81.5637 7.07886 92.1445 9.87052 101.937C9.8748 101.952 9.87904 101.967 9.88326 101.982C10.0759 102.656 10.2749 103.327 10.4795 103.994C10.4897 104.028 10.4999 104.061 10.5102 104.094C10.7157 104.762 10.9269 105.426 11.1443 106.087C11.1491 106.101 11.154 106.116 11.1589 106.131C21.9735 138.939 47.268 162.374 76.6775 174.157C106.087 162.374 131.381 138.94 142.196 106.132C142.201 106.116 142.206 106.101 142.211 106.086C142.428 105.426 142.639 104.762 142.845 104.095C142.855 104.061 142.865 104.027 142.876 103.994C143.08 103.327 143.279 102.657 143.471 101.983C143.476 101.967 143.48 101.952 143.485 101.936C146.276 92.1438 147.801 81.5634 147.801 70.251V5.55214Z" fill="var(--fill-0, #23000A)"/>
<path id="path233" d="M1.05758 70.2507V1.057H152.298V70.2507C152.298 120.753 122.596 160.976 76.6776 178.989C30.7564 160.975 1.05758 120.749 1.05758 70.2507ZM5.55453 70.2507C5.55453 122.007 37.4568 158.443 76.6776 174.157C115.898 158.443 147.801 122.007 147.801 70.2507L147.801 5.55194H5.55453V70.2507Z" fill="var(--fill-0, #A09E9F)"/>
<path id="path235" d="M1.58637 70.2509V1.58579H151.769C151.337 2.27855 150.505 2.90722 149.277 2.90722H2.9084V70.2509C2.9084 90.0499 7.54229 108.243 15.9806 124.089C17.3366 126.839 16.6365 127.591 14.8927 124.871C6.29175 108.792 1.58637 90.3327 1.58637 70.2509Z" fill="var(--fill-0, #C3C6C4)"/>
<path id="path237" d="M149.652 6.1623L149.652 70.2509C149.652 118.936 121.35 158.251 76.6777 176.15C76.6777 175.197 76.5529 174.788 78.0952 174.145C120.956 156.281 148.33 117.811 148.33 70.2509L148.33 8.21062C148.33 5.61553 149.652 4.7956 149.652 6.1623Z" fill="var(--fill-0, #C3C6C4)"/>
<path id="path239" d="M76.6775 174.157C98.1889 165.538 117.497 150.685 130.55 130.49L6.61204 6.60928L5.55446 5.55214V70.2509C5.55446 122.007 37.4568 158.443 76.6775 174.157Z" fill="var(--fill-0, #051D45)"/>
<path id="path241" d="M76.6775 173.018C115.379 157.353 146.743 121.338 146.743 70.2508V6.60914H6.61204L6.61207 70.2508C6.61207 121.338 37.9765 157.353 76.6775 173.018Z" fill="var(--fill-0, #580019)"/>
<path id="path243" d="M76.6775 173.018C115.379 157.353 146.743 121.338 146.743 70.2508V6.60914H6.61204L6.61207 70.2508C6.61207 121.338 37.9765 157.353 76.6775 173.018Z" fill="var(--fill-0, #580019)"/>
<path id="path245" d="M129.784 129.725L6.61204 6.60914L6.61207 70.2508C6.61207 121.339 37.9765 157.353 76.6775 173.018C97.9118 164.423 116.936 149.701 129.784 129.725Z" fill="var(--fill-0, #082D6C)"/>
<path id="path247" d="M90.0678 6.60914C80.4207 15.8284 61.9091 33.5213 47.4141 47.3924L95.3796 95.3362C110.486 89.998 128.069 84.0293 146.476 78.2653C146.649 75.636 146.743 72.966 146.743 70.2508V6.60914H90.0678Z" fill="var(--fill-0, #35000F)"/>
<path id="path249" d="M27.3955 66.5911C26.3403 67.6174 25.5463 68.926 25.0996 70.3757L24.8802 71.0873C23.8326 74.4842 22.398 79.1364 22.0783 80.4416C21.724 81.8884 21.8005 83.4225 22.3127 85.1312C22.5661 85.9774 22.8065 86.6274 23.0458 87.1127C23.1598 87.4411 23.5768 88.6531 23.885 89.6945C17.5139 96.0623 16.6566 101.418 19.607 107.36C23.2626 114.721 32.0157 121.468 47.5147 121.468H51.3378L47.5067 118.877C46.3845 118.068 45.4584 117.149 44.7512 116.142C44.593 115.503 44.6026 114.512 45.8627 113.924C46.3586 113.692 46.8806 113.47 47.3258 113.284L49.7795 112.259C55.7149 109.902 72.7713 103.325 95.3796 95.3362L47.4141 47.3924C37.4411 56.9362 29.3693 64.6711 27.3955 66.5911Z" fill="var(--fill-0, #051D45)"/>
<path id="path251" d="M43.4393 116.76C43.1246 115.783 42.9607 113.7 45.2563 112.627C45.7395 112.401 46.2495 112.183 46.7734 111.964L46.7161 111.943C46.7161 111.943 88.9795 94.7527 142.775 77.8969C145.068 77.1786 146.707 75.091 146.738 72.69C146.738 72.6745 146.738 72.6591 146.738 72.6436C146.741 72.2971 146.743 71.9498 146.743 71.6017V6.60914H97.2118C91.8205 6.60914 90.0573 8.69747 86.1173 12.4539C71.3286 26.5533 34.4676 61.7086 28.3939 67.6167C27.4953 68.4909 26.8402 69.5884 26.4677 70.7971C25.4853 73.9849 23.8023 79.4208 23.4689 80.7819C23.1118 82.2399 23.354 83.619 23.6842 84.7207C23.9407 85.5767 24.165 86.1622 24.3669 86.5531C24.3669 86.5531 25.0902 88.6122 25.4445 89.9493C17.3699 101.413 20.7886 119.109 46.669 120.038C45.2865 119.042 44.2237 117.931 43.4393 116.76Z" fill="var(--fill-0, #2B2B2D)"/>
<path id="path253" d="M53.656 80.4113C52.0648 80.0592 50.9855 79.2831 50.284 78.4399C49.816 77.8777 49.6286 81.6445 50.6622 82.1218C52.3363 82.895 54.1273 83.4593 56.3856 82.3011C57.4074 81.7771 61.754 78.6648 63.776 76.8933C65.3477 75.5163 66.4209 72.6513 64.5354 69.0149C63.6746 67.3548 61.4742 66.8362 60.3986 67.6509C58.7076 68.9319 54.1655 72.2664 53.1753 73.1565C52.4099 73.8446 52.376 75.1563 53.2772 76.2885C54.1785 77.4205 55.4935 77.7065 56.439 77.256C56.9923 76.9924 57.2373 76.3119 57.215 75.7393C59.2281 78.9515 56.4806 81.0364 53.656 80.4113Z" fill="var(--fill-0, #A09E9F)"/>
<path id="path255" d="M146.743 71.6018V56.3659L120.835 65.6295L135.04 71.3405C135.04 71.3405 90.1714 87.9199 77.5821 92.813C72.0309 94.9705 72.0566 95.7453 71.1978 98.8425C70.3029 102.07 70.8323 102.537 71.9138 102.131C72.4909 101.915 73.3714 101.59 74.4721 101.191C91.5897 94.8143 117.286 86.1699 141.888 78.2261C142.288 78.097 142.687 77.9682 143.086 77.8395C145.218 77.1522 146.676 75.19 146.725 72.9517C146.736 72.4339 146.743 71.9585 146.743 71.6018Z" fill="var(--fill-0, #A09E9F)"/>
<path id="path257" d="M110.458 29.4997C110.458 29.4997 87.6817 46.8406 75.7871 55.8921C71.6925 59.008 68.9115 61.2461 68.9115 68.9654C68.9115 74.7912 69.111 76.9912 65.9901 79.2589C63.3893 81.1488 61.0769 82.8644 59.8615 83.7452C58.4075 84.7989 59.7477 86.4912 61.4872 86.8909C63.8164 87.4262 65.2941 87.7348 68.1355 88.2653C75.4323 89.6278 77.0096 89.1988 81.2216 87.6814C85.0652 86.2967 123.942 71.8176 123.942 71.8176C123.942 71.8176 118.843 69.7809 115.371 68.4045C111.141 66.7273 108.373 66.6005 108.373 66.6005C108.373 66.6005 131.312 57.7097 142.484 53.4436C145.047 52.4648 146.743 49.9661 146.743 47.1727V21.6865L106.579 46.0163L127.128 50.6774L90.5772 67.8496L95.3501 64.5204C97.2244 63.213 99.1429 61.9727 101.102 60.8017L115.712 52.0692C115.712 52.0692 105.939 49.7516 101.716 49.0062C97.4411 48.2514 96.0515 48.7029 96.0515 48.7029C96.0515 48.7029 116.864 35.2207 143.026 18.6678C145.337 17.206 146.743 14.6276 146.743 11.8527V6.60914H121.248C118.677 6.60914 116.181 7.48962 114.159 9.10959C102.905 18.123 91.5487 27.469 91.5487 27.469L110.458 29.4997Z" fill="var(--fill-0, #A09E9F)"/>
<path id="path259" d="M25.9467 86.5355C27.9046 84.1872 29.1708 83.0866 28.8337 81.7213C28.2976 79.5503 28.0954 78.7714 27.8284 77.5676C27.4941 76.0604 27.619 75.4564 27.9046 74.466C28.254 73.2544 28.8255 71.829 28.8647 71.9843C29.2518 73.5175 29.7165 75.0206 30.5095 77.78C31.3423 80.678 32.5236 81.7755 34.3045 81.7234C35.9031 81.6766 39.6889 81.5632 42.5382 81.8161C45.977 82.1214 45.9535 79.9193 45.9535 79.0025C45.9535 76.0398 45.9535 75.7147 45.9535 72.8695C45.9535 70.5133 45.8778 69.3587 47.0445 67.8271C47.4431 67.3037 48.2091 66.4239 48.8717 65.8602C48.9181 65.8207 48.8717 66.61 48.8717 69.3288C48.8717 71.6207 49.382 73.1124 51.031 71.8176C61.1868 63.8432 96.3063 36.1175 101.158 32.523C96.4466 31.9622 90.5364 31.1957 86.974 30.9209C82.9809 30.6128 80.3794 31.7509 80.3794 31.7509C80.3794 31.7509 95.0205 18.9726 110.448 6.60914H94.9286C93.2062 6.60914 91.5495 7.27424 90.2897 8.47312C80.2737 18.0044 35.0002 61.0998 28.3941 67.6167C27.5015 68.4973 26.8404 69.5884 26.4679 70.7971C25.4855 73.985 23.8024 79.4208 23.4691 80.7819C23.112 82.2399 23.3543 83.619 23.6843 84.7207C24.7868 88.3999 25.3835 87.2111 25.9467 86.5355Z" fill="var(--fill-0, #A09E9F)"/>
<path id="path261" d="M46.3012 102.207C47.8687 101.218 48.4288 101.322 49.3414 101.57C50.6097 101.915 51.4648 101.326 52.1546 100.974C54.942 99.5515 57.2958 98.1605 62.5337 95.6376C63.8375 95.0096 67.1623 93.3927 68.5071 92.7862C69.2842 92.4358 70.2255 91.5922 68.6875 91.037L64.9765 90.0674C63.1182 89.688 61.9005 90.2358 60.6096 90.921C59.0611 91.743 53.827 94.7146 53.827 94.7146C58.6585 90.0674 59.3039 88.8231 57.5435 88.2654C54.8491 87.4119 52.4334 86.8428 47.602 85.6099C45.9181 85.1802 44.5359 85.0408 41.7485 87.317C39.807 88.9025 35.2227 93.2952 32.7578 96.2202C32.7026 96.2856 32.4698 95.2881 32.2787 93.7279C32.178 92.9054 32.4014 92.3442 33.3286 91.1707C34.5127 89.6719 36.8612 87.4026 38.1908 85.7986C39.2128 84.5656 38.5208 83.9434 36.291 83.9434C31.6555 83.9434 29.3619 85.5351 27.8727 87.0433C24.1166 90.8471 19.8691 94.8712 19.5372 100.595C19.2581 105.407 22.1186 109.522 26.0954 113.009C30.2205 116.625 37.0852 119.694 46.6692 120.038C39.1809 114.643 40.8431 105.652 46.3012 102.207Z" fill="var(--fill-0, #A09E9F)"/>
<path id="path263" d="M66.6633 102.984C66.9408 101.956 67.0273 100.985 67.5843 98.9547C68.0496 97.2586 67.8705 96.4155 65.5893 97.4417C58.2802 100.729 54.1274 102.54 49.4664 104.963C45.4148 107.07 45.4741 112.434 46.716 111.943C46.716 111.943 53.7477 109.049 65.6472 104.515C66.1035 104.23 66.4409 103.808 66.6633 102.984Z" fill="var(--fill-0, #A09E9F)"/>
<path id="path267" d="M62.7763 141.39C62.8162 140.707 63.2887 140.125 63.9499 139.945L68.5518 138.694C69.2695 138.507 69.9442 138.288 70.0204 137.953C70.0991 137.61 69.5488 137.083 68.9989 136.612L65.3692 133.359C64.8589 132.902 64.698 132.169 64.9697 131.54L66.7926 127.32C67.1911 126.397 67.31 125.729 67.0988 125.469C67.0572 125.437 66.9404 125.384 66.6286 125.384C66.314 125.384 65.8913 125.438 65.3746 125.543L60.7027 126.326C60.0271 126.439 59.3546 126.108 59.0321 125.504L56.8607 121.436C56.5185 120.794 56.1164 120.138 55.7301 120.138C55.3455 120.138 54.9404 120.799 54.5929 121.448C54.5929 121.448 53.1249 124.092 52.2935 125.588C51.9608 126.186 51.2831 126.505 50.6095 126.38L46.086 125.543C46.0021 125.528 45.4836 125.45 45.0354 125.45C44.5589 125.45 44.4184 125.533 44.3698 125.58C44.1744 125.824 44.2747 126.41 44.6677 127.32L46.4712 131.698C46.7321 132.332 46.5592 133.061 46.0416 133.509L42.5522 136.535C41.4775 137.466 41.409 137.817 41.451 137.999C41.5261 138.329 42.1991 138.521 42.8245 138.675C42.9162 138.697 43.0004 138.718 43.0728 138.738L47.6217 140.058C48.2797 140.249 48.742 140.839 48.7703 141.524L48.9604 146.135C48.9901 146.845 49.0688 147.682 49.4188 147.845C49.4555 147.862 49.4988 147.871 49.5513 147.871C49.9337 147.871 50.5298 147.46 50.9441 147.151L54.7204 144.387C55.2733 143.983 56.023 143.976 56.5827 144.372L60.4515 147.103C61.3178 147.737 61.7125 147.832 61.8705 147.832C61.9097 147.832 61.9432 147.826 61.9715 147.814C62.3159 147.655 62.4708 146.833 62.5005 146.117L62.7763 141.39Z" fill="var(--fill-0, #051D45)"/>
<path id="path269" d="M83.7564 158.062C83.7963 157.378 84.2688 156.796 84.9301 156.617L89.5319 155.366C90.2496 155.179 90.9243 154.96 91.0005 154.624C91.0792 154.281 90.529 153.755 89.979 153.284L86.3493 150.031C85.839 149.573 85.6781 148.841 85.9499 148.212L87.7727 143.992C88.1712 143.068 88.2901 142.401 88.0789 142.141C88.0374 142.109 87.9206 142.056 87.6087 142.056C87.2941 142.056 86.8714 142.109 86.3547 142.215L81.6829 142.997C81.0072 143.111 80.3347 142.78 80.0122 142.176L77.8409 138.108C77.4986 137.466 77.0966 136.81 76.7103 136.81C76.3257 136.81 75.9205 137.47 75.573 138.12C75.573 138.12 74.1051 140.764 73.2737 142.26C72.9409 142.858 72.2632 143.177 71.5896 143.052L67.0661 142.215C66.9822 142.199 66.4638 142.121 66.0156 142.121C65.5391 142.121 65.3985 142.205 65.3499 142.252C65.1545 142.496 65.2548 143.081 65.6478 143.992L67.4514 148.37C67.7123 149.003 67.5393 149.732 67.0217 150.181L63.5324 153.206C62.4577 154.138 62.3892 154.489 62.4311 154.671C62.5063 155 63.1793 155.193 63.8047 155.346C63.8963 155.369 63.9806 155.39 64.0529 155.409L68.6019 156.73C69.2598 156.921 69.7222 157.511 69.7504 158.195L69.9405 162.806C69.9703 163.517 70.0489 164.354 70.3989 164.517C70.4356 164.534 70.4789 164.543 70.5314 164.543C70.9139 164.543 71.5099 164.131 71.9242 163.823L75.7005 161.059C76.2535 160.655 77.0031 160.648 77.5628 161.043L81.4316 163.775C82.2979 164.409 82.6926 164.504 82.8506 164.504C82.8898 164.504 82.9234 164.498 82.9517 164.485C83.2961 164.326 83.4509 163.504 83.4806 162.788L83.7564 158.062Z" fill="var(--fill-0, #051D45)"/>
<path id="path271" d="M104.631 141.39C104.671 140.707 105.144 140.125 105.805 139.945L110.407 138.694C111.125 138.507 111.799 138.288 111.875 137.953C111.954 137.61 111.404 137.083 110.854 136.612L107.224 133.359C106.714 132.902 106.553 132.169 106.825 131.54L108.648 127.32C109.046 126.397 109.165 125.729 108.954 125.469C108.912 125.437 108.795 125.384 108.484 125.384C108.169 125.384 107.746 125.438 107.23 125.543L102.558 126.326C101.882 126.439 101.21 126.108 100.887 125.504L98.7157 121.436C98.3735 120.794 97.9714 120.138 97.5851 120.138C97.2005 120.138 96.7954 120.799 96.4479 121.448C96.4479 121.448 94.98 124.092 94.1486 125.588C93.8158 126.186 93.1381 126.505 92.4645 126.38L87.941 125.543C87.8571 125.528 87.3386 125.45 86.8904 125.45C86.414 125.45 86.2734 125.533 86.2248 125.58C86.0294 125.824 86.1297 126.41 86.5227 127.32L88.3262 131.698C88.5872 132.332 88.4142 133.061 87.8966 133.509L84.4072 136.535C83.3326 137.466 83.2641 137.817 83.306 137.999C83.3812 138.329 84.0541 138.521 84.6796 138.675C84.7712 138.697 84.8554 138.718 84.9278 138.738L89.4768 140.058C90.1347 140.249 90.5971 140.839 90.6253 141.524L90.8154 146.135C90.8452 146.845 90.9238 147.682 91.2738 147.845C91.3105 147.862 91.3538 147.871 91.4063 147.871C91.7888 147.871 92.3848 147.46 92.7991 147.151L96.5754 144.387C97.1283 143.983 97.878 143.976 98.4377 144.372L102.306 147.103C103.173 147.737 103.568 147.832 103.726 147.832C103.765 147.832 103.798 147.826 103.827 147.814C104.171 147.655 104.326 146.833 104.356 146.117L104.631 141.39Z" fill="var(--fill-0, #051D45)"/>
<path id="polygon273" d="M58.9284 128.046L65.6093 126.81L62.9164 133.045L68.0493 137.495L61.4931 139.278L61.2128 146.064L55.7303 142.052L50.2478 146.064L49.9675 139.278L43.4113 137.495L48.5442 133.045L45.8513 126.81L52.5322 128.046L55.7303 122.054L58.9284 128.046Z" fill="var(--fill-0, #A09E9F)"/>
<path id="path275" d="M58.1914 129.58L55.7305 134.71L64.4437 127.739L59.3695 128.678C58.8553 128.774 58.4176 129.109 58.1914 129.58Z" fill="var(--fill-0, #C3C6C4)"/>
<path id="path277" d="M61.2416 133.431L55.7305 134.71L66.5958 137.163L62.7102 133.795C62.3072 133.445 61.7612 133.31 61.2416 133.431Z" fill="var(--fill-0, #C3C6C4)"/>
<path id="path279" d="M44.8653 137.163L55.7303 134.71L50.2488 133.437C49.7106 133.312 49.145 133.453 48.7276 133.814L44.8653 137.163Z" fill="var(--fill-0, #C3C6C4)"/>
<path id="path281" d="M50.6834 139.607L50.8948 144.721L55.7304 134.71L51.3312 138.194C50.9016 138.534 50.6608 139.06 50.6834 139.607Z" fill="var(--fill-0, #C3C6C4)"/>
<path id="path283" d="M60.566 144.721L55.7305 134.71V140.385C55.7305 140.886 55.9696 141.358 56.3743 141.654L60.566 144.721Z" fill="var(--fill-0, #C3C6C4)"/>
<path id="path285" d="M53.3243 129.079L53.6957 130.289L52.915 129.294C52.6414 128.945 52.2498 128.708 51.8136 128.627L47.0171 127.739L55.7304 134.71V123.545L53.4453 127.826C53.2399 128.211 53.1964 128.662 53.3243 129.079Z" fill="var(--fill-0, #C3C6C4)"/>
<path id="polygon289" d="M100.772 128.046L107.453 126.81L104.76 133.045L109.893 137.495L103.337 139.278L103.057 146.064L97.574 142.052L92.0916 146.064L91.8113 139.278L85.2551 137.495L90.3879 133.045L87.695 126.81L94.376 128.046L97.574 122.054L100.772 128.046Z" fill="var(--fill-0, #A09E9F)"/>
<path id="path291" d="M100.035 129.58L97.5739 134.71L106.287 127.739L101.213 128.678C100.699 128.774 100.261 129.109 100.035 129.58Z" fill="var(--fill-0, #C3C6C4)"/>
<path id="path293" d="M103.085 133.431L97.5739 134.71L108.439 137.163L104.554 133.795C104.151 133.445 103.605 133.31 103.085 133.431Z" fill="var(--fill-0, #C3C6C4)"/>
<path id="path295" d="M86.709 137.163L97.5741 134.71L92.0926 133.437C91.5543 133.312 90.9887 133.453 90.5713 133.814L86.709 137.163Z" fill="var(--fill-0, #C3C6C4)"/>
<path id="path297" d="M92.5269 139.607L92.7383 144.721L97.5738 134.71L93.1746 138.194C92.745 138.534 92.5043 139.06 92.5269 139.607Z" fill="var(--fill-0, #C3C6C4)"/>
<path id="path299" d="M102.409 144.721L97.5739 134.71V140.385C97.5739 140.886 97.8131 141.358 98.2178 141.654L102.409 144.721Z" fill="var(--fill-0, #C3C6C4)"/>
<path id="path301" d="M95.1678 129.079L95.5392 130.289L94.7585 129.294C94.4849 128.945 94.0932 128.708 93.6571 128.627L88.8606 127.739L97.5738 134.71V123.545L95.2888 127.826C95.0834 128.211 95.0398 128.662 95.1678 129.079Z" fill="var(--fill-0, #C3C6C4)"/>
<path id="polygon305" d="M79.8501 144.788L86.5311 143.551L83.8381 149.787L88.971 154.237L82.4148 156.02L82.1345 162.805L76.652 158.794L71.1696 162.805L70.8893 156.02L64.3331 154.237L69.466 149.787L66.773 143.551L73.4539 144.788L76.652 138.796L79.8501 144.788Z" fill="var(--fill-0, #A09E9F)"/>
<path id="path307" d="M79.1132 146.322L76.6522 151.451L85.3654 144.481L80.2912 145.42C79.777 145.515 79.3393 145.85 79.1132 146.322Z" fill="var(--fill-0, #C3C6C4)"/>
<path id="path309" d="M82.1633 150.172L76.6522 151.451L87.5176 153.905L83.632 150.536C83.229 150.187 82.683 150.052 82.1633 150.172Z" fill="var(--fill-0, #C3C6C4)"/>
<path id="path311" d="M65.787 153.905L76.6521 151.452L71.1705 150.179C70.6323 150.054 70.0668 150.195 69.6493 150.557L65.787 153.905Z" fill="var(--fill-0, #C3C6C4)"/>
<path id="path313" d="M71.6051 156.349L71.8165 161.463L76.6521 151.451L72.2529 154.936C71.8233 155.276 71.5825 155.801 71.6051 156.349Z" fill="var(--fill-0, #C3C6C4)"/>
<path id="path315" d="M81.4877 161.463L76.6522 151.451V157.127C76.6522 157.628 76.8914 158.099 77.296 158.395L81.4877 161.463Z" fill="var(--fill-0, #C3C6C4)"/>
<path id="path317" d="M74.246 145.821L74.6175 147.031L73.8367 146.036C73.5631 145.687 73.1715 145.449 72.7353 145.369L67.9389 144.481L76.6521 151.451V140.286L74.367 144.568C74.1616 144.953 74.1181 145.403 74.246 145.821Z" fill="var(--fill-0, #C3C6C4)"/>
<path id="path325" d="M34.6072 87.5543C36.4696 85.6184 34.8825 85.4503 32.705 85.7678C30.9707 86.0207 29.2915 87.4219 28.555 88.1705C24.7698 92.0175 21.1745 96.5041 21.0023 100.316C20.632 108.512 29.5838 114.891 33.3444 115.991C31.076 114.535 24.4907 107.987 25.8861 100.735C26.6486 96.7714 30.0185 92.3243 34.6072 87.5543Z" fill="var(--fill-0, #C3C6C4)"/>
<path id="path327" d="M71.3153 41.0088L56.5498 59.8885C52.0425 65.7586 53.2171 68.2995 53.8577 67.7735C66.5268 57.3722 85.5388 42.4139 92.5722 36.9649L81.8842 35.7732C77.4244 35.3939 74.5792 36.8838 71.3153 41.0088Z" fill="var(--fill-0, #C3C6C4)"/>
<path id="path329" d="M95.3675 8.80063C92.8206 8.80063 90.3682 9.78463 88.503 11.5549L32.143 65.0455C31.2316 65.9367 30.4889 67.2249 30.1654 68.6333C29.7842 70.2929 29.7546 71.6731 30.7229 74.4502C32.0237 78.1807 32.6578 78.2165 33.7581 78.2165C33.7581 78.2165 36.3596 78.2165 37.99 78.2165C39.8926 78.2165 40.7574 77.6791 40.7574 75.3986C40.7574 75.3986 40.7488 75.3026 40.7488 71.2889C40.7488 65.5036 42.8899 62.0859 47.2618 58.0694L102.24 8.80063H95.3675Z" fill="var(--fill-0, #C3C6C4)"/>
<path id="path331" d="M129.96 45.7932C132.445 46.3382 135.033 46.0567 137.35 44.992C138.694 44.3743 140.112 43.7092 141.02 43.2457C143.28 42.0918 144.71 39.7347 144.71 37.1555V30.823C134.342 36.7655 121.864 44.0171 121.864 44.0171L129.96 45.7932Z" fill="var(--fill-0, #C3C6C4)"/>
<path id="path333" d="M121.113 21.8182C126.673 17.691 131.479 14.0049 138.635 8.80063H127.823C125.388 8.80063 123.022 9.62206 121.092 11.138C114.276 16.4915 105.56 23.5525 105.56 23.5525L111.88 24.1554C115.943 24.5324 118.676 23.6277 121.113 21.8182Z" fill="var(--fill-0, #C3C6C4)"/>
<path id="path335" d="M50.916 95.1887C52.0095 94.2754 56.2429 92.217 49.739 89.9408C45.3928 88.4197 43.1789 88.9829 38.9613 92.7228C33.8322 97.2709 31.9363 103.645 33.2498 109.111C34.3941 113.873 38.7076 117.288 43.1454 118.127C41.6867 116.686 39.5442 114.325 39.8904 109.731C40.4277 102.601 46.0706 99.2353 50.916 95.1887Z" fill="var(--fill-0, #C3C6C4)"/>
<path id="path337" d="M82.8232 82.8017C87.069 83.6259 88.8171 83.0251 90.6696 82.3712C96.6395 80.2638 114.276 73.726 114.276 73.726C114.276 73.726 109.353 71.8361 106.797 70.8668C101.318 68.7893 94.8923 70.5987 94.8923 70.5987L140.845 52.8273C143.172 51.9273 144.711 49.6522 144.711 47.1125V44.3698C135.13 48.7611 104.984 62.5837 93.4705 67.9257C89.648 69.6993 83.6793 71.8783 83.6793 71.8783C83.6793 71.8783 87.1521 68.7034 91.6696 65.6883C95.8955 62.8678 107.645 55.3226 107.645 55.3226C107.645 55.3226 99.3283 53.5459 96.5173 52.9563C91.1254 51.8253 85.8812 54.238 85.8812 54.238C85.8812 54.238 127.98 26.8255 141.584 18.0501C143.532 16.7935 144.711 14.607 144.711 12.2547V8.24697L79.1786 55.1503C74.2531 58.7769 72.4073 60.9198 72.4073 68.7499V73.9645C72.4073 79.332 72.2719 79.6898 76.5678 81.1211L82.8232 82.8017Z" fill="var(--fill-0, #C3C6C4)"/>
<path id="path339" d="M63.9914 100.125C59.7591 101.997 55.5934 103.878 53.6339 104.935C50.351 106.705 50.4945 109.121 50.9582 108.932C52.197 108.426 62.151 104.287 63.2997 103.778C64.1371 103.406 64.7558 103.247 64.9852 101.452C65.2047 99.7337 64.4775 99.9102 63.9914 100.125Z" fill="var(--fill-0, #C3C6C4)"/>
<path id="path341" d="M59.4057 69.2996C59.0172 69.591 54.3697 73.0939 53.6667 73.7259C53.1698 74.1727 53.2486 75.0492 53.854 75.8102C54.3047 76.3763 54.909 76.7012 55.5118 76.7012C56.2793 76.7012 57.1651 75.4162 55.3935 73.7674C54.5429 72.9758 57.113 71.7994 58.9367 74.0333C59.911 75.2267 59.9721 76.321 60.031 77.0119C60.1351 78.2352 62.5261 77.4131 63.2094 74.4588C64.0952 70.6293 60.9167 68.1295 59.4057 69.2996Z" fill="var(--fill-0, #C3C6C4)"/>
<path id="path345" d="M77.2837 98.5356C76.6442 98.7543 77.1504 97.8419 77.473 96.7922C78.0007 95.0748 79.0199 94.7644 80.2222 94.3372L135.511 74.4901C137.27 73.8625 139.4 73.3404 141.207 73.9426C141.59 74.0701 142.91 74.5884 143.234 74.7091C144.907 75.3336 143.257 76.1237 142.448 76.3977C133.078 79.5729 93.2716 93.0686 77.2837 98.5356Z" fill="var(--fill-0, #C3C6C4)"/>
</g>
</svg>
