<svg preserveAspectRatio="xMidYMid meet" width="100%" height="100%" overflow="visible" style="display: block;" viewBox="0 0 94.7369 180" fill="none" xmlns="http://www.w3.org/2000/svg">
<g id="Group 27246">
<path id="Vector" d="M94.7369 0H2.43187e-05V132.57L47.3684 180L94.7369 132.57V0Z" fill="var(--fill-0, #001B29)"/>
<g id="Group">
<path id="Vector_2" d="M93.074 1.665V131.895L47.3684 177.66L1.66286 131.895V1.665H93.074ZM94.7369 0H2.43187e-05V132.57L47.3684 180L94.7369 132.57V0Z" fill="var(--fill-0, #F29100)"/>
<path id="Vector_3" d="M47.3686 164.79L10.6064 127.98L87.4565 50.1749V6.97487H7.19087V93.0149L57.4355 41.8499V14.5349L10.4716 62.3249V10.2599H84.1758V26.1899L7.19087 104.085V129.195L47.3686 169.425L87.4565 129.33V61.1999L37.122 112.5V139.86L84.1758 91.9349V127.935L47.3686 164.79Z" fill="var(--fill-0, #F29100)"/>
</g>
</g>
</svg>
