<svg preserveAspectRatio="none" width="100%" height="100%" overflow="visible" style="display: block;" viewBox="0 0 198.003 40.5394" fill="none" xmlns="http://www.w3.org/2000/svg">
<g id="Group">
<path id="Vector" d="M86.8751 0V12.6786C86.8751 13.7123 86.7945 14.7137 86.6495 15.6989C85.3927 24.1136 78.964 30.8325 70.7148 32.5123V40.5071H62.6265V32.5123C54.2161 30.8002 47.6908 23.8391 46.6112 15.1983C46.5146 14.3745 46.4501 13.5185 46.4501 12.6625V0H54.5383V12.6625C54.5383 19.3652 59.952 24.8082 66.6546 24.8082C73.3571 24.8082 78.7869 19.3814 78.7869 12.6625V0H86.8751Z" fill="var(--fill-0, white)"/>
<path id="Vector_2" d="M198.003 0V12.6786C198.003 13.7123 197.922 14.7137 197.778 15.6989C196.52 24.1136 190.092 30.8325 181.843 32.5123V40.5071H173.754V32.5123C165.344 30.8002 158.818 23.8391 157.739 15.1983C157.643 14.3745 157.578 13.5185 157.578 12.6625V0H165.666V12.6625C165.666 19.3652 171.08 24.8082 177.783 24.8082C184.485 24.8082 189.915 19.3814 189.915 12.6625V0H198.003Z" fill="var(--fill-0, white)"/>
<path id="Vector_3" d="M149.52 0H141.431V40.5071H149.52V0Z" fill="var(--fill-0, white)"/>
<path id="Vector_4" d="M127.077 25.9227C130.864 23.3707 133.361 19.0745 133.361 14.1969C133.361 8.17249 129.591 3.03642 124.274 0.96907C122.662 0.339175 120.922 0 119.102 0H92.9679V8.10788H119.102C122.453 8.10788 125.159 10.8374 125.159 14.1969C125.159 17.5563 122.436 20.2697 119.102 20.2697H92.9679V28.3776H112.947C116.524 28.3776 119.746 29.9442 121.97 32.4315C123.887 34.5796 125.047 37.4222 125.047 40.5394H133.345C133.345 37.6645 132.732 34.9188 131.653 32.4315C130.574 29.9765 129.027 27.78 127.109 25.9549L127.077 25.9227Z" fill="var(--fill-0, white)"/>
<path id="Vector_5" d="M40.4088 0L24.2485 40.5071H16.1603L0 0H8.08821L20.2044 30.3803L32.3206 0H40.4088Z" fill="var(--fill-0, white)"/>
</g>
</svg>
