<svg preserveAspectRatio="none" width="100%" height="100%" overflow="visible" style="display: block;" viewBox="0 0 48 45" fill="none" xmlns="http://www.w3.org/2000/svg">
<path id="Vector" d="M13.4832 10.421L20.1948 1.83553C20.6742 1.20396 21.2439 0.740536 21.9038 0.445274C22.5638 0.150012 23.2525 0.00159141 23.9701 1.24653e-05C24.6876 -0.00156648 25.3771 0.146854 26.0387 0.445274C26.7002 0.743694 27.2691 1.20711 27.7453 1.83553L34.4569 10.421L44.6442 13.796C45.6829 14.1118 46.5019 14.6944 47.1011 15.5439C47.7004 16.3934 48 17.3305 48 18.3552C48 18.8289 47.9297 19.3026 47.7891 19.7763C47.6484 20.2499 47.4191 20.7039 47.1011 21.1381L40.5094 30.3749L40.7491 40.0854C40.789 41.467 40.3296 42.6314 39.3708 43.5788C38.412 44.5261 37.2934 44.9998 36.015 44.9998C35.9351 44.9998 35.4956 44.9406 34.6966 44.8222L23.9701 41.8617L13.2435 44.8222C13.0437 44.9011 12.824 44.9509 12.5843 44.9714C12.3446 44.9919 12.1249 45.0014 11.9251 44.9998C10.6467 44.9998 9.52811 44.5261 8.56931 43.5788C7.61051 42.6314 7.15108 41.467 7.19103 40.0854L7.43073 30.3157L0.898903 21.1381C0.579303 20.7039 0.34919 20.2499 0.208566 19.7763C0.0679417 19.3026 -0.00157107 18.8289 2.69327e-05 18.3552C2.69327e-05 17.3684 0.290064 16.451 0.870139 15.6031C1.45021 14.7552 2.2588 14.1528 3.29591 13.796L13.4832 10.421Z" fill="var(--fill-0, #FDCC0D)"/>
</svg>
