<svg width="734" height="524" viewBox="0 0 734 524" fill="none" xmlns="http://www.w3.org/2000/svg">
<path d="M731.142 48.0716C725.349 60.7615 711.573 68.4273 697.219 65.9381C626.206 53.6839 595.086 81.0338 581.398 106.145C548.088 167.688 553.158 268.452 557.879 302.12C560.072 317.305 550.91 331.831 536.309 336.436C521.707 341.041 505.864 334.422 498.889 320.81L488.621 300.634C444.139 213.468 409.015 144.604 387.078 121.939C357.361 91.1203 325.092 78.1524 298.471 86.2409C284.545 90.541 274.184 100.302 269.609 113.012C294.047 116.424 316.074 125.79 335.372 140.964C358.782 159.395 374.646 185.116 381.249 215.503C385.576 235.42 379.073 255.376 363.856 269.055C348.668 282.67 327.255 287.078 307.954 280.644L305.617 279.884C294.688 276.275 281.042 271.732 269.07 263.353C238.08 241.537 217.406 212.241 208.413 178.693C151.967 190.801 104.082 228.669 79.6347 282.22C50.7842 345.416 59.6512 418.547 102.852 473.079C113.603 486.651 111.337 506.395 97.7361 517.208C84.1637 527.956 64.4173 525.689 53.6027 512.088C-4.33602 438.943 -16.2406 340.887 22.4585 256.118C56.6388 181.247 125.058 129.138 204.951 115.39C205.255 113.382 205.558 111.374 205.891 109.302C212.8 69.9788 241.231 38.1044 280.109 26.1805C330.106 10.8984 385.625 29.8803 432.293 78.328C450.408 97.1024 470.475 130.415 495.784 177.776C500.336 143.281 509.359 107.223 526.237 76.1318C559.409 15.0618 623.866 -10.5635 707.946 3.97573C725.001 6.93131 736.47 23.1313 733.55 40.2768C733.084 42.9776 732.272 45.597 731.171 48.0081L731.142 48.0716ZM275.18 178.581C281.689 191.366 291.763 202.559 305.112 211.951C307.771 213.854 311.89 215.582 316.35 217.234C312.095 206.398 305.47 197.393 296.545 190.404C289.897 185.146 282.86 181.243 275.18 178.581Z" fill="#F9F6FF"/>
</svg>
