<svg width="14" height="14" viewBox="0 0 14 14" fill="none" xmlns="http://www.w3.org/2000/svg">
<path d="M1.25027 13.7507C0.559943 13.7507 8.25672e-06 13.1908 -3.26415e-05 12.5004L0.000398584 1.25034C0.00040735 0.56 0.559922 0.000485181 1.25027 0.000476415L12.5004 4.48312e-05C13.1907 8.52922e-05 13.7506 0.560021 13.7507 1.25034C13.7507 1.94067 13.1907 2.5006 12.5004 2.50064L4.2679 2.50021L12.7584 10.9908C13.2466 11.4789 13.2466 12.2704 12.7584 12.7585C12.2703 13.2467 11.4788 13.2467 10.9907 12.7585L2.50013 4.26798L2.50056 12.5004C2.50052 13.1908 1.9406 13.7507 1.25027 13.7507Z" fill="#222222"/>
</svg>
