<svg width="30" height="30" viewBox="0 0 30 30" fill="none" xmlns="http://www.w3.org/2000/svg">
<path d="M9.54327 15.2734C10.7124 15.2734 11.4428 15.1724 11.9997 15.8293C12.152 16.0238 12.2604 16.2487 12.3182 16.4889C12.3759 16.7289 12.3819 16.9783 12.3347 17.2206C12.2875 17.4629 12.1884 17.6928 12.0448 17.8936C11.901 18.0946 11.7152 18.2634 11.5009 18.3864C11.1864 18.5186 10.849 18.5881 10.5078 18.5907H7.67278C7.52669 18.5907 7.4685 18.5904 7.46845 18.4014V15.4778C7.46845 15.3321 7.46785 15.2736 7.65775 15.2734H9.54327Z" fill="#5B5B5B"/>
<path d="M7.65775 10.5679C9.29302 10.5679 10.623 10.4702 11.2831 10.8594C11.9444 11.247 11.9724 11.7825 11.9832 11.9426C11.9939 12.1026 11.9889 12.3322 11.6812 12.8906C11.3732 13.4488 9.99607 13.46 9.0024 13.46H7.6878C7.52626 13.46 7.46845 13.4007 7.46845 13.2407V10.7722C7.46845 10.6263 7.4677 10.5681 7.65775 10.5679Z" fill="#5B5B5B"/>
<path d="M20.5334 13.6133C20.8364 13.5955 21.141 13.628 21.4348 13.7094H21.4198C21.6131 13.7637 21.7919 13.8608 21.9426 13.9934C22.0933 14.126 22.2128 14.2909 22.2912 14.4757C22.4228 14.726 22.4977 15.0016 22.515 15.284C22.5304 15.5099 22.5308 15.5108 22.3513 15.5108H18.7034C18.5081 15.5108 18.5081 15.48 18.5081 15.3155C18.538 15.1005 18.5999 14.8927 18.6899 14.698C18.7758 14.4928 18.8932 14.3052 19.046 14.1556C19.0714 14.1271 19.0971 14.0988 19.1241 14.0715C19.1489 14.0553 19.1755 14.0404 19.2007 14.0249C19.5005 13.8031 19.7976 13.7233 20.1202 13.6674C20.1578 13.6599 20.1949 13.6493 20.2329 13.6433C20.3324 13.6277 20.4331 13.6183 20.5334 13.6133Z" fill="#5B5B5B"/>
<path fill-rule="evenodd" clip-rule="evenodd" d="M23.9994 0C25.5907 0 27.117 0.632594 28.2422 1.75781C29.3674 2.88303 30 4.4093 30 6.0006V23.9994C30 25.5907 29.3674 27.117 28.2422 28.2422C27.117 29.3674 25.5907 30 23.9994 30H6.0006C4.4093 30 2.88303 29.3674 1.75781 28.2422C0.632594 27.117 0 25.5907 0 23.9994V6.0006C0 4.4093 0.632594 2.88303 1.75781 1.75781C2.88303 0.632594 4.4093 0 6.0006 0H23.9994ZM4.99549 8.74399V21.1794C8.67049 21.1794 11.7731 21.5842 13.6193 20.5799H13.6043C14.172 20.2625 14.6373 19.7892 14.9444 19.2157C15.2515 18.6423 15.3885 17.9923 15.338 17.3438C15.2875 16.6953 15.051 16.0748 14.659 15.5559C14.2669 15.0371 13.7348 14.6413 13.125 14.4156C13.7868 14.0902 14.3057 13.5321 14.5823 12.8486C14.859 12.165 14.8736 11.4032 14.6244 10.7091C14.1443 9.12003 12.3593 8.74399 10.8594 8.74399H4.99549ZM25.0646 16.7548C25.0644 13.4551 22.9041 11.1156 19.4997 11.851C18.3253 12.1499 17.3142 12.8954 16.6812 13.9288C16.0482 14.9623 15.8428 16.2023 16.1103 17.3843C16.1559 17.8544 16.2879 18.3126 16.4994 18.735C16.8435 19.3686 17.33 19.9149 17.9192 20.3305C18.5083 20.746 19.1857 21.0197 19.8978 21.1313C20.61 21.2428 21.3389 21.189 22.0267 20.9736C22.7145 20.758 23.343 20.3867 23.8642 19.8888C24.254 19.4095 24.5584 18.8668 24.7641 18.2843C24.7942 18.1816 24.6794 18.1806 24.6755 18.1806H22.7254C22.6822 18.1806 22.6099 18.2651 22.6052 18.2707C22.3488 18.706 21.953 19.0429 21.4829 19.2278C21.0129 19.4124 20.4945 19.4349 20.0105 19.2909C19.094 19.1554 18.6897 18.225 18.5096 17.3407C18.4804 17.1301 18.6306 17.0404 18.7951 17.0403H24.8377C24.857 17.0384 24.8764 17.0345 24.8948 17.0282C24.9315 17.0157 24.9651 16.9955 24.9925 16.9681C25.0198 16.9408 25.04 16.9071 25.0526 16.8705C25.0651 16.8337 25.0696 16.7934 25.0646 16.7548ZM18.2557 9.38852C18.1203 9.38852 18.1205 9.43537 18.1205 9.55379V10.5303C18.1205 10.7396 18.1201 10.7407 18.3308 10.7407H23.0394C23.1194 10.7407 23.116 10.6505 23.116 10.6505V9.38852H18.2557Z" fill="#5B5B5B"/>
</svg>
