<svg width="40" height="40" viewBox="0 0 40 40" fill="none" xmlns="http://www.w3.org/2000/svg">
<rect width="40" height="40" rx="20" fill="#5B5B5B"/>
<path d="M27.2168 15.8259C28.0513 15.8143 28.8755 16.0106 29.6152 16.3971C30.2919 16.7715 30.8746 17.2951 31.3184 17.9284C31.7652 18.589 32.0911 19.3324 32.2773 20.1198C32.469 20.9497 32.5372 21.8032 32.4805 22.653H24.543C24.5048 23.4623 24.7701 24.257 25.2861 24.8815C25.5627 25.1375 25.8874 25.3312 26.2383 25.4489C26.5891 25.5666 26.9595 25.6061 27.3252 25.5661C27.8813 25.5826 28.428 25.4188 28.8828 25.0983C29.18 24.9006 29.4167 24.6176 29.5664 24.2839C29.5857 24.2409 29.6171 24.2046 29.6562 24.1784C29.6954 24.1521 29.7409 24.1369 29.7881 24.1354H31.9834C32.132 24.1354 32.2418 24.275 32.1973 24.4167C31.8718 25.4899 31.2162 26.4334 30.3232 27.112C29.3833 27.7239 28.2782 28.033 27.1572 27.9977C26.3606 28.0119 25.5691 27.8658 24.8301 27.568C24.1581 27.284 23.5594 26.8504 23.0801 26.3005C22.6056 25.7295 22.2472 25.0711 22.0244 24.363C21.7575 23.5718 21.6281 22.7408 21.6416 21.9059C21.6341 21.0828 21.768 20.264 22.0371 19.486C22.2833 18.7746 22.6709 18.1196 23.1758 17.5612C23.671 17.0234 24.2709 16.5925 24.9385 16.2946C25.6566 15.9808 26.4331 15.821 27.2168 15.8259ZM15.6592 12.0007C16.3201 11.9925 16.9798 12.0604 17.625 12.2038C18.1713 12.3055 18.6913 12.5306 19.1484 12.862C19.5848 13.1876 19.9241 13.6259 20.1309 14.1296C20.384 14.7208 20.5029 15.3609 20.4785 16.0036C20.506 16.7067 20.3266 17.4032 19.9629 18.0055C19.5765 18.5595 19.046 18.9971 18.4287 19.2712L18.3682 19.2692C19.2301 19.4951 19.9773 20.0329 20.4658 20.778C20.9365 21.5371 21.1745 22.4174 21.1504 23.3102C21.1715 24.0324 21.0196 24.7497 20.707 25.4011C20.431 25.9729 20.0187 26.4686 19.5068 26.8444C18.9886 27.2185 18.4081 27.4977 17.792 27.6677C17.1474 27.8448 16.4819 27.9333 15.8145 27.9333H8.84277C8.75191 27.9332 8.66484 27.897 8.60059 27.8327C8.53638 27.7684 8.5 27.6814 8.5 27.5905V12.3434C8.5 12.2526 8.53638 12.1655 8.60059 12.1012C8.66484 12.037 8.75191 12.0007 8.84277 12.0007H15.6592ZM11.9863 20.572C11.8607 20.572 11.7579 20.6749 11.7578 20.8005V25.2009C11.7578 25.2613 11.7815 25.3192 11.8242 25.362C11.8671 25.4049 11.9257 25.4294 11.9863 25.4294H15.3291C15.973 25.4293 16.5905 25.1736 17.0459 24.7184C17.5014 24.263 17.7578 23.6448 17.7578 23.0007C17.7578 22.3566 17.5013 21.7393 17.0459 21.2839C16.5905 20.8285 15.9731 20.572 15.3291 20.572H11.9863ZM26.9277 18.1432C26.3142 18.1432 25.7258 18.3872 25.292 18.821C24.8582 19.2548 24.6143 19.8432 24.6143 20.4567C24.6141 20.4718 24.6174 20.4867 24.623 20.5007C24.6288 20.5147 24.6367 20.528 24.6475 20.5387C24.6582 20.5495 24.6715 20.5574 24.6855 20.5632C24.6995 20.5689 24.7144 20.5721 24.7295 20.572H29.3564C29.3716 20.5721 29.3864 20.5689 29.4004 20.5632C29.4145 20.5574 29.4277 20.5495 29.4385 20.5387C29.4492 20.528 29.4572 20.5147 29.4629 20.5007C29.4686 20.4867 29.4718 20.4718 29.4717 20.4567C29.4717 19.8432 29.2278 19.2548 28.7939 18.821C28.3601 18.3872 27.7717 18.1432 27.1582 18.1432H26.9277ZM11.9863 14.572C11.9257 14.572 11.8671 14.5965 11.8242 14.6393C11.7815 14.6822 11.7578 14.74 11.7578 14.8005V18.3434C11.7578 18.4692 11.8606 18.572 11.9863 18.572H15.1855C15.716 18.572 16.2255 18.3611 16.6006 17.986C16.9755 17.611 17.1865 17.1023 17.1865 16.572C17.1865 16.0416 16.9755 15.5329 16.6006 15.1579C16.2255 14.7828 15.716 14.572 15.1855 14.572H11.9863ZM29.8281 12.8122C29.9183 12.8122 30.0052 12.8475 30.0693 12.9108C30.1333 12.9741 30.1697 13.0601 30.1709 13.1501L30.1855 14.2497C30.1861 14.295 30.1781 14.3404 30.1611 14.3825C30.1442 14.4245 30.1187 14.4626 30.0869 14.4948C30.0551 14.527 30.0173 14.5525 29.9756 14.57C29.9337 14.5875 29.8882 14.5973 29.8428 14.5973H24.4307C24.3397 14.5973 24.2518 14.5611 24.1875 14.4968C24.1232 14.4325 24.0869 14.3445 24.0869 14.2536V13.155C24.0869 13.064 24.1232 12.9761 24.1875 12.9118C24.2518 12.8475 24.3397 12.8122 24.4307 12.8122H29.8281Z" fill="#222222"/>
</svg>
