<svg width="139" height="25" viewBox="0 0 139 25" fill="none" xmlns="http://www.w3.org/2000/svg">
<path d="M48.1846 17.8451C48.5752 17.8451 48.9459 17.8128 49.2948 17.7407C49.6487 17.6683 49.9627 17.5549 50.2277 17.3864C50.4926 17.2249 50.7117 17.0031 50.8716 16.7205C51.0314 16.4409 51.1077 16.078 51.1077 15.6388C51.1077 14.779 50.8471 14.1682 50.3286 13.7974C49.809 13.4319 49.1161 13.2501 48.2638 13.2501H43.9591V17.8451H48.1846ZM47.966 10.7419C48.6672 10.7419 49.2478 10.5874 49.708 10.2736C50.1635 9.96581 50.3847 9.45563 50.3847 8.75614C50.3847 8.36853 50.311 8.04713 50.1635 7.79806C50.0113 7.54898 49.809 7.35392 49.5537 7.21771C49.3004 7.07577 49.0142 6.97743 48.6816 6.92485C48.3559 6.86528 48.0138 6.84249 47.6636 6.84249H43.9591V10.7419H47.966ZM48.4781 4.00018C49.3379 4.00018 50.1141 4.06927 50.8239 4.21193C51.5291 4.35064 52.1313 4.58249 52.6401 4.90066C53.1414 5.21811 53.5334 5.64071 53.814 6.17296C54.0878 6.69767 54.2259 7.3541 54.2259 8.13093C54.2259 8.97112 54.0201 9.67259 53.609 10.2334C53.1951 10.7934 52.5869 11.2528 51.7743 11.6097C52.8811 11.9049 53.7004 12.4252 54.244 13.164C54.7903 13.9078 55.0574 14.7988 55.0574 15.8424C55.0574 16.6889 54.8826 17.4169 54.5343 18.0297C54.182 18.6501 53.7028 19.1531 53.112 19.5409C52.5163 19.9325 51.8324 20.2196 51.0662 20.4066C50.2992 20.5945 49.5091 20.6888 48.7158 20.6872H40V4L48.4781 4.00018ZM64.8111 11.4416C64.3856 11.005 63.6661 10.7687 62.7879 10.7687C62.2163 10.7687 61.7431 10.858 61.3648 11.0398C60.9947 11.2193 60.6909 11.4429 60.4594 11.7058C60.2285 11.9731 60.0707 12.2551 59.9794 12.5567C59.8877 12.8508 59.8332 13.1175 59.8162 13.3533H65.6353C65.55 12.5066 65.2379 11.8813 64.8111 11.4416ZM60.7017 17.7895C61.2372 18.2747 62.0115 18.5193 63.0146 18.5193C63.7357 18.5193 64.3591 18.3501 64.8821 18.0123C65.4003 17.6759 65.7159 17.3154 65.8381 16.9416H68.9874C68.4813 18.3958 67.7132 19.4343 66.6649 20.0591C65.6299 20.687 64.3665 21 62.895 21C61.8693 21 60.9463 20.8455 60.1181 20.5424C59.2896 20.2352 58.5973 19.8043 58.0148 19.243C57.4472 18.679 57.0069 18.0123 56.6928 17.2299C56.3821 16.4511 56.2249 15.5887 56.2249 14.6541C56.2249 13.7506 56.3883 12.9065 56.7058 12.1266C57.0307 11.344 57.4793 10.6685 58.0694 10.102C58.6615 9.53244 59.3627 9.0831 60.1794 8.75488C60.9968 8.42721 61.8974 8.26319 62.895 8.26319C63.9966 8.26319 64.9613 8.45969 65.7882 8.86076C66.6124 9.25555 67.2877 9.79085 67.819 10.4614C68.3496 11.131 68.7273 11.8965 68.9634 12.7545C69.197 13.6117 69.2796 14.5071 69.2121 15.445H59.816C59.816 16.3998 60.1641 17.3041 60.7017 17.7895ZM74.2917 4.00018V10.292H74.3737C74.8278 9.59202 75.4021 9.0831 76.1082 8.76762C76.8128 8.44946 77.5005 8.29226 78.1702 8.29226C79.1255 8.29226 79.9081 8.4089 80.5192 8.64901C81.1311 8.8936 81.6151 9.2245 81.9696 9.65464C82.317 10.0832 82.5629 10.6055 82.7072 11.2216C82.8483 11.8362 82.9214 12.5144 82.9214 13.2619V20.6872H79.3276V13.8645C79.3276 12.8698 79.1603 12.1221 78.8271 11.6329C78.4933 11.143 77.9006 10.8972 77.0457 10.8972C76.0788 10.8972 75.3795 11.169 74.9465 11.7058C74.5056 12.2423 74.2917 13.1257 74.2917 14.355V20.6872H70.6992V4L74.2917 4.00018ZM92.514 15.0742C92.2916 15.1426 92.0449 15.2004 91.7908 15.2504C91.5188 15.2973 91.2454 15.3362 90.9708 15.3671C90.6859 15.3978 90.4019 15.436 90.1194 15.4817C89.8517 15.5304 89.5841 15.5912 89.3292 15.6705C89.0699 15.7491 88.8424 15.8536 88.6552 15.9855C88.4621 16.119 88.3029 16.2903 88.189 16.4872C88.0741 16.6887 88.0128 16.9504 88.0128 17.2597C88.0128 17.5549 88.0741 17.804 88.1888 18.0086C88.3072 18.2113 88.4615 18.3698 88.6641 18.487C88.8662 18.6042 89.1031 18.6865 89.3669 18.7323C89.6345 18.7816 89.9111 18.8001 90.1946 18.8001C90.8977 18.8001 91.44 18.6917 91.8264 18.4744C92.2108 18.2557 92.5005 17.9948 92.6813 17.6906C92.8658 17.3864 92.9772 17.0797 93.0131 16.7705C93.0603 16.4594 93.0816 16.2085 93.0816 16.0203V14.779C92.9265 14.9064 92.7441 15.0046 92.514 15.0742ZM85.4747 10.3726C85.8323 9.86319 86.313 9.43814 86.8786 9.13119C87.4495 8.81715 88.0873 8.59589 88.8042 8.46346C89.5128 8.32891 90.2345 8.26181 90.9579 8.26319C91.6099 8.26319 92.2696 8.305 92.9491 8.39114C93.6175 8.47679 94.2288 8.6447 94.7832 8.89485C95.337 9.14644 95.7884 9.49063 96.1378 9.93979C96.4923 10.3776 96.672 10.9707 96.672 11.7058V18.0028C96.672 18.5503 96.7073 19.0706 96.7702 19.5687C96.8412 20.0712 97.0249 20.448 97.1983 20.6953L93.5453 20.687C93.438 20.5426 93.3492 20.3163 93.3075 20.1193C93.2644 19.9231 93.235 19.7246 93.2195 19.5249C92.6505 20.0712 91.9836 20.4552 91.2064 20.6743C90.44 20.8904 89.6434 21.0002 88.8424 21C88.2236 21 87.6473 20.9271 87.108 20.7865C86.5768 20.6458 86.1049 20.4279 85.7027 20.1333C85.2985 19.8329 84.9877 19.4603 84.7609 19.0092C84.5358 18.5555 84.4196 18.0156 84.4196 17.3922C84.4196 16.704 84.5528 16.1374 84.8156 15.6938C85.0717 15.2504 85.4043 14.8935 85.8202 14.6294C86.2293 14.3632 86.699 14.163 87.231 14.0325C87.7555 13.9001 88.2873 13.7942 88.8241 13.7151C89.3628 13.6384 89.8871 13.5763 90.411 13.5281C90.936 13.4805 91.3909 13.4129 91.7971 13.3178C92.1978 13.2252 92.5189 13.0845 92.7544 12.9065C92.9859 12.7279 93.0973 12.4681 93.0816 12.1221C93.0816 11.7646 93.0131 11.4796 92.8896 11.2666C92.7727 11.0659 92.6011 10.8972 92.3918 10.7775C92.181 10.6596 91.9432 10.5824 91.6693 10.5411C91.3751 10.5019 91.0782 10.4824 90.7809 10.4828C90.0811 10.4828 89.5272 10.6273 89.1346 10.9049C88.7311 11.1906 88.499 11.6607 88.4272 12.3171H84.8396C84.8914 11.5335 85.0991 10.8864 85.4747 10.3726ZM102.036 8.60791V10.292H102.116C102.568 9.59202 103.152 9.0831 103.877 8.76762C104.596 8.44946 105.341 8.29226 106.096 8.29226C107.056 8.29226 107.843 8.4089 108.452 8.64901C109.071 8.8936 109.552 9.2245 109.901 9.65464C110.259 10.083 110.505 10.6057 110.648 11.2216C110.793 11.8362 110.865 12.5144 110.865 13.2619V20.6872H107.27V13.8645C107.27 12.8698 107.101 12.1221 106.766 11.6329C106.426 11.143 105.839 10.829 104.978 10.829C104.005 10.829 103.296 11.169 102.86 11.7058C102.422 12.2423 102.205 13.1257 102.205 14.355V20.6872H98.6487V8.60791H102.036ZM118.823 10.7687C118.248 10.7687 117.773 10.8864 117.391 11.1312C117.002 11.3725 116.677 11.6926 116.44 12.0675C116.197 12.4483 116.028 12.8697 115.923 13.331C115.826 13.7917 115.771 14.248 115.771 14.7017C115.771 15.1401 115.826 15.5844 115.923 16.038C116.028 16.4892 116.188 16.8965 116.415 17.2678C116.643 17.63 116.959 17.9379 117.337 18.167C117.722 18.4021 118.19 18.5193 118.745 18.5193C119.606 18.5193 120.265 18.2962 120.728 17.8546C121.188 17.4105 121.473 16.8136 121.593 16.0658H125.047C124.81 17.6683 124.138 18.8925 123.032 19.7365C121.923 20.5749 120.502 21 118.771 21C117.794 21 116.905 20.8455 116.086 20.5424C115.268 20.2352 114.573 19.812 114.001 19.2658C113.429 18.7183 112.985 18.0676 112.66 17.311C112.342 16.5531 112.183 15.7211 112.183 14.8183C112.183 13.883 112.331 13.0118 112.625 12.2064C112.918 11.4043 113.351 10.7091 113.928 10.1261C114.5 9.53926 115.199 9.0831 116.026 8.75488C116.849 8.42721 117.79 8.26319 118.847 8.26319C119.62 8.26319 120.362 8.36009 121.079 8.54134C121.79 8.72635 122.43 9.01221 122.991 9.39552C123.552 9.77446 124.022 10.2587 124.368 10.8168C124.717 11.3826 124.916 12.0605 124.971 12.8356H121.465C121.232 11.4567 120.352 10.7687 118.823 10.7687ZM59.0848 5.11959H66.3742V6.76658H59.0848V5.11959ZM134.578 11.4416C134.147 11.005 133.422 10.7687 132.555 10.7687C131.984 10.7687 131.509 10.858 131.124 11.0398C130.753 11.2193 130.414 11.4429 130.187 11.7058C129.96 11.9731 129.797 12.2551 129.702 12.5567C129.617 12.8508 129.558 13.1175 129.542 13.3533H135.405C135.309 12.5066 135.005 11.8813 134.578 11.4416M130.424 17.7895C130.962 18.2747 131.773 18.5193 132.783 18.5193C133.503 18.5193 134.125 18.3501 134.645 18.0123C135.164 17.6759 135.487 17.3154 135.601 16.9416H138.751C138.247 18.3958 137.474 19.4343 136.433 20.0591C135.394 20.687 134.136 21 132.659 21C131.631 21 130.704 20.8455 129.882 20.5424C129.055 20.2352 128.362 19.8043 127.782 19.243C127.209 18.679 126.769 18.0123 126.456 17.2299C126.145 16.4511 125.991 15.5887 125.991 14.6541C125.991 13.7506 126.151 12.9065 126.469 12.1266C126.791 11.344 127.249 10.6685 127.836 10.102C128.431 9.53244 129.126 9.0831 129.94 8.75488C130.758 8.42721 131.667 8.26319 132.659 8.26319C133.759 8.26319 134.728 8.45969 135.547 8.86076C136.373 9.25555 137.052 9.79085 137.579 10.4614C138.109 11.131 138.491 11.8965 138.725 12.7545C138.956 13.6117 139.045 14.5071 138.979 15.445H129.542C129.542 16.3998 129.885 17.3041 130.424 17.7895Z" fill="white"/>
<circle cx="12.5" cy="12.5" r="12.5" fill="#0055F9"/>
</svg>
