<svg width="40" height="40" viewBox="0 0 40 40" fill="none" xmlns="http://www.w3.org/2000/svg">
<rect width="40" height="40" rx="20" fill="#5B5B5B"/>
<path d="M22.6601 9C21.2099 9 19.8191 9.5874 18.7937 10.633C17.7682 11.6786 17.1921 13.0967 17.1921 14.5753V17.6795H14.266C14.1194 17.6795 14 17.8 14 17.9507V22.0493C14 22.1988 14.1182 22.3205 14.266 22.3205H17.1921V30.7288C17.1921 30.8782 17.3103 31 17.4581 31H21.4778C21.6244 31 21.7438 30.8795 21.7438 30.7288V22.3205H24.696C24.8177 22.3205 24.9241 22.2362 24.9537 22.1156L25.9586 18.017C25.9685 17.977 25.9693 17.9352 25.961 17.8949C25.9527 17.8545 25.9354 17.8166 25.9106 17.7841C25.8857 17.7515 25.8539 17.7252 25.8176 17.707C25.7812 17.6889 25.7413 17.6795 25.7009 17.6795H21.7438V14.5753C21.7438 14.4527 21.7675 14.3312 21.8136 14.2178C21.8596 14.1045 21.9271 14.0015 22.0122 13.9147C22.0973 13.828 22.1983 13.7592 22.3095 13.7122C22.4206 13.6653 22.5398 13.6411 22.6601 13.6411H25.734C25.8806 13.6411 26 13.5205 26 13.3699V9.27123C26 9.12175 25.8818 9 25.734 9H22.6601Z" fill="#222222"/>
</svg>
