<svg width="56" height="56" viewBox="0 0 56 56" fill="none" xmlns="http://www.w3.org/2000/svg">
<g clip-path="url(#clip0_3216_2472)">
<circle cx="28" cy="28" r="27.5" fill="#5E00CF" stroke="#5E00CF"/>
<path d="M33.8333 22.1668V34.4168C33.8333 37.9635 30.9633 40.8335 27.4167 40.8335C23.87 40.8335 21 37.9635 21 34.4168V21.0002C21 18.4218 23.0883 16.3335 25.6667 16.3335C28.245 16.3335 30.3333 18.4218 30.3333 21.0002V33.2502C30.3333 34.0237 30.026 34.7656 29.4791 35.3126C28.9321 35.8595 28.1902 36.1668 27.4167 36.1668C26.6431 36.1668 25.9013 35.8595 25.3543 35.3126C24.8073 34.7656 24.5 34.0237 24.5 33.2502V22.1668H25.6667V33.2502C25.6667 33.7143 25.851 34.1594 26.1792 34.4876C26.5074 34.8158 26.9525 35.0002 27.4167 35.0002C27.8808 35.0002 28.3259 34.8158 28.6541 34.4876C28.9823 34.1594 29.1667 33.7143 29.1667 33.2502V21.0002C29.1667 20.0719 28.7979 19.1817 28.1415 18.5253C27.4852 17.8689 26.5949 17.5002 25.6667 17.5002C24.7384 17.5002 23.8482 17.8689 23.1918 18.5253C22.5354 19.1817 22.1667 20.0719 22.1667 21.0002V34.4168C22.1667 35.8092 22.7198 37.1446 23.7044 38.1291C24.6889 39.1137 26.0243 39.6668 27.4167 39.6668C28.8091 39.6668 30.1444 39.1137 31.129 38.1291C32.1135 37.1446 32.6667 35.8092 32.6667 34.4168V22.1668H33.8333Z" fill="#FAFAFA"/>
</g>
<defs>
<clipPath id="clip0_3216_2472">
<rect width="56" height="56" fill="white"/>
</clipPath>
</defs>
</svg>
