<svg width="40" height="40" viewBox="0 0 40 40" fill="none" xmlns="http://www.w3.org/2000/svg">
<rect width="40" height="40" rx="20" fill="#5B5B5B"/>
<path d="M24.8499 8H15.1489C13.2534 8.00223 11.4361 8.75629 10.0959 10.0968C8.75567 11.4372 8.00191 13.2546 8 15.1501L8 24.8511C8.00223 26.7466 8.75629 28.5639 10.0968 29.9041C11.4372 31.2443 13.2546 31.9981 15.1501 32H24.8511C26.7466 31.9978 28.5639 31.2437 29.9041 29.9032C31.2443 28.5628 31.9981 26.7454 32 24.8499V15.1489C31.9978 13.2534 31.2437 11.4361 29.9032 10.0959C28.5628 8.75567 26.7454 8.00191 24.8499 8ZM29.5862 24.8499C29.5862 25.4719 29.4637 26.0878 29.2256 26.6624C28.9876 27.237 28.6388 27.7591 28.1989 28.1989C27.7591 28.6388 27.237 28.9876 26.6624 29.2256C26.0877 29.4637 25.4719 29.5862 24.8499 29.5862H15.1489C13.893 29.5859 12.6886 29.0867 11.8006 28.1985C10.9127 27.3103 10.4138 26.1058 10.4138 24.8499V15.1489C10.4141 13.893 10.9133 12.6886 11.8015 11.8006C12.6897 10.9127 13.8942 10.4138 15.1501 10.4138H24.8511C26.107 10.4141 27.3114 10.9133 28.1994 11.8015C29.0873 12.6897 29.5862 13.8942 29.5862 15.1501V24.8499Z" fill="#222222"/>
<path d="M19.9994 13.793C18.3543 13.7955 16.7772 14.4503 15.6141 15.6137C14.4509 16.7771 13.7964 18.3543 13.7942 19.9994C13.7961 21.645 14.4506 23.2227 15.6141 24.3864C16.7775 25.5501 18.3551 26.2049 20.0006 26.2071C21.6464 26.2052 23.2243 25.5506 24.388 24.3868C25.5518 23.2231 26.2064 21.6452 26.2083 19.9994C26.2058 18.3539 25.5507 16.7765 24.3867 15.6132C23.2228 14.4499 21.645 13.7958 19.9994 13.7942V13.793ZM19.9994 23.7933C18.9936 23.7933 18.0289 23.3937 17.3176 22.6824C16.6064 21.9712 16.2068 21.0065 16.2068 20.0006C16.2068 18.9948 16.6064 18.0301 17.3176 17.3188C18.0289 16.6076 18.9936 16.208 19.9994 16.208C21.0053 16.208 21.97 16.6076 22.6812 17.3188C23.3925 18.0301 23.7921 18.9948 23.7921 20.0006C23.7921 21.0065 23.3925 21.9712 22.6812 22.6824C21.97 23.3937 21.0053 23.7933 19.9994 23.7933Z" fill="#222222"/>
<path d="M26.2192 15.327C27.0404 15.327 27.7062 14.6613 27.7062 13.84C27.7062 13.0188 27.0404 12.353 26.2192 12.353C25.3979 12.353 24.7322 13.0188 24.7322 13.84C24.7322 14.6613 25.3979 15.327 26.2192 15.327Z" fill="#222222"/>
</svg>
