<svg width="40" height="40" viewBox="0 0 40 40" fill="none" xmlns="http://www.w3.org/2000/svg">
<rect width="40" height="40" rx="20" fill="#5B5B5B"/>
<path d="M15.1973 12.112C15.197 12.6719 14.9756 13.2087 14.5819 13.6044C14.1881 14.0001 13.6542 14.2223 13.0976 14.222C12.541 14.2217 12.0073 13.999 11.6139 13.6029C11.2206 13.2069 10.9997 12.6698 11 12.1099C11.0003 11.5501 11.2217 11.0132 11.6154 10.6175C12.0092 10.2219 12.5431 9.99972 13.0997 10C13.6563 10.0003 14.19 10.223 14.5833 10.619C14.9767 11.0151 15.1976 11.5522 15.1973 12.112ZM15.2602 15.7852H11.063V29H15.2602V15.7852ZM21.8919 15.7852H17.7156V29H21.8499V22.0654C21.8499 18.2023 26.8552 17.8434 26.8552 22.0654V29H31V20.6299C31 14.1175 23.5918 14.3603 21.8499 17.5584L21.8919 15.7852Z" fill="#222222"/>
</svg>
