<svg width="120" height="80" viewBox="0 0 120 80" fill="none" xmlns="http://www.w3.org/2000/svg">
<path d="M44.5163 25.5086H53.1443V27.7315H47.0212V29.9067H49.8044C51.0814 29.9067 52.091 30.2084 52.8332 30.8117C53.5754 31.4045 53.9465 32.2196 53.9465 33.2569C53.9465 34.3049 53.5754 35.1305 52.8332 35.7339C52.091 36.3266 51.0814 36.623 49.8044 36.623H44.5163V25.5086ZM49.608 34.543C50.1319 34.543 50.5466 34.4266 50.8522 34.1937C51.1687 33.9502 51.327 33.6274 51.327 33.2252C51.327 32.8335 51.1687 32.5213 50.8522 32.2884C50.5466 32.0449 50.1319 31.9232 49.608 31.9232H47.0212V34.543H49.608Z" fill="white"/>
<path d="M59.2383 36.8612C58.5179 36.8612 57.8685 36.7183 57.29 36.4325C56.7224 36.1361 56.2749 35.7233 55.9475 35.194C55.631 34.6647 55.4727 34.0614 55.4727 33.3839V32.8123H58.0431V33.4316C58.0431 33.8126 58.1468 34.1249 58.3542 34.3684C58.5725 34.6012 58.8562 34.7177 59.2055 34.7177C59.4893 34.7177 59.7076 34.6489 59.8604 34.5113C60.0241 34.3631 60.106 34.1725 60.106 33.9397C60.106 33.6433 60.0077 33.3469 59.8113 33.0505L54.6868 25.5086H57.8139L61.252 31.0658C61.3066 31.1505 61.3557 31.2404 61.3994 31.3357C61.443 31.431 61.4812 31.5262 61.514 31.6215L63.3967 25.5086H66.0817L63.233 33.5904C62.851 34.6912 62.3326 35.5116 61.6777 36.0514C61.0337 36.5912 60.2206 36.8612 59.2383 36.8612Z" fill="white"/>
<path d="M66.6777 34.2255H68.0038C68.2002 33.3257 68.3367 32.4101 68.4131 31.4786C68.4895 30.5365 68.5277 29.3827 68.5277 28.0173C68.5277 27.9326 68.5277 27.8426 68.5277 27.7473C68.5277 27.6521 68.5277 27.5568 68.5277 27.4615V25.5086H77.7615V34.2255H79.3332V38.9412H76.8283V36.623H69.1826V38.9412H66.6777V34.2255ZM75.1911 34.3049V27.7791H71.0981V28.3348C71.0872 29.5733 71.0381 30.6583 70.9507 31.5898C70.8634 32.5107 70.7215 33.4157 70.5251 34.3049H75.1911Z" fill="white"/>
<path d="M81.5131 25.5086H84.0835V29.3827H86.1955C87.5816 29.3827 88.6676 29.7056 89.4535 30.3513C90.2503 30.9864 90.6487 31.8703 90.6487 33.0029C90.6487 33.7438 90.4686 34.3895 90.1084 34.94C89.7482 35.4798 89.2297 35.8979 88.553 36.1943C87.8872 36.4801 87.1014 36.623 86.1955 36.623H81.5131V25.5086ZM86.1627 34.4319C86.7303 34.4319 87.1832 34.2943 87.5216 34.0191C87.86 33.7438 88.0291 33.3734 88.0291 32.9076C88.0291 32.4524 87.86 32.0873 87.5216 31.812C87.1832 31.5368 86.7303 31.3992 86.1627 31.3992H84.0835V34.4319H86.1627Z" fill="white"/>
<path d="M47.7907 54.7236C47.0703 54.7236 46.4209 54.5807 45.8424 54.2949C45.2748 53.9986 44.8273 53.5857 44.4999 53.0565C44.1834 52.5272 44.0251 51.9239 44.0251 51.2464V50.6748H46.5955V51.2941C46.5955 51.6751 46.6992 51.9874 46.9066 52.2308C47.1249 52.4637 47.4087 52.5801 47.7579 52.5801C48.0417 52.5801 48.26 52.5113 48.4128 52.3737C48.5765 52.2255 48.6584 52.035 48.6584 51.8021C48.6584 51.5058 48.5601 51.2094 48.3637 50.913L43.2393 43.371H46.3663L49.8044 48.9283C49.859 49.0129 49.9081 49.1029 49.9518 49.1982C49.9954 49.2935 50.0336 49.3887 50.0664 49.484L51.9491 43.371H54.6341L51.7854 51.4528C51.4034 52.5537 50.885 53.374 50.2301 53.9139C49.5861 54.4537 48.773 54.7236 47.7907 54.7236Z" fill="white"/>
<path d="M60.6164 43.371H63.2196V47.7216H64.9386L68.0166 43.371H70.898L67.1325 48.7219L71.1764 54.4855H68.0002L64.9223 50.135H63.2196V54.4855H60.6164V43.371Z" fill="white"/>
<path d="M76.3137 54.7236C75.5933 54.7236 74.9439 54.5807 74.3654 54.2949C73.7979 53.9986 73.3504 53.5857 73.0229 53.0565C72.7064 52.5272 72.5482 51.9239 72.5482 51.2464V50.6748H75.1186V51.2941C75.1186 51.6751 75.2222 51.9874 75.4296 52.2308C75.6479 52.4637 75.9317 52.5801 76.281 52.5801C76.5647 52.5801 76.783 52.5113 76.9358 52.3737C77.0996 52.2255 77.1814 52.035 77.1814 51.8021C77.1814 51.5058 77.0832 51.2094 76.8867 50.913L71.7623 43.371H74.8893L78.3275 48.9283C78.382 49.0129 78.4312 49.1029 78.4748 49.1982C78.5185 49.2935 78.5567 49.3887 78.5894 49.484L80.4722 43.371H83.1572L80.3085 51.4528C79.9265 52.5537 79.408 53.374 78.7531 53.9139C78.1092 54.4537 77.296 54.7236 76.3137 54.7236Z" fill="white"/>
<path d="M85.0465 43.371H89.6143C91.0223 43.371 92.1301 43.6939 92.9378 44.3396C93.7455 44.9747 94.1493 45.8586 94.1493 46.9912C94.1493 48.1132 93.7455 48.9971 92.9378 49.6428C92.1301 50.2885 91.0223 50.6113 89.6143 50.6113H87.6333V54.4855H85.0465V43.371ZM89.647 48.5948C90.2146 48.5948 90.6675 48.4572 91.0059 48.182C91.3552 47.9068 91.5298 47.5363 91.5298 47.0706C91.5298 46.6048 91.3606 46.2343 91.0223 45.9591C90.6839 45.6839 90.2255 45.5463 89.647 45.5463H87.6333V48.5948H89.647Z" fill="white"/>
<path d="M101.506 54.7236C100.371 54.7236 99.356 54.4749 98.461 53.9774C97.566 53.4799 96.862 52.7919 96.349 51.9133C95.847 51.0241 95.5959 50.0238 95.5959 48.9124C95.5959 47.8115 95.847 46.8218 96.349 45.9432C96.862 45.0647 97.566 44.3766 98.461 43.8791C99.356 43.3816 100.371 43.1329 101.506 43.1329C102.51 43.1329 103.422 43.3393 104.24 43.7521C105.07 44.1544 105.736 44.7207 106.238 45.451C106.751 46.1814 107.045 47.0018 107.122 47.9121H104.47C104.371 47.4463 104.18 47.0388 103.897 46.6895C103.624 46.3296 103.28 46.0544 102.865 45.8639C102.45 45.6627 101.992 45.5622 101.49 45.5622C100.868 45.5622 100.311 45.7051 99.8199 45.9909C99.3396 46.2767 98.9631 46.6736 98.6902 47.1817C98.4174 47.6898 98.2809 48.272 98.2809 48.9283C98.2809 49.5845 98.4174 50.1667 98.6902 50.6748C98.9631 51.1829 99.3396 51.5799 99.8199 51.8657C100.311 52.1514 100.868 52.2943 101.49 52.2943C102.003 52.2943 102.467 52.1991 102.881 52.0086C103.296 51.8074 103.64 51.5322 103.913 51.1829C104.186 50.823 104.371 50.4102 104.47 49.9444H107.122C107.034 50.8548 106.734 51.6751 106.221 52.4055C105.719 53.1359 105.053 53.7075 104.224 54.1203C103.405 54.5225 102.499 54.7236 101.506 54.7236Z" fill="white"/>
<path d="M109.381 43.371H112V54.4855H109.381V43.371Z" fill="white"/>
<path d="M23.48 47.143L31.4183 51.0507V31.3486L35.1901 33.291V57.001L23.48 51.2373V59.5008H19.7082V51.2373L7.99805 57.001V33.2376L11.7698 31.3714V51.0507L19.7082 47.143V20.5003H23.48V47.143Z" fill="white"/>
</svg>
