<svg width="164" height="80" viewBox="0 0 164 80" fill="none" xmlns="http://www.w3.org/2000/svg">
<path d="M125.48 38.3546H123.098C123.089 38.3546 123.08 38.3526 123.072 38.3488C123.064 38.345 123.057 38.3395 123.051 38.3326C122.935 38.1966 122.841 38.0239 122.734 37.9068C122.451 37.5947 122.111 37.2408 121.753 37.0087C121.703 36.9765 121.58 36.9002 121.384 36.7796C121.245 36.6947 121.118 36.6269 121.001 36.5764C119.913 36.1045 118.774 35.9742 117.585 36.1855C117.247 36.2453 116.953 36.3525 116.651 36.4554C116.409 36.5381 116.081 36.7021 115.9 36.8089C115.441 37.0799 115.028 37.4214 114.66 37.8336C114.597 37.9045 114.46 38.0954 114.25 38.4063C114.166 38.5307 114.133 38.6383 114.064 38.7606C114.02 38.8378 113.981 38.9291 113.946 39.0345C113.916 39.1266 113.853 39.2726 113.825 39.4142C113.772 39.6876 113.722 39.8469 113.706 40.0811C113.679 40.5209 113.718 40.9447 113.826 41.3526C113.857 41.4697 113.885 41.5571 113.911 41.6148C113.963 41.7323 113.979 41.8382 114.037 41.9579C114.284 42.4666 114.593 42.9001 114.965 43.2586C115.071 43.3602 115.227 43.4903 115.434 43.6487C115.593 43.7707 115.764 43.8821 115.944 43.9828C116.361 44.2162 116.794 44.3907 117.243 44.5064C117.502 44.5733 117.846 44.6308 118.274 44.679C118.406 44.694 118.689 44.6905 119.124 44.6687C119.288 44.6607 119.425 44.6433 119.537 44.6166C119.716 44.574 119.891 44.5679 120.082 44.5115C120.45 44.4033 120.708 44.3151 120.857 44.2468C121.083 44.1434 121.426 43.9721 121.695 43.796C122.277 43.4148 122.744 42.928 123.095 42.3355C123.096 42.3339 123.097 42.3326 123.099 42.3317C123.1 42.3308 123.102 42.3303 123.104 42.3304H125.469C125.476 42.3304 125.483 42.3322 125.489 42.3357C125.496 42.3391 125.501 42.3441 125.505 42.3501C125.508 42.3561 125.511 42.363 125.511 42.3701C125.512 42.3771 125.51 42.3842 125.507 42.3906C125.221 42.9905 124.877 43.5549 124.475 44.0836C124.34 44.2612 124.214 44.4033 124.099 44.5098C123.946 44.6519 123.745 44.8745 123.551 45.0342C123.024 45.4694 122.449 45.8186 121.825 46.0818C121.723 46.1248 121.525 46.1953 121.233 46.2932C120.608 46.5024 119.954 46.6036 119.287 46.6536C119.159 46.6633 119.031 46.6668 118.901 46.6639C118.646 46.6583 118.393 46.6734 118.119 46.6467C117.981 46.6332 117.849 46.6203 117.723 46.6079C117.111 46.5482 116.482 46.4047 115.835 46.1774C115.596 46.0934 115.394 45.9832 115.153 45.8829C115.084 45.8542 114.995 45.8107 114.888 45.7524C114.553 45.5716 114.218 45.3554 113.88 45.104C113.698 44.9679 113.543 44.8336 113.417 44.701C113.242 44.5171 113.014 44.3165 112.847 44.1116C112.543 43.7373 112.275 43.3257 112.043 42.8767C111.996 42.786 111.964 42.7059 111.946 42.6365C111.918 42.5237 111.854 42.4341 111.814 42.3166C111.52 41.4434 111.424 40.551 111.527 39.6394C111.541 39.5226 111.589 39.2618 111.672 38.8571C111.718 38.6302 111.788 38.4644 111.886 38.182C111.929 38.0588 111.986 37.9246 112.058 37.7794C112.168 37.5584 112.234 37.4281 112.259 37.3884C112.509 36.9877 112.744 36.6628 112.966 36.4137C113.277 36.0629 113.611 35.7574 113.967 35.497C114.575 35.0533 115.201 34.7203 115.847 34.4981C116.315 34.3371 116.695 34.229 116.99 34.1739C117.146 34.1446 117.357 34.1132 117.623 34.0796C118.001 34.032 118.331 34.0056 118.613 34.0004C118.837 33.9961 119.027 34.028 119.243 34.0206C119.297 34.0189 119.381 34.0252 119.495 34.0396C119.646 34.0585 119.915 34.097 120.302 34.155C120.532 34.1894 120.696 34.2441 121.005 34.3237C121.34 34.4094 121.721 34.5562 122.045 34.7199C122.27 34.8335 122.501 34.9313 122.711 35.063C123.055 35.2792 123.298 35.4495 123.442 35.5741C123.61 35.7208 123.72 35.8149 123.769 35.8565C124.014 36.0619 124.232 36.3241 124.403 36.5209C124.865 37.0539 125.195 37.686 125.492 38.3365C125.493 38.3384 125.493 38.3405 125.493 38.3426C125.493 38.3447 125.492 38.3468 125.491 38.3486C125.49 38.3504 125.488 38.3519 125.487 38.353C125.485 38.354 125.482 38.3546 125.48 38.3546Z" fill="white"/>
<path d="M13.1768 35.2495C13.4138 34.9751 13.7008 34.7387 14.0378 34.5403C14.3454 34.3595 14.7234 34.1985 15.0949 34.1167C15.4321 34.0421 15.7685 34.0092 16.104 34.0181C16.3728 34.0254 16.5663 34.0809 16.8397 34.1318C17.0156 34.1645 17.1918 34.2454 17.3707 34.2997C17.4114 34.3117 17.4505 34.3289 17.4869 34.3509C17.604 34.4207 17.7629 34.4788 17.8869 34.5597C18.8607 35.1961 19.5177 36.1545 19.6435 37.3247C19.6717 37.5865 19.6679 37.8838 19.6322 38.2164C19.6014 38.5043 19.5296 38.7918 19.4167 39.0788C19.0353 40.0487 18.3567 40.7432 17.3806 41.1623C17.124 41.2725 16.9503 41.3423 16.7058 41.3362C16.6959 41.336 16.6861 41.3393 16.6784 41.3456C16.6706 41.3519 16.6653 41.3608 16.6635 41.3707C16.5996 41.72 16.5368 42.0257 16.4751 42.2878C16.4293 42.4819 16.3347 42.6593 16.2928 42.8544C16.2885 42.8755 16.2814 42.8961 16.2717 42.9155C16.0372 43.3937 15.8963 43.6723 15.8487 43.7512C15.3194 44.6318 14.6138 45.3311 13.7319 45.8489C13.5518 45.9548 13.3012 46.0654 13.1331 46.1541C13.0076 46.2204 12.9071 46.2624 12.8316 46.2799C12.7085 46.3087 12.5776 46.3729 12.4169 46.4181C11.8132 46.5883 11.2032 46.6704 10.5869 46.6644C10.4084 46.6623 10.0868 46.6283 9.62225 46.5623C9.39559 46.5299 9.03458 46.4303 8.53921 46.2635C8.45583 46.2351 8.40183 46.1938 8.32796 46.1408C8.30876 46.1273 8.28599 46.1198 8.26253 46.1191C8.23908 46.1185 8.21599 46.1249 8.1962 46.1374C8.05796 46.2249 7.92389 46.3025 7.794 46.3703C7.44782 46.5503 7.08955 46.6477 6.71918 46.6626C6.464 46.673 6.17917 46.6361 5.86467 46.552C5.09181 46.3449 4.36777 45.6414 4.13708 44.8737C4.06796 44.6429 4.03225 44.5192 4.02995 44.5025C3.9591 43.9933 4.01396 43.5146 4.19454 43.0662C4.32933 42.7308 4.55829 42.4238 4.83261 42.1629C4.86688 42.1299 4.8918 42.0904 4.90735 42.0445C4.91021 42.0361 4.91131 42.0271 4.91056 42.0183C4.90982 42.0094 4.90726 42.0007 4.90303 41.9928C4.85407 41.9001 4.81677 41.7211 4.79114 41.4559C4.72979 40.813 4.74419 40.2143 4.83434 39.6601C4.86199 39.4907 4.93226 39.219 5.04516 38.845C5.0777 38.7371 5.11269 38.644 5.15013 38.5656C5.21234 38.4352 5.2387 38.3129 5.30004 38.1983C5.34209 38.12 5.37852 38.0469 5.40934 37.9792C5.48839 37.8052 5.59726 37.6657 5.69403 37.497C5.74126 37.4137 5.80001 37.3262 5.87029 37.2343C6.02754 37.0285 6.20221 36.8197 6.39431 36.6079C6.57143 36.412 6.75546 36.2729 6.95246 36.0994C7.04404 36.019 7.12224 35.9554 7.18704 35.9087C7.82756 35.4474 8.53489 35.1206 9.30904 34.9283C9.31164 34.9277 9.48602 34.8948 9.8322 34.8297C10.0162 34.7949 10.1922 34.7751 10.3601 34.7703C10.776 34.7585 11.1394 34.7683 11.4505 34.7995C11.6829 34.8228 11.8955 34.9007 12.1123 34.9291C12.3123 34.9554 12.5599 35.0846 12.7729 35.1126C12.7952 35.1157 12.8164 35.1246 12.8342 35.1384C12.8967 35.1872 12.9855 35.2311 13.1007 35.2701C13.1141 35.2746 13.1284 35.275 13.1419 35.2713C13.1554 35.2676 13.1676 35.26 13.1768 35.2495ZM12.721 35.9444C12.7247 35.9412 12.7275 35.9371 12.729 35.9325C12.7306 35.9279 12.7309 35.923 12.7298 35.9182C12.7288 35.9135 12.7266 35.9091 12.7233 35.9055C12.72 35.9019 12.7157 35.8993 12.7111 35.8979C12.5582 35.8527 12.4281 35.7782 12.2709 35.7351C11.7539 35.5939 11.2862 35.52 10.8677 35.5134C10.6154 35.5094 10.3443 35.5204 10.0543 35.5466C9.83263 35.5668 9.62009 35.6331 9.41964 35.6718C9.11723 35.7304 8.71849 35.8983 8.45929 36.0116C8.30578 36.0784 8.04802 36.2337 7.686 36.4774C7.51637 36.5917 7.3368 36.739 7.14729 36.9196C6.94396 37.1136 6.805 37.2547 6.73041 37.3428C6.4941 37.6227 6.21243 38.0339 6.03142 38.4128C5.87389 38.7426 5.75753 39.0444 5.68236 39.3182C5.52252 39.9021 5.48278 40.4786 5.51215 41.0796C5.53116 41.4711 5.60792 41.8852 5.74241 42.3218C5.78086 42.4453 5.83227 42.522 5.87029 42.6486C5.8867 42.7037 5.91953 42.7833 5.96878 42.8875C6.11739 43.2027 6.31496 43.5282 6.56149 43.864C6.66633 44.007 6.78614 44.1469 6.92092 44.2838C7.12684 44.4928 7.26005 44.6222 7.32053 44.6722C8.29196 45.4773 9.41949 45.8954 10.7031 45.9264C10.7688 45.9281 10.8247 45.9252 10.8707 45.9178C11.0116 45.8949 11.1537 45.9079 11.2976 45.8889C11.7143 45.8338 12.1073 45.7444 12.4765 45.6207C12.5564 45.594 12.6273 45.544 12.7033 45.5212C12.8631 45.4727 13.0195 45.4037 13.1725 45.3141C13.4633 45.1436 13.7151 44.9787 13.9276 44.8194C14.176 44.633 14.4948 44.2838 14.6607 44.1215C14.6996 44.0833 14.7401 44.0355 14.7821 43.9781C14.8858 43.8373 14.9791 43.7323 15.0582 43.5971C15.1212 43.4897 15.1837 43.3918 15.2457 43.3034C15.3938 43.092 15.4729 42.8638 15.5865 42.593C15.6997 42.3239 15.7489 42.0867 15.8353 41.7797C15.863 41.6807 15.8744 41.5855 15.8695 41.4942C15.8687 41.4808 15.8627 41.4682 15.8528 41.459C15.8429 41.4499 15.8298 41.4449 15.8163 41.4452C15.3057 41.4538 14.802 41.3044 14.3484 41.1093C14.1926 41.0424 14.016 40.9381 13.8187 40.7963C13.5587 40.6095 13.3964 40.482 13.3319 40.414C13.0879 40.1574 12.8755 39.8766 12.6947 39.5718C12.5103 39.2615 12.3805 38.935 12.305 38.5923C12.1947 38.09 12.1814 37.5804 12.2653 37.0634C12.3041 36.8244 12.4031 36.5975 12.4588 36.3737C12.4594 36.3708 12.4604 36.368 12.4618 36.3655L12.6368 36.021C12.6396 36.0151 12.6439 36.0096 12.6493 36.0051L12.721 35.9444Z" fill="white"/>
<path d="M28.1322 46.3285C28.1282 46.3285 28.1242 46.3277 28.1205 46.3262C28.1168 46.3246 28.1134 46.3224 28.1105 46.3195C28.1077 46.3167 28.1054 46.3133 28.1039 46.3096C28.1024 46.3059 28.1016 46.3019 28.1016 46.2979V34.3001C28.1015 34.2969 28.1026 34.2939 28.1047 34.2915C28.1067 34.289 28.1096 34.2873 28.1128 34.2867C28.1972 34.273 28.262 34.2661 28.3072 34.2661C28.9785 34.2649 31.4735 34.2642 35.7921 34.2639C36.375 34.2639 36.8174 34.2786 37.1192 34.3078C37.4861 34.3431 37.9526 34.4498 38.5185 34.6277C38.5326 34.632 38.7068 34.7082 39.0412 34.8564C39.2227 34.9367 39.3884 35.0284 39.5385 35.1315C39.7795 35.2965 39.9755 35.4409 40.1264 35.5646C40.2685 35.6804 40.3878 35.832 40.5122 35.9853C40.9226 36.4922 41.1776 37.0754 41.2773 37.7351C41.292 37.8324 41.2989 37.9241 41.298 38.0102C41.2967 38.1368 41.3222 38.2573 41.317 38.3774C41.2954 38.8756 41.2872 39.3053 41.1611 39.7445C41.0917 39.9859 41.0161 40.2031 40.9343 40.3963C40.8582 40.5763 40.7486 40.7693 40.6055 40.9754C40.4673 41.1743 40.3207 41.3411 40.1657 41.4757C39.9572 41.6565 39.7059 41.8285 39.4119 41.9915C39.3301 42.0372 39.2538 42.069 39.1829 42.0871C39.0805 42.1134 38.992 42.1732 38.8736 42.2094C38.5358 42.3124 38.2502 42.3812 38.0169 42.4156C37.5603 42.4832 37.0734 42.5151 36.5606 42.509C36.5598 42.509 34.5682 42.5089 30.586 42.5086C30.5702 42.5086 30.5274 42.5158 30.4577 42.5301C30.4541 42.5308 30.4508 42.5328 30.4484 42.5357C30.4461 42.5386 30.4448 42.5423 30.4448 42.5461V46.2755C30.4448 46.2896 30.4392 46.3031 30.4292 46.313C30.4192 46.3229 30.4057 46.3285 30.3916 46.3285H28.1322ZM30.4059 36.3642C30.4258 36.911 30.4214 37.4901 30.421 38.2199C30.421 38.3417 30.4409 38.4735 30.4413 38.5931C30.4448 39.2065 30.4442 39.7663 30.4396 40.2723C30.439 40.3378 30.4482 40.394 30.4672 40.4411C30.4698 40.4474 30.4742 40.4529 30.4799 40.4567C30.4856 40.4605 30.4923 40.4626 30.4992 40.4626C34.1355 40.462 35.9649 40.4619 35.9874 40.4622C36.2935 40.4645 36.568 40.4566 36.8108 40.4385C37.055 40.4201 37.3286 40.3914 37.6316 40.3524C38.0709 40.2956 38.5302 39.9602 38.763 39.586C38.8183 39.497 38.8753 39.3347 38.9341 39.0991C38.9635 38.9819 38.9779 38.8113 38.9773 38.5871C38.9768 38.1109 38.9725 37.8487 38.8688 37.4845C38.8118 37.2841 38.7221 37.1148 38.5997 36.9764C38.2623 36.5945 37.8869 36.415 37.3983 36.3568C37.0458 36.3151 36.7408 36.3151 36.4652 36.2996C36.3413 36.2927 36.1949 36.2895 36.0258 36.2901C35.5964 36.2913 35.1512 36.2913 34.6901 36.2901C34.5765 36.2901 34.4192 36.3095 34.3082 36.3095C31.893 36.3095 30.6703 36.3095 30.64 36.3095C30.5744 36.3095 30.5067 36.3151 30.437 36.3263C30.4281 36.3277 30.42 36.3324 30.4142 36.3394C30.4085 36.3463 30.4055 36.3552 30.4059 36.3642Z" fill="white"/>
<path d="M51.9995 34.2634C52.6538 34.2634 53.0583 34.264 53.213 34.2651C53.2861 34.2657 53.3374 34.2973 53.3668 34.3599C53.5096 34.6636 53.6954 35.0139 53.924 35.4109C54.0424 35.6158 54.1599 35.8914 54.2541 36.0502C54.4113 36.316 54.5849 36.6368 54.7747 37.0125C54.944 37.3475 55.119 37.6097 55.2598 37.9016C55.3825 38.1556 55.4961 38.3731 55.6007 38.5539C55.7807 38.8648 55.9071 39.099 55.98 39.2566C56.1376 39.598 56.3584 39.9188 56.5126 40.2434C56.707 40.6529 56.977 41.0886 57.1939 41.5247C57.3853 41.9101 57.6108 42.2601 57.8065 42.6683C57.8788 42.819 57.9719 42.9898 58.086 43.1807C58.2808 43.507 58.4666 43.9359 58.6597 44.2605C58.8891 44.6454 59.0061 44.9309 59.2191 45.305C59.3965 45.6167 59.5528 45.9065 59.6878 46.1743C59.7094 46.2171 59.722 46.2687 59.7254 46.3293C59.7257 46.3334 59.725 46.3374 59.7235 46.3412C59.7219 46.345 59.7195 46.3483 59.7165 46.3511C59.7135 46.3538 59.7099 46.3558 59.706 46.357C59.7021 46.3581 59.6979 46.3584 59.6939 46.3577C59.6239 46.3457 59.5423 46.328 59.4615 46.328C58.6522 46.3289 57.9986 46.3289 57.5006 46.328C57.4427 46.328 57.3624 46.3504 57.3071 46.3332C57.2941 46.3292 57.2826 46.3218 57.2738 46.3117C57.2392 46.2718 57.2044 46.2205 57.1693 46.1579C57.0454 45.9381 56.97 45.8042 56.9429 45.7562C56.7839 45.4742 56.6457 45.156 56.4672 44.8534C56.2703 44.5197 56.0746 44.1193 55.9527 43.8713C55.9164 43.7976 55.865 43.7253 55.8205 43.653C55.8092 43.6347 55.7933 43.6197 55.7745 43.6094C55.7556 43.5991 55.7344 43.5938 55.713 43.594C55.5577 43.596 54.3199 43.597 51.9995 43.597C49.679 43.597 48.4413 43.596 48.2864 43.594C48.2648 43.5937 48.2436 43.599 48.2246 43.6093C48.2057 43.6196 48.1898 43.6347 48.1784 43.653C48.1339 43.7253 48.0825 43.7976 48.0462 43.8713C47.9244 44.1193 47.7287 44.5197 47.5317 44.8534C47.3532 45.156 47.215 45.4742 47.056 45.7562C47.029 45.8042 46.9535 45.9381 46.8297 46.1579C46.7945 46.2205 46.7597 46.2718 46.7251 46.3117C46.7164 46.3218 46.7048 46.3292 46.6918 46.3332C46.6366 46.3504 46.5562 46.328 46.4983 46.328C46.0004 46.3289 45.3467 46.3289 44.5374 46.328C44.4567 46.328 44.375 46.3457 44.305 46.3577C44.301 46.3584 44.2969 46.3581 44.293 46.357C44.289 46.3558 44.2854 46.3538 44.2824 46.3511C44.2794 46.3483 44.277 46.345 44.2755 46.3412C44.2739 46.3374 44.2732 46.3334 44.2735 46.3293C44.2769 46.2687 44.2895 46.2171 44.3111 46.1743C44.4461 45.9065 44.6024 45.6167 44.7798 45.305C44.9928 44.9309 45.1098 44.6454 45.3392 44.2605C45.5323 43.9359 45.7181 43.507 45.9129 43.1807C46.027 42.9898 46.1202 42.819 46.1925 42.6683C46.3881 42.2601 46.6137 41.9101 46.805 41.5247C47.0219 41.0886 47.2919 40.6529 47.4863 40.2434C47.6405 39.9188 47.8613 39.598 48.019 39.2566C48.0918 39.099 48.2183 38.8648 48.3983 38.5539C48.5028 38.3731 48.6164 38.1556 48.7391 37.9016C48.88 37.6097 49.0549 37.3475 49.2243 37.0125C49.4141 36.6368 49.5876 36.316 49.7448 36.0502C49.839 35.8914 49.9565 35.6158 50.0749 35.4109C50.3036 35.0139 50.4893 34.6636 50.6322 34.3599C50.6615 34.2973 50.7128 34.2657 50.786 34.2651C50.9409 34.264 51.3454 34.2634 51.9995 34.2634ZM51.9813 36.5286C51.9795 36.5257 51.9768 36.5235 51.9737 36.5221C51.9705 36.5207 51.9671 36.5203 51.9638 36.5208C51.9604 36.5214 51.9574 36.5229 51.955 36.5252C51.9525 36.5275 51.9509 36.5305 51.9502 36.5337C51.9247 36.6491 51.9018 36.7374 51.8413 36.842C51.6357 37.1982 51.4626 37.521 51.3221 37.8103C51.2327 37.995 51.0814 38.203 51.0071 38.3541C50.8525 38.6699 50.7589 38.8563 50.7263 38.9134C50.4962 39.317 50.3302 39.6256 50.2282 39.8391C50.0701 40.1702 49.8576 40.463 49.7068 40.7958C49.6312 40.9624 49.5301 41.1144 49.4355 41.3009C49.4312 41.3092 49.4292 41.3185 49.4296 41.3279C49.43 41.3373 49.4328 41.3464 49.4378 41.3544C49.4428 41.3624 49.4498 41.369 49.4581 41.3736C49.4664 41.3782 49.4757 41.3805 49.4852 41.3805C51.0133 41.3705 52.6051 41.3696 54.2606 41.3779C54.3144 41.3782 54.402 41.3852 54.5232 41.399C54.5294 41.3997 54.5357 41.399 54.5415 41.3967C54.5474 41.3945 54.5526 41.391 54.5567 41.3863C54.5609 41.3817 54.5639 41.3761 54.5654 41.3701C54.5669 41.364 54.567 41.3577 54.5656 41.3517C54.5574 41.3159 54.5271 41.2246 54.4986 41.1773C54.3487 40.9284 54.2221 40.6331 54.0796 40.3859C53.8018 39.905 53.5711 39.4236 53.2778 38.9018C53.0769 38.544 52.9175 38.2017 52.6881 37.7974C52.5058 37.4758 52.3623 37.1736 52.1939 36.8571C52.126 36.7301 52.0366 36.6173 51.9813 36.5286Z" fill="white"/>
<path d="M65.2167 34.3474C65.2375 34.3371 65.2898 34.3319 65.3736 34.3319C66.2255 34.3328 69.0388 34.3332 73.8136 34.3332C73.8773 34.3332 74.117 34.3654 74.5329 34.4297C75.1654 34.5274 75.749 34.716 76.3007 35.0019C76.5659 35.1394 76.7736 35.2697 76.9236 35.3928C77.0951 35.5336 77.3289 35.7368 77.4848 35.9121C77.9741 36.4623 78.2722 37.1063 78.3791 37.844C78.4378 38.2487 78.4313 38.7735 78.3661 39.1675C78.3241 39.4224 78.2536 39.6845 78.1549 39.9537C78.0844 40.1462 77.9803 40.3386 77.884 40.5242C77.779 40.7265 77.5842 40.9707 77.3963 41.1468C77.2394 41.294 77.1046 41.4542 76.915 41.5829C76.7001 41.7284 76.5315 41.8361 76.4091 41.9058C76.1059 42.0792 75.7736 42.2085 75.4125 42.2938C75.3506 42.3084 75.3123 42.3298 75.2976 42.3579C75.2786 42.3941 75.2894 42.4358 75.33 42.4832C75.3582 42.5162 75.4306 42.6005 75.5473 42.7359C75.9047 43.1513 76.5877 43.9461 77.5963 45.1204C77.6792 45.2171 77.7714 45.3283 77.8728 45.454C78.1242 45.7653 78.3821 46.0478 78.6391 46.3522C78.6427 46.3565 78.645 46.3617 78.6457 46.3673C78.6464 46.3728 78.6455 46.3784 78.6431 46.3835C78.6408 46.3885 78.637 46.3927 78.6323 46.3956C78.6276 46.3986 78.6222 46.4001 78.6167 46.4C77.846 46.3942 76.9437 46.3929 75.9097 46.3961C75.8337 46.3965 75.7499 46.4198 75.6929 46.4168C75.6805 46.4166 75.6683 46.4138 75.6572 46.4087C75.646 46.4035 75.6361 46.3959 75.6281 46.3866L72.4256 42.627C72.411 42.6099 72.3928 42.5961 72.3724 42.5867C72.3519 42.5772 72.3297 42.5723 72.3072 42.5723H67.563C67.5535 42.5723 67.5443 42.5761 67.5376 42.5828C67.5309 42.5895 67.5271 42.5986 67.5271 42.6081V46.3621C67.5271 46.3713 67.5234 46.3802 67.5169 46.3867C67.5103 46.3933 67.5014 46.397 67.4921 46.397H65.2288C65.2257 46.397 65.2226 46.3963 65.2197 46.3951C65.2169 46.3939 65.2142 46.3921 65.212 46.3899C65.2098 46.3877 65.2081 46.385 65.2069 46.3821C65.2057 46.3791 65.2051 46.376 65.2051 46.3728V34.3664C65.2051 34.3624 65.2061 34.3585 65.2082 34.3552C65.2103 34.3518 65.2132 34.3491 65.2167 34.3474ZM67.5474 36.5708C67.5296 36.6699 67.5211 36.7735 67.5219 36.8817C67.5274 37.4876 67.5287 38.4061 67.5258 39.6372C67.5249 40.0041 67.526 40.2416 67.5288 40.3498C67.5296 40.3784 67.5393 40.406 67.5565 40.4288C67.5738 40.4517 67.5978 40.4686 67.6252 40.4773C67.6741 40.493 67.7349 40.5011 67.8075 40.5014C68.571 40.5062 70.3609 40.5074 73.1773 40.5048C73.4732 40.5048 73.8793 40.4824 74.1454 40.4635C74.2543 40.4557 74.3824 40.4404 74.5299 40.4174C74.7473 40.3838 74.8739 40.3606 74.9096 40.3477C75.1847 40.2498 75.4108 40.0942 75.5879 39.8809C75.8095 39.6149 75.9019 39.2799 75.9266 38.9376C75.9441 38.6916 75.946 38.4341 75.9322 38.1652C75.9215 37.9556 75.8829 37.7435 75.8164 37.5288C75.7577 37.3397 75.6763 37.1831 75.5723 37.0591C75.3321 36.7719 74.9364 36.5114 74.5861 36.5114C70.6586 36.5117 68.5561 36.5123 68.2788 36.5131C68.0409 36.514 67.8151 36.5177 67.6014 36.5243C67.5884 36.5247 67.576 36.5296 67.5661 36.538C67.5563 36.5465 67.5497 36.5581 67.5474 36.5708Z" fill="white"/>
<path d="M89.3617 46.4279C89.3572 46.4279 89.353 46.4262 89.3498 46.4232C89.3466 46.4201 89.3449 46.4159 89.3449 46.4116C89.3423 45.9483 89.3426 42.7466 89.3457 36.8063C89.3457 36.7951 89.3476 36.7165 89.3513 36.5704C89.3528 36.5207 89.3381 36.4899 89.3073 36.4778C89.303 36.4764 89.2665 36.4757 89.198 36.4757C88.1303 36.4791 86.4153 36.4801 84.0528 36.4787C83.9969 36.4787 83.9402 36.4758 83.8826 36.4701C83.8759 36.4693 83.8698 36.4662 83.8653 36.4613C83.8608 36.4563 83.8584 36.45 83.8584 36.4434V34.3771C83.8584 34.3709 83.8609 34.3648 83.8655 34.3604C83.87 34.3559 83.8762 34.3535 83.8826 34.3535H97.0212C97.0287 34.3535 97.0362 34.3549 97.0432 34.3579C97.0502 34.3608 97.0566 34.365 97.0619 34.3704C97.0673 34.3757 97.0715 34.3821 97.0743 34.3891C97.0772 34.3961 97.0787 34.4036 97.0786 34.4111C97.0766 34.7622 97.0756 35.3246 97.0756 36.0985C97.0756 36.1846 97.077 36.2401 97.0799 36.2651C97.0931 36.3713 97.0995 36.4267 97.0989 36.4313C97.0985 36.4377 97.0958 36.4438 97.0913 36.4485C97.0868 36.4532 97.0808 36.4563 97.0743 36.4571C96.9669 36.4706 96.8941 36.4775 96.8561 36.4778C94.847 36.4801 93.1393 36.4798 91.733 36.477C91.7175 36.477 91.7027 36.4831 91.6917 36.4941C91.6808 36.5051 91.6747 36.52 91.6747 36.5355V46.3991C91.6747 46.4067 91.6716 46.4141 91.6661 46.4195C91.6605 46.4249 91.6531 46.4279 91.6453 46.4279H89.3617Z" fill="white"/>
<path d="M131.554 34.3548H133.787C133.791 34.3548 133.794 34.356 133.797 34.3582C133.8 34.3604 133.801 34.3634 133.802 34.3668C133.819 34.4472 133.827 34.4997 133.827 34.5244C133.829 38.2085 133.828 41.4162 133.827 44.1473C133.827 44.2039 133.835 44.261 133.851 44.3187C133.854 44.3281 133.859 44.3364 133.867 44.3423C133.875 44.3482 133.884 44.3514 133.894 44.3514C134.94 44.3482 137.632 44.3477 141.969 44.3497C142.016 44.3497 142.077 44.3551 142.151 44.366C142.162 44.3676 142.171 44.3728 142.178 44.3807C142.185 44.3886 142.189 44.3987 142.189 44.4091V46.3991C142.189 46.4038 142.187 46.4083 142.184 46.4118C142.18 46.4152 142.176 46.4173 142.171 46.4176C142.074 46.4245 142.003 46.428 141.958 46.428C139.333 46.4285 135.939 46.4285 131.773 46.428C131.684 46.428 131.596 46.4225 131.509 46.4116C131.502 46.4106 131.495 46.407 131.491 46.4015C131.486 46.396 131.484 46.389 131.484 46.3819C131.489 46.2902 131.508 46.1813 131.508 46.0715C131.507 40.8316 131.507 37.0472 131.508 34.7182C131.508 34.5962 131.513 34.4839 131.524 34.3815C131.524 34.3741 131.528 34.3673 131.534 34.3624C131.539 34.3574 131.546 34.3547 131.554 34.3548Z" fill="white"/>
<path d="M148.049 34.3544H159.924C159.931 34.3544 159.937 34.3557 159.943 34.3581C159.949 34.3606 159.955 34.3643 159.959 34.3689C159.964 34.3735 159.968 34.379 159.97 34.385C159.972 34.391 159.974 34.3974 159.974 34.4039C159.969 34.8396 159.968 35.3787 159.97 36.021C159.97 36.073 159.98 36.1847 159.998 36.356C160.001 36.3893 160.001 36.4152 159.997 36.4335C159.994 36.4464 159.986 36.4579 159.976 36.4661C159.966 36.4743 159.953 36.4788 159.94 36.4787H150.395C150.381 36.4787 150.367 36.4843 150.357 36.4942C150.347 36.5042 150.342 36.5176 150.342 36.5317V39.0233C150.342 39.036 150.347 39.0482 150.355 39.0574C150.364 39.0667 150.376 39.0722 150.389 39.0728C150.471 39.0776 150.568 39.0634 150.638 39.0634C154.887 39.0642 157.441 39.0642 158.298 39.0634C158.304 39.0634 158.38 39.0616 158.526 39.0582C158.598 39.0568 158.634 39.0956 158.633 39.1749C158.63 39.3646 158.63 39.9134 158.631 40.8213C158.632 40.9229 158.636 41.0252 158.645 41.1283C158.646 41.1315 158.645 41.1348 158.644 41.1379C158.643 41.1409 158.641 41.1438 158.639 41.1461C158.637 41.1485 158.634 41.1504 158.631 41.1517C158.628 41.153 158.625 41.1537 158.622 41.1537H150.399C150.391 41.1537 150.383 41.1565 150.377 41.1616C150.372 41.1666 150.368 41.1736 150.367 41.1813C150.353 41.2809 150.346 41.3654 150.346 41.4349C150.345 42.3258 150.344 43.2966 150.342 44.3471C150.342 44.3532 150.343 44.3592 150.346 44.3648C150.348 44.3704 150.352 44.3754 150.356 44.3795C150.361 44.3836 150.366 44.3867 150.372 44.3886C150.378 44.3905 150.384 44.3912 150.39 44.3906C150.52 44.3783 150.654 44.372 150.792 44.3717C151.71 44.3708 152.513 44.3707 153.201 44.3712C153.323 44.3712 153.491 44.3488 153.633 44.3488C154.697 44.3488 155.536 44.3487 156.149 44.3484C156.28 44.3484 156.433 44.3269 156.567 44.3269C158.099 44.3263 158.878 44.3263 158.904 44.3269C159.217 44.3355 159.584 44.2907 159.941 44.3105C159.949 44.311 159.957 44.3145 159.962 44.3203C159.968 44.3262 159.971 44.3339 159.971 44.342V46.3966C159.971 46.4048 159.968 46.4127 159.962 46.4185C159.956 46.4243 159.948 46.4276 159.94 46.4276H148.04C148.035 46.4276 148.03 46.4256 148.026 46.422C148.023 46.4185 148.021 46.4136 148.021 46.4086V34.3832C148.021 34.3756 148.024 34.3682 148.029 34.3628C148.034 34.3574 148.041 34.3544 148.049 34.3544Z" fill="white"/>
<path d="M105.57 34.3539H103.338C103.314 34.3539 103.294 34.3735 103.294 34.3978V46.3827C103.294 46.407 103.314 46.4266 103.338 46.4266H105.57C105.594 46.4266 105.614 46.407 105.614 46.3827V34.3978C105.614 34.3735 105.594 34.3539 105.57 34.3539Z" fill="white"/>
<path d="M119.925 40.18C119.858 39.4961 119.254 38.9953 118.577 39.0615C117.899 39.1277 117.405 39.7358 117.472 40.4197C117.539 41.1037 118.143 41.6044 118.82 41.5382C119.498 41.472 119.992 40.8639 119.925 40.18Z" fill="white"/>
</svg>
