<svg width="80" height="80" viewBox="0 0 80 80" fill="currentColor" xmlns="http://www.w3.org/2000/svg">
<path d="M49.6226 47.0804C44.973 50.5488 38.2339 52.4 32.4312 52.4C24.2959 52.4 16.9708 49.3537 11.4299 44.2895C10.9955 43.8862 11.3847 43.3485 11.9068 43.659C17.8848 47.1799 25.2816 49.2972 32.9188 49.2972C38.4255 49.2717 43.873 48.1446 48.9477 45.9807C49.7355 45.6433 50.3931 46.5023 49.6226 47.0804ZM53.5401 43.3162C53.0314 42.6817 48.6714 42.1359 46.0145 44.0274C45.6027 44.3164 45.6731 44.7184 46.1288 44.6619C47.6259 44.4831 50.963 44.0771 51.5555 44.8461C52.1479 45.6151 50.8912 48.7931 50.332 50.2101C50.1619 50.6403 50.5272 50.8123 50.9112 50.4883C53.4086 48.375 54.0503 43.9508 53.5415 43.3135L53.5401 43.3162Z" fill="#9139FA"/>
<path d="M55.5474 39.3732V41.336C55.5474 41.6048 55.2551 41.9181 54.9483 41.7554C52.4442 40.4272 49.1178 40.2766 46.3493 41.7702C46.0677 41.9248 45.7714 41.6143 45.7714 41.3467V39.4821C45.7714 39.1823 45.7714 38.6755 46.0716 38.2171L50.9576 31.1256H46.7C46.6387 31.1284 46.5776 31.1184 46.5203 31.0964C46.463 31.0744 46.4107 31.0408 46.3667 30.9976C46.3226 30.9545 46.2878 30.9026 46.2642 30.8454C46.2407 30.7881 46.2289 30.7265 46.2297 30.6645V28.8241C46.228 28.7616 46.2391 28.6994 46.2622 28.6415C46.2854 28.5836 46.3201 28.5311 46.3643 28.4874C46.4085 28.4437 46.4611 28.4098 46.5189 28.3876C46.5766 28.3655 46.6383 28.3558 46.7 28.3589H54.8393C54.9008 28.3568 54.962 28.3672 55.0194 28.3897C55.0767 28.4121 55.1289 28.4461 55.1729 28.4896C55.2169 28.5331 55.2516 28.5852 55.2751 28.6427C55.2986 28.7002 55.3104 28.7619 55.3096 28.8241V30.3997C55.3096 30.6685 55.0864 31.01 54.6959 31.5558L50.4728 37.6457C52.0403 37.6067 53.6942 37.8433 55.1223 38.654C55.2494 38.7254 55.3557 38.8295 55.4303 38.9558C55.505 39.0821 55.5453 39.2261 55.5474 39.3732ZM26.8013 28.1223C25.34 28.1223 23.9797 28.8806 23.3806 30.5059C22.6844 28.8806 21.716 28.1223 20.1657 28.1223C18.6407 28.1223 17.5088 28.8806 16.9071 30.5059H16.8606V28.8241C16.8506 28.7093 16.7994 28.6021 16.7167 28.5228C16.6339 28.4436 16.5254 28.3977 16.4116 28.3939H14.1027C14.041 28.3917 13.9795 28.4021 13.9217 28.4242C13.864 28.4464 13.8112 28.48 13.7664 28.5231C13.7217 28.5661 13.6858 28.6178 13.661 28.675C13.6362 28.7322 13.6228 28.7939 13.6218 28.8564V41.7164C13.6326 41.8294 13.6832 41.9347 13.7645 42.013C13.8457 42.0913 13.9521 42.1373 14.0642 42.1426H16.5444C16.6059 42.1438 16.6671 42.1328 16.7244 42.1101C16.7817 42.0873 16.834 42.0534 16.8783 42.0102C16.9226 41.967 16.958 41.9153 16.9826 41.8582C17.0071 41.8011 17.0203 41.7397 17.0213 41.6774V34.8616C17.0213 33.3747 16.9522 31.3165 18.731 31.3165C20.4899 31.3165 20.2574 33.4272 20.2574 34.8616V41.6774C20.2593 41.7979 20.3065 41.9131 20.3895 41.9995C20.4724 42.086 20.5848 42.1371 20.7037 42.1426H23.176C23.2375 42.1438 23.2986 42.1328 23.3559 42.1101C23.4132 42.0873 23.4655 42.0534 23.5098 42.0102C23.5541 41.967 23.5896 41.9153 23.6141 41.8582C23.6387 41.8011 23.6518 41.7397 23.6529 41.6774V34.8616C23.6529 34.1316 23.629 33.0467 23.8827 32.3974C24.0011 32.0947 24.2044 31.8338 24.4676 31.6467C24.7309 31.4597 25.0424 31.3547 25.3639 31.3447C26.0813 31.3447 26.6352 31.5867 26.8252 32.4512C26.9448 32.966 26.8956 34.3185 26.8956 34.8616V41.6788C26.8978 41.7989 26.945 41.9138 27.0276 42.0001C27.1102 42.0864 27.222 42.1378 27.3406 42.1439H29.8142C29.8757 42.1452 29.9369 42.1341 29.9942 42.1114C30.0514 42.0887 30.1037 42.0548 30.148 42.0115C30.1924 41.9683 30.2278 41.9167 30.2523 41.8596C30.2769 41.8025 30.2901 41.741 30.2911 41.6788V33.5629C30.2911 32.185 30.4505 30.6121 29.6667 29.5299C28.9746 28.5566 27.8361 28.1223 26.8013 28.1223ZM67.9736 35.3818C67.9736 39.3047 65.7764 42.4168 62.3105 42.4168C58.7024 42.4168 56.739 39.2227 56.739 35.2447C56.739 31.2399 58.7317 28.1277 62.3105 28.1277C65.985 28.1223 67.9736 31.3165 67.9736 35.3765V35.3818ZM64.3204 35.4101C64.3204 34.3238 64.2753 33.0279 63.9511 31.9981C63.6735 31.1028 63.1195 30.7546 62.3317 30.7546C60.5065 30.7546 60.3922 33.2699 60.3922 34.8387C60.3922 36.4076 60.3683 39.7658 62.3105 39.7658C64.2354 39.7604 64.3204 37.0542 64.3204 35.4047V35.4101ZM79.3491 29.6388C78.6516 28.5283 77.569 28.1223 76.4571 28.1223C74.746 28.1223 73.7749 28.9612 73.0815 30.721H73.0363V28.7542C73.0111 28.6538 72.9543 28.5643 72.8745 28.4994C72.7947 28.4344 72.6963 28.3974 72.5939 28.3939H70.3011C70.1841 28.3911 70.0702 28.4325 69.9818 28.51C69.8933 28.5876 69.8367 28.6957 69.8228 28.8133V41.6774C69.8254 41.7977 69.8728 41.9125 69.9556 41.9988C70.0384 42.0851 70.1505 42.1365 70.2692 42.1426H72.7374C72.8623 42.1451 72.9831 42.0977 73.0737 42.0106C73.1642 41.9235 73.2171 41.8038 73.221 41.6774V34.7527C73.221 33.8856 73.2661 33.1032 73.6195 32.3167C73.8958 31.697 74.4484 31.2883 75.0516 31.2883C76.7613 31.2883 76.6019 33.3465 76.6019 34.7527V41.7433C76.6179 41.8513 76.6703 41.9504 76.7501 42.0239C76.83 42.0974 76.9325 42.1407 77.0402 42.1466H79.5231C79.6372 42.1487 79.7483 42.1091 79.8359 42.035C79.9235 41.961 79.9818 41.8574 80 41.7433V33.6422C79.996 32.4028 79.996 30.6672 79.3491 29.6388ZM44.156 39.7859C44.3154 40.0104 44.35 40.282 44.1481 40.4581C43.6433 40.8843 42.7452 41.6774 42.251 42.1211H42.2431C42.1632 42.19 42.0646 42.2328 41.9601 42.2436C41.8557 42.2544 41.7505 42.2328 41.6586 42.1816C40.8363 41.4906 40.6901 41.1693 40.2371 40.5105C38.8795 41.914 37.9177 42.3335 36.1562 42.3335C34.0732 42.3335 32.4498 41.0322 32.4498 38.4349C32.4498 36.4009 33.5405 35.0162 35.0894 34.3386C36.4338 33.7404 38.3109 33.6342 39.7469 33.4688V33.1247C39.7469 32.5278 39.7921 31.8233 39.4467 31.3085C39.1438 30.8473 38.566 30.6564 38.0572 30.6564C37.114 30.6564 36.2704 31.1471 36.0645 32.1621C36.0233 32.388 35.8599 32.6098 35.6367 32.6205L33.2336 32.3597C33.1746 32.3512 33.1179 32.3306 33.067 32.2992C33.0161 32.2678 32.972 32.2263 32.9375 32.1771C32.903 32.1279 32.8787 32.0722 32.8661 32.0132C32.8535 31.9542 32.8529 31.8933 32.8643 31.8341C33.4156 28.8873 36.0472 28 38.4026 28C39.6074 28 41.1816 28.324 42.1315 29.2476C43.3364 30.3849 43.2221 31.904 43.2221 33.5576V37.4629C43.2221 38.6365 43.703 39.1514 44.156 39.7859ZM39.7469 36.0002V35.4625C37.9562 35.4625 36.0645 35.8497 36.0645 37.9859C36.0645 39.0681 36.6185 39.8007 37.5696 39.8007C38.2657 39.8007 38.8901 39.3678 39.2833 38.6634C39.7708 37.7909 39.7469 36.9736 39.7469 36.0002ZM11.6929 39.7859C11.8523 40.0104 11.8882 40.282 11.6929 40.4581C11.1868 40.8843 10.2888 41.6774 9.79459 42.1211C9.71447 42.19 9.61556 42.2327 9.51096 42.2435C9.40635 42.2543 9.30097 42.2327 9.20875 42.1816C8.38644 41.4906 8.24032 41.1693 7.78732 40.5105C6.42965 41.914 5.46786 42.3335 3.70635 42.3335C1.62335 42.3335 0 41.0322 0 38.4349C0 36.4009 1.09065 35.0162 2.64094 34.3386C3.97204 33.7202 5.84912 33.6127 7.28384 33.4487V33.1247C7.28384 32.5278 7.32901 31.8233 6.98361 31.3085C6.68073 30.8473 6.10285 30.6551 5.59406 30.6551C4.65087 30.6551 3.80731 31.1458 3.6014 32.1608C3.55889 32.3866 3.39549 32.6084 3.17232 32.6192L0.770495 32.3597C0.711486 32.3512 0.65481 32.3306 0.603911 32.2992C0.553012 32.2678 0.508953 32.2263 0.474411 32.1771C0.43987 32.1279 0.415566 32.0722 0.402979 32.0132C0.390392 31.9542 0.389783 31.8933 0.401189 31.8341C0.955149 28.8873 3.58546 28 5.93946 28C7.14435 28 8.71855 28.324 9.66972 29.2476C10.8746 30.3849 10.759 31.904 10.759 33.5576V37.4629C10.759 38.6365 11.2399 39.1514 11.6929 39.7859ZM7.28384 36.0002V35.4625C5.4931 35.4625 3.60273 35.8497 3.60273 37.9859C3.60273 39.0681 4.15669 39.8007 5.10652 39.8007C5.80396 39.8007 6.42699 39.3678 6.82021 38.6634C7.30775 37.7909 7.28384 36.9736 7.28384 36.0002Z" fill="#9139FA"/>
</svg>
