<svg width="800" height="300" viewBox="0 0 800 300" fill="none" xmlns="http://www.w3.org/2000/svg">
<path d="M163.04 206.013C151.487 206.013 138.532 190.126 132.064 168.129L130.823 163.45C162.24 147.184 182.322 120.698 182.322 90.2349H127.688C127.688 97.2773 121.739 105.105 111.372 111.706C97.2384 120.705 77.1003 125.868 56.1345 125.868V26.6992H1.5V242.228H56.1345V180.495C63.8152 180.495 71.3205 180.025 78.5873 179.127C78.7627 180.208 78.9872 181.288 79.2958 182.361C85.4263 203.825 95.5971 222.364 108.721 235.978C124.279 252.111 143.056 260.648 163.033 260.648C178.12 260.648 190.353 248.422 190.353 233.327C190.353 218.232 178.128 206.006 163.033 206.006L163.04 206.013Z" fill="#FAFAFA"/>
<path d="M277.976 260.647C257.999 260.647 239.222 252.117 223.664 235.977C222.591 234.869 221.546 233.726 220.508 232.547C219.477 233.719 218.425 234.862 217.351 235.977C201.794 252.11 183.016 260.647 163.04 260.647C147.952 260.647 135.719 248.421 135.719 233.326C135.719 218.231 147.945 206.005 163.04 206.005C174.641 206.005 187.653 189.998 194.092 167.875C194.983 164.494 196.533 161.275 198.693 158.413C203.856 151.567 211.929 147.548 220.501 147.548H220.823C219.35 145.808 217.948 144.012 216.629 142.154C208.212 130.405 202.825 116.551 201.05 102.102C197.347 71.9053 209.425 42.7889 233.358 24.201C246.776 13.7847 262.208 8.27148 277.969 8.27148C324.944 8.27148 362.478 56.0109 367.633 119.434L367.914 119.294V120.921C383.703 111.641 424.752 89.5043 413.227 98.5323L403.953 108.822C418.15 100.475 425.895 103.456 433.639 89.5043C438.584 94.4494 441.642 101.274 441.642 108.822C441.642 148.516 411.459 166.711 362.632 179.084C349.992 227.188 317.291 260.633 277.969 260.633L277.976 260.647ZM247.092 168.464C253.594 190.286 266.48 206.005 277.976 206.005C285.018 206.005 292.846 200.057 299.447 189.69C300.674 187.768 301.825 185.734 302.905 183.608C284.78 181.967 267.434 177.632 252.023 170.821C250.354 170.085 248.712 169.299 247.099 168.464H247.092ZM277.976 62.92C274.406 62.92 270.667 64.4211 266.865 67.3671C254.478 76.9837 254.639 90.2197 255.278 95.4594C256.667 106.767 263.702 116.264 274.097 120.851C285.664 125.958 299.187 128.953 313.518 129.591C312.781 110.407 307.752 92.2679 299.447 79.2283C292.846 68.8611 285.018 62.913 277.976 62.913V62.92Z" fill="#FDCC0D"/>
<path fill-rule="evenodd" clip-rule="evenodd" d="M680.303 91.3793C680.517 97.2088 680.642 108.948 680.062 114.691C683.581 111.885 686.568 109.023 690.345 106.338C703.5 96.9818 714.346 94.271 729.828 92.0473C743.18 91.2722 757.079 93.3227 768.607 100.452C802.636 121.49 806.127 177.144 786.404 208.594C776.892 223.91 761.677 234.829 744.102 238.95C718.756 244.663 701.204 238.133 680.419 225.016L680.455 276.723C680.531 281.75 680.647 286.101 679.844 291.079C675.643 291.489 667.406 291.266 662.778 291.27L630.622 291.27C629.975 280.87 630.292 268.602 630.323 258.024L630.443 206.081L630.412 137.979C630.403 124.366 630.198 105.324 630.648 91.7473C635.5 91.2304 643.835 91.4554 648.905 91.4647C659.371 91.527 669.837 91.4986 680.303 91.3793ZM746.792 167.339C746.881 144.847 734.029 139.484 713.984 140.475C712.37 140.919 710.756 141.368 709.155 141.853C689.48 147.802 680.004 164.425 680.111 184.184C690.876 191.5 699.75 195.866 713.075 196.515C732.107 196.93 746.711 187.765 746.792 167.339Z" fill="#FAFAFA"/>
<path d="M454.374 83.4313C459.137 83.4494 461.638 83.4614 461.857 83.4674C467.364 83.642 472.893 84.2861 478.457 85.3998C512.398 92.1967 528.605 120.401 527.834 148.588C527.771 151.05 528.023 153.802 528.03 156.631C528.079 174.24 528.149 184.552 528.247 187.563C528.443 193.559 528.1 198.815 528.296 204.576C528.604 213.341 528.184 225.827 528.17 230.963C528.163 235.49 528.261 239.204 528.478 242.088V242.1C528.485 242.292 528.317 242.449 528.093 242.455H476.249C475.993 242.449 475.792 242.28 475.78 242.07V242.01C475.864 241.034 476.193 239.583 476.193 238.277C476.193 237.362 476.137 229.199 476.032 213.799C475.969 205.329 476.123 197.225 476.025 188.508C476.004 186.925 476.004 183.553 476.025 178.382C476.074 167.196 476.025 157.389 475.892 148.955C475.829 145.379 475.443 142.02 474.722 138.877C474.329 137.149 473.565 135.446 472.43 133.76C468.261 127.565 457.576 125.705 450.779 129.606C449.7 130.443 448.145 132.586 447.416 133.899C446.085 136.216 445.195 138.956 444.739 142.11C444.242 145.59 443.919 148.684 443.779 151.387C443.268 161.146 442.91 171.808 442.168 179.791C441.362 188.454 440.199 196.406 438.657 203.655C437.438 209.386 435.546 214.906 432.982 220.228C431.468 223.112 429.703 225.857 427.692 228.458C422.275 235.411 414.974 240.42 405.795 243.484C392.902 247.789 379.057 248.367 365.646 246.705C365.12 246.639 364.819 246.458 364.742 246.163V224.665C364.742 222.522 364.756 215.598 364.777 203.901V203.872C364.798 203.655 365.015 203.498 365.267 203.51H365.309C367.362 203.817 369.52 204.016 371.79 204.106C376.086 204.275 379.876 203.221 382.658 201.042C387.192 197.869 388.943 190.374 389.763 180.718L389.777 180.621H389.784C392.664 146.354 384.893 104.707 429.331 87.6694C436.849 84.7858 445.069 83.4072 454.374 83.4313Z" fill="#FAFAFA"/>
<path d="M604.11 241.467H550.094V91.1969H604.11V241.467Z" fill="#FAFAFA"/>
<path d="M577.102 8.78125C592.019 8.78125 604.11 20.872 604.11 35.7895C604.11 50.7068 592.019 62.7973 577.102 62.7973C562.185 62.7973 550.094 50.7068 550.094 35.7895C550.094 20.872 562.185 8.78125 577.102 8.78125Z" fill="#FAFAFA"/>
</svg>
