<svg width="80" height="80" viewBox="0 0 80 80" fill="none" xmlns="http://www.w3.org/2000/svg">
<path d="M19.6355 31.773C19.6791 31.3651 19.8122 30.972 20.025 30.622C20.2378 30.272 20.5251 29.9737 20.8663 29.7487C21.6013 29.1304 22.5307 28.7943 23.4889 28.8002C23.7601 28.7957 24.0287 28.8538 24.274 28.9701C24.5193 29.0865 24.7348 29.2579 24.9038 29.4711C25.2428 29.834 25.4284 30.3151 25.4214 30.8129C25.3896 31.1854 25.2847 31.5478 25.113 31.8793C24.9412 32.2109 24.7059 32.505 24.4207 32.7447C24.0807 33.0805 23.678 33.3455 23.2358 33.5241C22.7936 33.7028 22.3206 33.7917 21.844 33.7857C20.3256 33.7857 19.5895 33.1148 19.6355 31.773ZM79.9682 42.4727C79.8955 44.878 78.9218 47.1669 77.2421 48.8809C76.4253 49.7591 75.4335 50.454 74.3314 50.9204C73.2293 51.3868 72.0418 51.6142 70.8464 51.5877C69.939 51.647 69.0303 51.4916 68.1933 51.134C67.3563 50.7765 66.6143 50.2267 66.0267 49.5287C65.7823 49.2098 65.574 48.8645 65.4056 48.4992L64.4853 49.0545C61.8735 50.6291 58.8917 51.4755 55.8466 51.5067C54.9579 51.5775 54.0662 51.4142 53.2593 51.0328C52.4525 50.6515 51.7584 50.0653 51.2455 49.3321C51.1765 49.228 51.1304 49.1123 51.0614 48.9966L50.9694 49.0892C49.5149 50.4936 47.6007 51.3162 45.586 51.4026C43.8376 51.4026 42.9979 50.431 43.0554 48.4992C43.0956 47.4452 43.246 46.3984 43.504 45.3761C43.7665 44.4547 43.9361 43.5092 44.0101 42.5537C44.0101 41.5242 43.7341 41.0152 43.0784 41.0152C42.4227 41.0152 41.5485 41.8481 40.5823 43.5253C39.6242 45.0574 39.0481 46.7994 38.9029 48.6033C38.8102 49.5079 38.9243 50.4219 39.2364 51.2754C37.8603 51.4612 36.4643 51.1319 35.3139 50.35C34.9501 49.9594 34.6784 49.4914 34.5191 48.9808C34.3598 48.4701 34.3169 47.9299 34.3937 47.4003C34.4223 46.5149 34.5614 45.6367 34.8078 44.7861C35.03 44.0336 35.1613 43.2568 35.1989 42.4727C35.1989 41.4779 34.8998 40.9805 34.1176 40.9805C33.3354 40.9805 32.7258 41.744 31.9436 43.294C31.18 44.7881 30.7409 46.4283 30.6553 48.1059C30.552 49.1636 30.6496 50.2313 30.9428 51.2522C30.2466 51.3507 29.5375 51.2985 28.863 51.099C28.1885 50.8995 27.5642 50.5573 27.0318 50.0955C26.6442 49.6766 26.3742 49.1617 26.2496 48.6033L25.778 49.0545C24.3217 50.4562 22.4086 51.2783 20.3947 51.3679C20.0356 51.3925 19.6758 51.3321 19.3441 51.1915C19.0125 51.0509 18.7183 50.834 18.4852 50.5582C18.0284 49.9612 17.8072 49.2156 17.864 48.4645C17.9838 47.0647 18.2616 45.6832 18.6922 44.3466C19.2099 42.4843 19.4744 41.4895 19.4744 41.3507C19.4744 40.6566 19.2329 40.3096 18.7497 40.3096C18.2881 40.4831 17.8628 40.7421 17.4959 41.0731C16.6971 43.1057 15.5786 44.996 14.1831 46.6716C11.7445 49.8526 9.69696 51.4489 8.00603 51.4489C6.97077 51.4489 6.08504 50.4772 5.36036 48.5339C4.87724 46.7641 4.39411 44.9828 3.92249 43.213C3.38186 41.2697 2.7722 40.3096 2.19706 40.3096C1.68773 40.5145 1.21404 40.7996 0.793701 41.154L0 40.0899L2.61116 37.7764C3.33317 37.0109 4.24717 36.4554 5.25683 36.1686C6.6947 35.9951 7.5114 36.9551 7.84499 39.0025C8.17857 41.0499 8.44314 42.5884 8.56967 43.1205C8.97227 44.9597 9.42089 45.8735 9.90401 45.8735C10.3871 45.8735 10.8357 45.2835 11.5834 44.0921C12.1515 43.2768 12.5433 42.3508 12.7337 41.3738C12.8373 40.3443 12.4346 39.8354 11.5834 39.8354C11.1171 39.8469 10.6585 39.9572 10.2376 40.1593C11.1118 37.2674 12.7912 35.8601 15.2759 35.9372C16.9323 35.9372 17.795 36.9667 17.8755 38.8753L19.0258 37.7764C19.7347 36.9986 20.6416 36.4306 21.6485 36.1339C22.0122 36.0648 22.388 36.1009 22.7322 36.2381C23.0763 36.3753 23.3746 36.6079 23.5925 36.9089C24.0194 37.5985 24.1828 38.4206 24.0526 39.2223C23.7075 40.8571 23.3241 42.9354 22.9023 45.457C22.9023 46.6138 23.3164 47.1921 24.1446 47.1921C24.9015 46.9908 25.592 46.5917 26.1461 46.0354C26.2036 45.4802 26.2957 44.8208 26.4337 44.0458C26.6246 43.0802 26.7476 42.1023 26.8018 41.1193C26.8593 40.6335 26.7328 40.3906 26.4452 40.3906C25.9454 40.5832 25.4823 40.8611 25.0763 41.2119L24.1216 40.1246L26.6407 37.8111C27.791 36.7701 28.5387 36.2264 28.9413 36.2033C29.2745 36.1711 29.6098 36.2357 29.9075 36.3895C30.2052 36.5433 30.4527 36.7797 30.6208 37.0708C31.0542 37.7198 31.2791 38.4869 31.2649 39.2686C31.2678 39.5253 31.2408 39.7816 31.1844 40.032C31.577 39.4307 32.0491 38.8859 32.5878 38.4126C33.7404 37.379 35.1913 36.7427 36.7288 36.5965C37.2373 36.4958 37.763 36.5292 38.2548 36.6934C38.7467 36.8576 39.1879 37.147 39.5355 37.5335C40.0409 38.2793 40.269 39.1803 40.1797 40.0783L40.7893 39.5462C41.3195 38.8967 41.9259 38.3141 42.5953 37.8111C43.4978 37.1402 44.5704 36.7392 45.6896 36.6544C46.1918 36.5574 46.7103 36.5916 47.1957 36.7536C47.681 36.9156 48.1169 37.2001 48.4618 37.5798C48.9748 38.3177 49.2038 39.218 49.1059 40.113C49.021 41.2225 48.8362 42.3221 48.5538 43.3981C48.3588 44.1713 48.209 44.9554 48.1052 45.7462C48.0474 46.1394 48.1033 46.5409 48.2662 46.9029C48.3928 47.1227 48.7148 47.2268 49.2325 47.2268C49.6024 47.1582 49.95 46.9993 50.2447 46.7641C50.2269 46.4174 50.2269 46.0699 50.2447 45.7231C50.3641 43.3472 51.4048 41.1131 53.1435 39.4999C54.0842 38.4759 55.2266 37.6601 56.498 37.1045C57.7695 36.5489 59.142 36.2656 60.5283 36.2727C63.1663 36.2727 64.562 37.3446 64.7154 39.4884C64.8189 40.8649 64.0712 42.2761 62.4148 43.722C60.6051 45.3504 58.355 46.4012 55.9502 46.741C56.1979 47.0775 56.5258 47.346 56.9036 47.5219C57.2815 47.6977 57.6973 47.7753 58.1127 47.7474C60.2964 47.6944 62.446 47.1904 64.4278 46.2668L64.7384 46.1279C64.7384 45.966 64.7384 45.8156 64.7384 45.6421C64.6821 44.4674 64.8722 43.2939 65.2963 42.1979C65.7204 41.1018 66.369 40.1077 67.2 39.2801C68.1018 38.2384 69.2206 37.4092 70.4771 36.8514C71.7336 36.2936 73.0968 36.021 74.4699 36.0529C75.2787 36.0015 76.0879 36.1472 76.8289 36.4774C77.5698 36.8077 78.2206 37.3128 78.7259 37.9499C79.6845 39.2499 80.1274 40.8622 79.9682 42.4727ZM58.7454 43.0511C59.3394 42.4931 59.7421 41.7601 59.8957 40.9574C59.8957 40.2402 59.6311 39.8816 59.0215 39.8816C58.5129 39.9503 58.0271 40.1364 57.602 40.4254C57.177 40.7144 56.8242 41.0984 56.5713 41.5473C55.8255 42.4529 55.3756 43.5677 55.283 44.7399C55.2677 44.913 55.2677 45.0872 55.283 45.2604C56.5959 44.7896 57.7814 44.0172 58.7454 43.0048V43.0511ZM75.4361 42.3223C75.4669 41.6411 75.3613 40.9606 75.1255 40.3212C74.8955 39.7081 74.5734 39.4074 74.1478 39.4074C73.4372 39.4301 72.7466 39.6494 72.152 40.0412C71.5574 40.433 71.0817 40.9822 70.7774 41.6283C70.0344 42.791 69.6172 44.1337 69.5696 45.5149C69.5478 46.1176 69.6826 46.7156 69.9607 47.25C70.0552 47.5065 70.2241 47.7286 70.4456 47.8874C70.6672 48.0463 70.931 48.1345 71.203 48.1406C71.863 48.0985 72.4992 47.8773 73.0441 47.5005C73.589 47.1236 74.0221 46.6053 74.2973 46.0007C74.9881 44.8778 75.3802 43.5952 75.4361 42.2761V42.3223Z" fill="#9139FA"/>
</svg>
