<svg width="80" height="80" viewBox="0 0 80 80" fill="none" xmlns="http://www.w3.org/2000/svg">
<path d="M20.3404 40.3362V31.0724H21.7713H23.2022V31.6848C23.2022 32.0216 23.2073 32.2971 23.2135 32.2971C23.2197 32.2971 23.4003 32.1862 23.6149 32.0505C26.1458 30.4501 29.825 29.9682 33.1249 30.8048C36.0978 31.5586 38.253 33.3479 39.0192 35.6984C39.4669 37.072 39.4422 38.5995 38.9508 39.928C38.3396 41.5805 37.083 42.9091 35.2705 43.8192C33.6844 44.6157 31.8735 45.0145 29.8432 45.0145C28.1601 45.0145 26.5903 44.7312 25.2085 44.178C24.6602 43.9585 23.9573 43.5982 23.531 43.318L23.2022 43.1019V46.351V49.6H21.7713H20.3404V40.3362ZM31.2274 42.5517C32.8371 42.3212 34.086 41.8057 35.0223 40.9851C35.7312 40.364 36.2248 39.5013 36.4118 38.5569C36.4883 38.1707 36.4885 37.2586 36.4126 36.8735C36.1924 35.7621 35.5616 34.7912 34.6172 34.1104C34.2365 33.836 33.4633 33.445 32.9698 33.2774C31.576 32.8041 29.8862 32.664 28.3384 32.8933C25.6512 33.2915 23.8349 34.6369 23.3476 36.5904C23.1326 37.4523 23.171 38.3827 23.4552 39.1959C24.1005 41.0431 26.0035 42.2724 28.6927 42.5791C29.2334 42.6408 30.7179 42.6248 31.2278 42.5517H31.2274ZM40.7147 40.3362V31.0724H42.1455H43.5764V31.6848C43.5764 32.0216 43.5827 32.2971 43.5902 32.2971C43.5978 32.2971 43.7553 32.1976 43.9402 32.0759C44.3679 31.7944 45.2124 31.3733 45.7538 31.1716C48.0911 30.3006 50.945 30.1601 53.4425 30.7931C57.5136 31.825 59.911 34.652 59.6847 38.1537C59.5119 40.8267 57.7501 43.0224 54.8523 44.1762C53.907 44.5525 52.9382 44.7899 51.7258 44.9422C51.0859 45.0225 49.3613 45.0224 48.6933 44.942C46.8027 44.7143 45.1428 44.1475 43.8486 43.2878L43.5764 43.107V46.3535V49.6H42.1455H40.7147V40.3362ZM51.6709 42.5381C53.9003 42.202 55.4713 41.2953 56.2968 39.8684C56.7763 39.0396 56.9558 37.937 56.778 36.9133C56.4084 34.7855 54.556 33.3131 51.7201 32.8929C49.8482 32.6156 47.7348 32.8918 46.2982 33.6016C44.8316 34.3262 43.949 35.4081 43.6477 36.8505C43.5686 37.2292 43.5689 38.2026 43.6485 38.5737C43.8619 39.5728 44.3442 40.3994 45.0762 41.0207C46.0841 41.8761 47.3959 42.3854 49.0981 42.5823C49.6611 42.6475 51.1114 42.6225 51.6713 42.5381H51.6709ZM8.52024 44.9954C7.00224 44.8601 5.70657 44.5581 4.60478 44.0831C2.09878 43.0025 0.515977 41.1787 0.0864247 38.8768C0.00438468 38.4371 -0.0269113 37.4466 0.0262887 36.9733C0.336481 34.2135 2.35026 32.0276 5.53409 30.9946C7.22838 30.4449 9.31394 30.2653 11.1859 30.508C14.6155 30.9526 17.2098 32.5581 18.35 34.9417C19.2785 36.8824 19.1606 39.2399 18.0446 41.0523C17.5419 41.8688 16.7142 42.7113 15.8612 43.2748C14.5342 44.1515 12.9492 44.6969 11.0243 44.9393C10.6387 44.9878 8.8779 45.0273 8.52024 44.9954ZM10.5502 42.5821C12.043 42.4221 13.2988 41.9919 14.2437 41.3167C15.0161 40.7648 15.6274 39.9513 15.9016 39.1102C16.0622 38.6179 16.094 38.3868 16.094 37.7141C16.094 37.0434 16.0627 36.8142 15.9034 36.3215C15.3798 34.7023 13.8484 33.4978 11.7086 33.0223C9.83251 32.6055 7.64462 32.7504 6.02358 33.3989C4.8541 33.8667 3.931 34.624 3.38967 35.5598C2.81404 36.5548 2.68345 37.9101 3.05066 39.078C3.44631 40.3364 4.48859 41.3896 5.92291 41.9803C6.70415 42.3021 7.67146 42.5262 8.62911 42.6075C8.99655 42.6387 10.1665 42.6232 10.5502 42.5821ZM69.5808 44.9965C69.5209 44.9896 69.311 44.9686 69.1142 44.9498C67.5345 44.7986 65.8738 44.295 64.6563 43.5979C63.0104 42.6555 61.8639 41.316 61.3406 39.7239C60.9864 38.6464 60.926 37.4355 61.1707 36.3214C61.5408 34.6369 62.5565 33.2065 64.1338 32.1486C66.2139 30.7534 69.2724 30.1338 72.2248 30.5094C74.6777 30.8214 76.6986 31.7271 78.1048 33.1446C79.1757 34.2241 79.7914 35.489 79.9694 36.9753C80.0156 37.3616 80.0084 38.1427 79.9548 38.5525C79.5689 41.5039 77.2515 43.7596 73.7023 44.6384C72.6263 44.9048 71.9508 44.9855 70.6851 44.9986C70.1376 45.0043 69.6407 45.0034 69.5808 44.9965ZM71.4627 42.5968C73.3522 42.4213 74.8923 41.7926 75.881 40.7933C76.5504 40.1166 76.9389 39.3717 77.0921 38.4715C77.1552 38.1005 77.1543 37.3272 77.0903 36.9424C76.7459 34.871 74.9368 33.3695 72.2559 32.9301C71.6123 32.8246 71.1842 32.7903 70.514 32.7903C67.5084 32.7903 65.1764 33.9343 64.2794 35.8489C64.0121 36.4195 63.8887 37.0084 63.8887 37.7141C63.8887 38.6452 64.1037 39.3837 64.589 40.1196C65.4798 41.4705 67.1692 42.3335 69.4052 42.58C69.8664 42.6308 70.9969 42.64 71.4627 42.5968Z" fill="#9139FA"/>
</svg>
