<svg width="80" height="80" viewBox="0 0 80 80" fill="none" xmlns="http://www.w3.org/2000/svg">
<g clip-path="url(#clip0_3033_1559)">
<path d="M34.2353 40.693C34.2353 44.4912 31.2713 47.2901 27.6339 47.2901C23.9964 47.2901 21.0325 44.4912 21.0325 40.693C21.0325 36.8681 23.9964 34.096 27.6339 34.096C31.2713 34.096 34.2353 36.8681 34.2353 40.693ZM31.3455 40.693C31.3455 38.3195 29.6277 36.6956 27.6339 36.6956C25.6401 36.6956 23.9223 38.3195 23.9223 40.693C23.9223 43.0427 25.6401 44.6905 27.6339 44.6905C29.6277 44.6905 31.3455 43.0398 31.3455 40.693Z" fill="#9139FA"/>
<path d="M48.4766 40.693C48.4766 44.4912 45.5127 47.2901 41.8752 47.2901C38.2378 47.2901 35.2738 44.4912 35.2738 40.693C35.2738 36.871 38.2378 34.096 41.8752 34.096C45.5127 34.096 48.4766 36.8681 48.4766 40.693ZM45.5868 40.693C45.5868 38.3195 43.869 36.6956 41.8752 36.6956C39.8814 36.6956 38.1636 38.3195 38.1636 40.693C38.1636 43.0427 39.8814 44.6905 41.8752 44.6905C43.869 44.6905 45.5868 43.0398 45.5868 40.693Z" fill="#9139FA"/>
<path d="M62.1244 34.4946V46.3383C62.1244 51.2102 59.2584 53.2 55.8701 53.2C52.6807 53.2 50.7611 51.0615 50.0371 49.3126L52.5531 48.2627C53.0011 49.3364 54.0989 50.6034 55.8672 50.6034C58.036 50.6034 59.38 49.262 59.38 46.7368V45.788H59.2791C58.6323 46.5881 57.3862 47.2871 55.8138 47.2871C52.5234 47.2871 49.509 44.4139 49.509 40.7168C49.509 36.993 52.5234 34.096 55.8138 34.096C57.3833 34.096 58.6294 34.795 59.2791 35.5713H59.38V34.4975H62.1244V34.4946ZM59.5847 40.7168C59.5847 38.3939 58.0389 36.6956 56.0719 36.6956C54.0781 36.6956 52.4077 38.3939 52.4077 40.7168C52.4077 43.016 54.0781 44.6905 56.0719 44.6905C58.0389 44.6905 59.5847 43.016 59.5847 40.7168Z" fill="#9139FA"/>
<path d="M66.649 27.5525V46.8855H63.8304V27.5525H66.649Z" fill="#9139FA"/>
<path d="M77.6326 42.8643L79.8756 44.3633C79.1517 45.437 77.4072 47.2871 74.3928 47.2871C70.6544 47.2871 67.8625 44.3901 67.8625 40.69C67.8625 36.7669 70.6782 34.093 74.0694 34.093C77.4843 34.093 79.1547 36.8175 79.7006 38.2898L80.0002 39.0393L71.2033 42.6918C71.8768 44.0153 72.9241 44.6905 74.3928 44.6905C75.8644 44.6905 76.885 43.9648 77.6326 42.8643ZM70.7286 40.4908L76.609 38.0429C76.2857 37.219 75.3125 36.645 74.1673 36.645C72.6986 36.645 70.6544 37.9448 70.7286 40.4908Z" fill="#9139FA"/>
<path d="M10.3635 38.9768V36.178H19.7716C19.8636 36.6658 19.911 37.2428 19.911 37.8674C19.911 39.9673 19.3384 42.5638 17.493 44.4139C15.698 46.2877 13.4046 47.287 10.3664 47.287C4.73521 47.287 0 42.6888 0 37.0435C0 31.3983 4.73521 26.8 10.3664 26.8C13.4817 26.8 15.701 28.0254 17.3684 29.6226L15.3983 31.5976C14.2027 30.4733 12.5827 29.5988 10.3635 29.5988C6.25131 29.5988 3.03517 32.9211 3.03517 37.0435C3.03517 41.1659 6.25131 44.4882 10.3635 44.4882C13.0307 44.4882 14.5498 43.4145 15.523 42.4389C16.3122 41.6477 16.8314 40.5175 17.0361 38.9738L10.3635 38.9768Z" fill="#9139FA"/>
</g>
<defs>
<clipPath id="clip0_3033_1559">
<rect width="80" height="80" fill="white"/>
</clipPath>
</defs>
</svg>
