<svg width="120" height="80" viewBox="0 0 120 80" fill="none" xmlns="http://www.w3.org/2000/svg">
<path d="M108.943 47.9073H97.8447L98.2977 46.8512V28.5578L97.8447 27.5394H101.96L101.507 28.5955L101.544 38.7795V45.8705H108.868L110 45.4179L108.943 47.9073Z" fill="#9139FA"/>
<path d="M39.9737 48.0205H28.875L29.328 47.0021V28.671L28.875 27.6903H41.0307L40.0115 30.0665L38.9545 29.6893H32.5746V36.8558H39.9737L39.1432 38.8926H32.5746V45.9837H39.8982L41.0685 45.5311L39.9737 48.0205Z" fill="#9139FA"/>
<path d="M79.7626 28.6333V47.9451H79.4606L77.3088 45.5311C77.1578 45.3802 77.0068 45.2293 76.8558 45.0407L73.2695 40.9294L65.002 31.5753V46.9267L65.455 47.9828H62.0952L62.5482 46.9267V28.7841L61.4912 27.6149H62.133H62.2462H65.8326L77.3088 40.5523V38.8549V37.3839V28.6333L76.8558 27.5771H80.2156L79.7626 28.6333Z" fill="#9139FA"/>
<path d="M54.7344 46.3231L48.0525 36.7427C48.0525 36.7427 48.128 36.7427 48.2413 36.7427C50.5818 37.0444 52.6959 37.0444 54.0549 35.5734C54.6212 34.9699 55.0364 34.027 55.0364 32.82C55.0364 31.0849 53.7529 29.8779 52.5826 29.3876C51.2613 28.8218 49.3361 28.935 47.2598 29.1613V46.8512L47.7505 47.9073H43.4092L44.0509 46.8512V28.5578L43.5979 27.5394H47.1843C47.1843 27.5017 47.1843 27.5017 47.1843 27.5017H50.4686C55.3007 27.4263 58.2452 29.463 58.2452 32.8577C58.2452 36.2523 55.8669 37.912 53.1866 38.44L58.4717 45.9082C59.0758 46.8135 59.9063 47.6433 60.246 47.7187V47.945C58.2075 48.0205 55.9424 48.2468 54.7344 46.3231Z" fill="#9139FA"/>
<path d="M94.0704 47.9073H82.9717L83.3869 46.8512V28.5578L82.9717 27.5394H95.1274L94.1082 29.9534L93.0134 29.5762H86.6713V36.7427H94.0704L93.2021 38.7795H86.6713V45.8705H93.9949L95.1274 45.4179L94.0704 47.9073Z" fill="#9139FA"/>
<path d="M31.8587 52.3958C28.9141 52.773 26.2716 52.0941 24.233 50.9248C21.968 49.6047 20.5712 47.8319 18.6837 45.1916L13.7006 38.1006V46.8889L14.1536 47.9073H10.001L10.454 46.8512V28.5201L10.0387 27.5394H14.1536L13.7006 28.5578V38.1006L21.8925 28.5578L21.4772 27.5394H27.7438L27.5928 27.728C26.3848 27.9543 25.0635 28.8596 23.8933 30.142L17.3624 37.6857L22.3077 44.6636C24.082 47.3416 24.9503 48.2091 26.0828 49.2275C27.6306 50.6231 29.7446 51.5283 32.0852 51.9055C32.0097 52.0564 31.9342 52.2827 31.8587 52.3958Z" fill="#9139FA"/>
</svg>
