<svg width="120" height="80" viewBox="0 0 120 80" fill="none" xmlns="http://www.w3.org/2000/svg">
<path d="M53.6297 29.3763V36.0214C53.6297 36.5632 53.5874 37.088 53.5112 37.6044C52.8511 42.0147 49.4744 45.5362 45.1415 46.4165V50.6067H40.8931V46.4165C36.4756 45.5192 33.0481 41.8708 32.4811 37.342C32.4304 36.9102 32.3965 36.4616 32.3965 36.013V29.3763H36.6448V36.013C36.6448 39.526 39.4883 42.3787 43.0089 42.3787C46.5294 42.3787 49.3814 39.5345 49.3814 36.013V29.3763H53.6297Z" fill="white"/>
<path d="M112 29.3763V36.0214C112 36.5632 111.957 37.088 111.881 37.6044C111.221 42.0147 107.845 45.5362 103.511 46.4165V50.6067H99.2629V46.4165C94.8456 45.5192 91.4179 41.8708 90.8508 37.342C90.8004 36.9102 90.7666 36.4616 90.7666 36.013V29.3763H95.0145V36.013C95.0145 39.526 97.8584 42.3787 101.379 42.3787C104.899 42.3787 107.751 39.5345 107.751 36.013V29.3763H112Z" fill="white"/>
<path d="M86.5355 29.3763H82.2871V50.6067H86.5355V29.3763Z" fill="white"/>
<path d="M74.746 42.9628C76.7348 41.6253 78.0466 39.3736 78.0466 36.8171C78.0466 33.6597 76.0663 30.9678 73.2734 29.8842C72.4269 29.5541 71.5129 29.3763 70.557 29.3763H56.8301V33.6258H70.557C72.317 33.6258 73.7387 35.0564 73.7387 36.8171C73.7387 38.5779 72.3084 40 70.557 40H56.8301V44.2495H67.324C69.2029 44.2495 70.8953 45.0706 72.0634 46.3742C73.0702 47.5001 73.6797 48.9899 73.6797 50.6237H78.038C78.038 49.1169 77.7164 47.6778 77.1492 46.3742C76.5826 45.0875 75.7699 43.9363 74.7626 42.9797L74.746 42.9628Z" fill="white"/>
<path d="M29.2247 29.3763L20.7365 50.6067H16.4882L8 29.3763H12.2483L18.6123 45.2991L24.9764 29.3763H29.2247Z" fill="white"/>
</svg>
