<svg width="80" height="80" viewBox="0 0 80 80" fill="none" xmlns="http://www.w3.org/2000/svg">
<path d="M11.0002 49.4077C9.7968 49.6189 8.57219 49.6822 7.30539 49.8508L3.44148 38.5446V50.336C2.23805 50.4625 1.14016 50.6313 0 50.8V29.2H3.20938L7.60094 41.4557V29.2H11.0002V49.4077ZM17.6511 37.1102C18.9602 37.1102 20.966 37.0469 22.1695 37.0469V40.4218C20.6703 40.4218 18.918 40.4218 17.6511 40.4851V45.5055C19.6359 45.379 21.6205 45.2101 23.6262 45.1468V48.395L14.2728 49.1335V29.2H23.6262V32.575H17.6511V37.1102ZM36.1889 32.5751H32.6841V48.1001C31.5439 48.1001 30.4037 48.1001 29.306 48.1421V32.5751H25.8012V29.2H36.1891L36.1889 32.5751ZM41.6784 36.8782H46.3024V40.2531H41.6784V47.9103H38.3634V29.2H47.8015V32.575H41.6784V36.8782ZM53.291 44.957C55.2124 44.9991 57.1548 45.147 59.034 45.2523V48.5852C56.0148 48.3952 52.9955 48.2056 49.9129 48.1421V29.2H53.291V44.957ZM61.8843 48.8172C62.9611 48.8806 64.1012 48.9439 65.1991 49.0702V29.2H61.8843V48.8172ZM80 29.2L75.7138 39.4727L80 50.8C78.733 50.6313 77.4662 50.3992 76.1994 50.1882L73.7714 43.9446L71.3013 49.6822C70.0765 49.471 68.8941 49.4077 67.6698 49.239L72.0191 39.346L68.0919 29.2H71.7233L73.9402 34.8742L76.3051 29.2H80Z" fill="#9139FA"/>
</svg>
