<svg width="80" height="80" viewBox="0 0 80 80" fill="none" xmlns="http://www.w3.org/2000/svg">
<path d="M8.82493 54.3882C6.44094 54.2928 4.48787 53.6333 2.96574 52.4097C2.53088 52.0303 2.12419 51.6192 1.74895 51.1796C1.17028 50.4668 0.723417 49.6545 0.429749 48.7817C-0.43345 46.1704 0.0105493 42.7444 1.70015 38.9838C3.14574 35.7648 5.38014 32.5724 9.27053 28.1539C9.84413 27.5073 11.5513 25.6 11.5625 25.6C11.5737 25.6 11.4737 25.7584 11.3601 25.9572C10.3473 27.6706 9.48173 29.6879 9.00973 31.4344C8.25133 34.2373 8.34333 36.6425 9.27693 38.5078C9.92173 39.7929 11.0265 40.9057 12.2689 41.5208C14.4441 42.5973 17.6289 42.6862 21.5177 41.781C21.7857 41.7188 35.0529 38.1603 51.0017 33.8744C66.9504 29.5885 80 26.0817 80 26.0857C80 26.0897 42.9473 42.1092 23.7097 50.4199C20.6633 51.7357 19.8489 52.0679 18.4169 52.5762C14.7553 53.875 11.4761 54.4949 8.82493 54.3882Z" fill="#9139FA"/>
</svg>
