<svg width="80" height="80" viewBox="0 0 80 80" fill="none" xmlns="http://www.w3.org/2000/svg">
<path d="M60.8437 33.9829V35.5378H62.371C63.0376 35.5378 63.4767 35.9561 63.7259 36.227C63.9258 36.449 68.3254 41.4087 68.4312 41.5387C68.537 41.6688 68.537 41.6713 68.537 41.7541V44.2111C68.5369 44.3238 68.5255 44.4362 68.5029 44.5466C68.4719 44.618 68.4256 44.6818 68.3671 44.7335C68.3087 44.7852 68.2395 44.8235 68.1646 44.8457C68.02 44.8639 67.8745 44.873 67.7288 44.873H66.1998V46.4279H74.778V44.8714H73.164C73.0194 44.8722 72.8749 44.8631 72.7316 44.844C72.6575 44.8213 72.5893 44.7827 72.5317 44.7311C72.4742 44.6794 72.4286 44.6159 72.3983 44.545C72.3761 44.4359 72.3644 44.3249 72.3633 44.2136V41.7533C72.3536 41.6726 72.3741 41.5913 72.4208 41.5246L77.1803 36.1259C77.6169 35.643 77.8469 35.5378 78.4168 35.5378H80V33.982H72.9224V35.5345H73.9923C74.0315 35.5321 74.0708 35.5374 74.108 35.5502C74.1451 35.563 74.1794 35.5829 74.2088 35.6088C74.2382 35.6347 74.2622 35.6662 74.2794 35.7013C74.2965 35.7365 74.3066 35.7746 74.3089 35.8136C74.3135 35.8848 74.2919 35.9552 74.2481 36.0116C74.2264 36.0439 71.2884 39.4776 71.2484 39.5108C71.2084 39.5439 71.1876 39.5365 71.1609 39.5C71.1343 39.4636 68.2312 36.0116 68.2312 36.0116C68.0263 35.7631 68.1871 35.5345 68.427 35.5345H69.4669V33.982L60.8437 33.9829ZM39.8042 33.9829V35.5378H41.1732C42.1623 35.5378 42.229 36.0853 42.229 36.5625V43.8425C42.229 44.2782 42.2548 44.8763 41.6248 44.8763H39.935V46.4296H47.1484V44.8805H45.3895C44.687 44.8805 44.6545 44.5607 44.6462 43.8814V37.6411L54.5543 46.4296H57.0774L56.9416 36.5037C56.9541 35.778 56.9991 35.5361 57.754 35.5361H59.3372V33.9829H51.9738V35.5361H53.5894C54.3319 35.5361 54.4568 35.8211 54.466 36.5037L54.5543 41.6978L45.9536 33.9829H39.8042ZM7.31927 33.2C5.76944 33.2 4.00795 33.4891 2.51978 34.1543C1.13076 34.774 4.0706e-05 35.7623 4.0706e-05 37.405C-0.00420504 38.2663 0.323826 39.0964 0.916611 39.7245C1.31824 40.0931 1.9665 40.7186 3.65882 41.0889C4.41541 41.2479 6.03274 41.5031 7.64424 41.6688C9.25574 41.8344 10.8164 41.9869 11.4563 42.1567C11.9655 42.2859 12.8212 42.4607 12.8212 43.415C12.8212 44.3694 11.9205 44.6576 11.7638 44.7181C11.6072 44.7786 10.5248 45.2731 8.58331 45.2731C7.29634 45.2377 6.02108 45.0196 4.79621 44.6253C4.07128 44.3677 3.31136 44.0289 2.6031 43.1682C2.3172 42.763 2.15832 42.2828 2.14648 41.7881H0.39V46.6872H2.34563V46.0245C2.34541 45.9882 2.35239 45.9522 2.36617 45.9185C2.37996 45.8848 2.40027 45.8542 2.42596 45.8284C2.45165 45.8025 2.48221 45.782 2.51589 45.7679C2.54957 45.7538 2.58572 45.7464 2.62227 45.7462C2.67365 45.7456 2.72417 45.7594 2.76808 45.7859C3.68896 46.1836 4.64676 46.4907 5.62779 46.703C6.65518 46.9159 7.31927 47.07 8.59581 47.07C9.94297 47.0959 11.2856 46.9074 12.5729 46.5116C13.4279 46.2786 14.23 45.8849 14.936 45.3518C15.3331 45.0485 15.654 44.6578 15.8736 44.2103C16.0933 43.7629 16.2055 43.2709 16.2017 42.773C16.2072 41.8287 15.8402 40.9198 15.1793 40.2414C14.8104 39.8858 14.3828 39.5958 13.9153 39.384C13.4141 39.1587 12.8938 38.9783 12.3604 38.8447C11.3455 38.5962 9.06826 38.2897 7.97837 38.182C6.83599 38.0644 4.8537 37.9012 4.06212 37.6576C3.82547 37.5823 3.33303 37.3511 3.33303 36.787C3.33303 36.3844 3.55717 36.0414 3.99962 35.7689C4.70205 35.3315 6.1194 35.0589 7.59758 35.0589C9.02747 35.0425 10.4455 35.3183 11.7638 35.8691C12.1181 36.0226 12.4513 36.2202 12.7554 36.4573C13.2511 36.8783 13.5944 37.4492 13.7328 38.0826H15.3118V33.8188H13.557V34.3159C13.557 34.4749 13.397 34.6853 13.077 34.5114C12.2838 34.0972 10.0532 33.2133 7.31927 33.2025V33.2ZM28.4971 33.2C25.7248 33.2 22.781 34.1543 21.117 35.6571C20.4828 36.2312 19.9765 36.9311 19.6306 37.7115C19.2848 38.4919 19.107 39.3356 19.1089 40.1884C19.0989 41.0449 19.2729 41.8936 19.6192 42.6779C19.9655 43.4622 20.4761 44.1639 21.117 44.7363C22.9093 46.3376 25.5974 47.2 28.4971 47.2C31.3968 47.2 34.1481 46.3509 35.8963 44.7397C36.5182 44.1538 37.0143 43.4488 37.3547 42.6672C37.6951 41.8856 37.8727 41.0435 37.8769 40.1917C37.886 39.3405 37.7143 38.4969 37.3732 37.7161C37.032 36.9353 36.5291 36.2348 35.8971 35.6604C34.0206 33.9688 31.5651 33.2 28.4971 33.2ZM28.4971 35.0225C30.0136 35.0225 31.4742 35.5651 32.4583 36.5277C33.4132 37.4563 33.9082 38.7735 33.9082 40.1826C33.9082 41.6588 33.4557 42.8542 32.4591 43.8408C31.4626 44.8275 30.0352 45.3552 28.4971 45.3552C26.9589 45.3552 25.5132 44.8159 24.5291 43.8408C24.0588 43.3553 23.6895 42.7822 23.4424 42.1544C23.1954 41.5267 23.0753 40.8566 23.0893 40.1826C23.0893 38.7793 23.5809 37.458 24.5291 36.5244C25.514 35.5576 26.9814 35.0225 28.4971 35.0225Z" fill="#9139FA"/>
</svg>
