<svg width="80" height="80" viewBox="0 0 80 80" fill="none" xmlns="http://www.w3.org/2000/svg">
<path d="M34.6713 53.1998C32.7585 51.8055 30.1321 51.1155 28.3113 51.2822C26.0969 51.3187 25.2105 53.0291 25.2105 53.0291C22.5457 48.2133 14.4345 50.9805 12.8497 51.3616C11.2649 51.7428 8.90973 52.3573 6.95933 52.5606C4.18333 52.7933 1.85533 51.6816 0.733727 49.5917C-0.716673 46.5744 0.253727 42.8726 1.32013 40.2864C3.17533 35.9986 6.45373 32.0855 10.5521 29.2596C12.4257 28.1177 14.4561 27.0863 16.6393 27.2101C17.2793 27.3261 17.7889 27.6675 18.0857 28.163C18.7937 29.5502 17.8937 31.039 17.2857 31.8156C16.7201 32.5048 15.4105 32.7684 15.4625 31.5099C15.4985 30.6896 16.1721 30.0806 16.4177 29.89C16.7193 29.6939 17.1081 29.6613 17.3409 29.6613C17.5617 29.4581 17.7321 28.0344 15.9073 28.4997C13.5265 29.2405 11.7233 31.0858 9.77933 33.2353C6.29693 37.3691 4.33933 41.0963 3.61133 44.9672C3.29773 47.3422 3.71693 48.9906 4.88573 50.0149C7.92573 52.1001 10.2457 51.0615 17.1881 49.4416C23.7033 47.6471 27.7433 47.9814 30.7201 49.8847C32.2273 50.8471 34.0345 52.2486 34.6713 53.1998ZM17.9137 38.2949C18.4577 38.4331 20.1977 37.1984 21.2129 36.0867C22.0193 35.2006 23.4001 34.0595 24.2721 33.7332C24.9241 33.4203 25.9313 33.3187 26.5921 33.7109C27.0353 33.9658 27.3321 34.4883 27.3633 35.0409C27.4505 36.5806 25.6449 39.1088 24.7401 37.8304C24.5537 37.2746 24.7577 36.6894 25.3433 36.0835C25.6409 35.7778 26.0065 35.6404 26.4633 35.6547C26.6433 35.3713 26.5977 34.9576 26.3129 34.79C26.0145 34.609 25.4129 34.7329 24.8593 35.1608C22.8985 36.7084 21.1745 39.2724 20.1745 42.0984C19.9977 42.6288 19.9009 43.4355 20.2153 43.9882C21.0737 45.3023 23.0841 43.4728 23.0841 43.4728C24.4441 42.2746 25.7497 40.6143 26.7777 39.139C29.4473 35.299 32.9937 31.9926 34.5593 34.1429C34.5873 34.1794 34.6281 34.2556 34.6449 34.2699C34.6673 34.2414 34.9433 33.7935 34.9433 33.7935H37.4713C37.4713 33.7935 32.1177 43.0091 32.1113 43.0242C32.0001 43.2489 31.9289 43.5657 32.1113 43.719C32.2569 43.8206 32.5113 43.692 32.5113 43.692C33.8993 43.0234 36.0377 39.9473 36.0481 39.9473H36.9185C35.5537 41.9324 33.8641 44.2296 31.7665 45.6962C31.1841 46.0813 30.4177 46.4902 29.6609 46.2226C28.8609 45.7216 29.0097 45.0967 29.0609 44.3415C29.0545 44.3415 27.0689 46.7387 25.4057 46.2591C24.8561 46.0844 23.9769 45.612 24.6289 43.3601C24.6289 43.3601 24.6793 43.1576 24.7169 43.0052C24.5657 43.1505 24.2985 43.4022 24.2985 43.4022C22.7289 44.9275 20.9489 46.6419 18.7209 46.271C17.0489 45.7557 17.0937 44.0557 17.0353 43.5904C16.8473 42.065 18.6889 38.9929 18.6961 38.9706C18.2161 39.1088 17.7841 39.2089 17.4281 39.2756C17.4001 39.3192 16.8241 40.2641 16.8241 40.2641C16.1977 41.2964 15.5497 42.3707 14.7121 43.264L14.5521 43.4316C13.3201 44.8608 10.4217 47.5351 8.86093 45.6969C7.81133 44.1359 8.77533 40.758 11.0089 37.8526C13.4505 34.613 16.5001 32.7239 18.0169 33.7117C19.5617 34.8369 18.0921 37.8225 17.9137 38.2949ZM27.7433 43.7952C27.8817 43.8977 28.0889 43.8834 28.2145 43.8468C29.0945 43.3601 29.6361 42.6621 30.1729 41.849C30.1729 41.849 30.5561 41.2678 30.5529 41.2749C31.7681 39.27 33.0609 37.0403 34.1529 35.0934C34.1121 34.7757 33.6433 34.3231 32.4729 35.3482C32.1241 35.6532 30.6929 37.462 30.2017 38.1369C28.2241 40.7811 27.5833 42.6915 27.5305 43.3156C27.5174 43.4073 27.5303 43.5008 27.5679 43.5856C27.6056 43.6703 27.6663 43.743 27.7433 43.7952ZM16.4921 39.1898C16.4921 39.1755 16.4873 39.1676 16.4825 39.1676C15.7353 38.9516 14.7353 38.4752 14.2017 37.4596C14.2017 37.4445 14.1969 37.4445 14.1953 37.4374C14.1801 37.4391 14.1654 37.444 14.1521 37.4516C13.3025 38.6649 12.4297 39.9727 11.8793 41.4544L11.8113 41.6728C11.6193 42.2826 11.3833 43.0377 11.8417 43.5832C12.0577 43.8516 12.4817 43.7857 12.7889 43.6841C13.8241 43.1544 14.6529 42.0499 15.3161 41.1709C15.3161 41.1709 16.4153 39.3915 16.4177 39.3915C16.4289 39.37 16.4513 39.3041 16.4513 39.3041C16.4713 39.2686 16.4851 39.2299 16.4921 39.1898ZM17.8057 35.7103C17.8057 35.3617 17.7257 35.0417 17.5129 34.7948C17.1697 34.5264 16.5777 34.6638 16.1977 34.9258C15.7977 35.2236 14.9001 36.0446 15.1193 37.0904C15.2793 37.6279 15.7937 38.0781 16.4793 38.2886L16.6969 38.3251C16.8241 38.3545 16.9369 38.3831 17.0049 38.3251C17.0049 38.3251 17.4897 37.2214 17.4945 37.2071C17.6585 36.7108 17.8057 36.1812 17.8057 35.7087V35.7103ZM49.3257 44.2018C48.0345 47.6955 45.4433 50.7319 42.5609 52.1422C41.2305 52.6726 39.3465 52.9918 37.9257 51.5173C36.2545 49.7815 36.4625 46.8539 37.1473 44.864C38.0353 41.907 39.7017 38.9143 42.3889 35.4499C46.0433 31.0231 49.4521 28.4703 53.1233 27.4277C54.1441 27.1808 55.5297 27.0934 56.3745 28.0089C56.3745 28.0089 56.7833 27.8708 57.2305 27.7112C58.3689 27.3046 60.6057 26.7814 63.3537 28.267C64.5641 28.9284 65.7929 29.5962 66.9537 30.3013L67.6793 30.7476C67.1777 31.224 66.2865 32.1641 65.7441 32.7883C64.6321 32.3118 61.3361 29.8035 59.7881 29.2945C59.7881 29.2945 57.8073 28.3941 56.8417 28.9022C56.8561 29.0769 56.8657 29.3088 56.8657 29.4835C56.8657 30.9215 56.3153 32.215 55.6969 33.5148C54.6297 35.2291 53.3233 37.1031 51.2969 37.5684C50.8585 37.597 50.3129 37.5533 50.0057 37.0014C49.4185 35.9406 50.0057 34.7424 50.4217 33.8562C52.0793 30.3625 55.5385 28.4703 55.5385 28.4703C54.9369 28.2408 54.2393 28.3281 53.4881 28.7085C49.8017 30.5149 47.0657 33.9071 44.5833 37.2126C42.1761 40.7715 40.4937 43.8953 40.1033 47.5629C40.0153 48.8564 40.4313 49.8593 41.2465 50.3381C42.5409 51.1226 44.0209 50.1054 45.0209 49.263C46.1521 48.2609 47.2697 46.8078 48.0009 45.3547C48.9881 43.3791 49.2489 41.3385 48.5065 41.0907C47.6561 40.8525 46.8985 41.7522 46.5201 42.3112C45.9065 43.1649 45.4975 44.1464 45.3241 45.1808C43.8841 45.82 42.6129 46.9896 41.9905 47.7011C42.1833 46.1178 42.4777 45.1229 43.0177 43.9167C44.0457 41.5703 46.0041 39.9362 48.0065 39.7544C48.3016 39.7338 48.5961 39.8009 48.8526 39.9471C49.1091 40.0933 49.3158 40.3121 49.4465 40.5754C49.9825 41.6942 49.6369 43.16 49.3257 44.2002V44.2018ZM56.0401 29.1714C53.9441 30.2394 51.9905 32.3237 50.8465 34.7789C50.0689 36.6052 50.9393 36.8267 51.4497 36.7259C52.2913 36.5226 55.6897 33.973 56.0753 29.6288C56.096 29.4756 56.084 29.3197 56.0401 29.1714ZM76.2545 30.1806C74.4249 31.2121 72.5281 31.8846 70.2321 31.6464C69.5921 32.3611 68.9761 33.0924 68.4049 33.8475C71.6273 34.6606 75.0449 32.8526 76.9497 31.1311C78.9657 29.3961 79.9993 27.2101 79.9993 27.2101C78.9083 28.3812 77.6459 29.3826 76.2545 30.1806ZM41.6721 33.7983H39.2721L37.9193 35.9819H40.3193L41.6721 33.7983ZM69.7369 49.7235C69.6017 50.1205 69.9641 50.2571 70.2225 50.0824C71.7049 49.2177 72.8841 47.3962 73.8105 46.0058H74.6649C74.0129 47.0976 71.5033 50.8741 69.4065 52.008C68.8217 52.32 68.3161 52.6845 67.6409 52.5638C66.6561 52.4407 66.6073 51.2052 66.7873 50.5152C66.2273 51.1036 65.0209 52.2517 63.9385 52.5424C62.9953 52.7234 61.7593 52.3526 62.0985 49.9848C60.5105 51.9611 58.5593 53.4571 57.3785 52.0119C56.5537 50.9876 56.9577 49.259 57.8305 46.7165C57.8305 46.7165 58.1249 45.8431 58.1577 45.7359C58.1508 45.7308 58.1423 45.7283 58.1337 45.7287C57.5649 45.874 56.8129 45.8955 56.7577 45.9026C55.3793 48.2998 53.6313 50.9217 51.1297 52.2295C50.7609 52.4185 49.8241 52.8107 49.0801 52.4328C48.3601 52.0262 48.0721 51.2123 48.2113 49.949C48.4097 48.3363 49.1233 46.9317 49.8401 45.612C51.1721 43.5427 53.0177 41.0288 55.4881 40.0116C56.0393 39.7647 56.8569 39.6146 57.5185 39.9394C58.0825 40.3459 58.2337 40.9343 58.2337 41.5592C58.2284 41.8534 58.2044 42.147 58.1617 42.4382C57.9473 43.4554 57.5177 44.3923 57.1761 45.0895C57.3409 45.1983 58.3081 44.9736 58.5585 44.7846C62.0137 37.6224 65.9657 32.3777 70.6457 28.7387L70.6825 28.7164C71.5993 28.0963 72.7281 27.3332 73.7657 27.5293C73.9237 27.5605 74.068 27.6394 74.1789 27.7553C74.2897 27.8712 74.3617 28.0183 74.3849 28.1765C74.5545 29.2143 74.0937 30.0869 73.6777 30.8635C73.3804 30.9519 73.0787 31.0248 72.7737 31.0819L73.1593 30.2966C73.4337 29.759 73.6737 29.2866 73.6393 28.6473C73.5593 28.4798 73.4657 28.4727 73.3937 28.4798C72.7097 28.618 71.8321 29.4604 70.9857 30.2815L70.4377 30.8048C66.9593 34.2556 62.8721 41.4687 62.2393 42.9797C63.6689 42.2897 68.3817 37.6597 70.6849 34.4669C70.9773 34.4571 71.2685 34.4255 71.5561 34.3724C71.1865 35.087 68.6633 38.3092 65.6689 41.1495C64.35 42.3986 62.9359 43.5449 61.4393 44.5781C60.7849 45.9804 60.1361 47.5272 59.8569 49.155C59.8249 49.3797 59.7505 50.346 60.4737 50.2881C61.3993 50.0848 63.0673 47.3501 63.0673 47.3501C64.6521 44.8886 66.6617 41.7299 69.4153 40.1315C70.0489 39.7758 70.9673 39.59 71.5929 39.983C71.7385 40.0767 72.0929 40.5127 72.2113 40.7088C72.2113 40.7088 72.4721 40.253 72.5937 40.0545H75.1537L71.4145 46.6371C71.4145 46.6371 70.0745 48.7064 69.7369 49.7235ZM55.9449 45.7224C55.3201 45.4532 54.2857 44.8156 53.8297 43.823C52.7393 45.2126 51.1961 47.763 51.2209 49.1875C51.2161 49.4148 51.2793 49.6383 51.4025 49.8299C52.5097 51.1083 55.1689 47.4367 55.9449 45.7224ZM57.3409 42.6534C57.3409 42.6455 57.3473 42.6018 57.3473 42.6018C57.3826 42.3651 57.403 42.1264 57.4081 41.8871C57.4081 41.4949 57.3281 41.132 57.0201 40.928C56.6921 40.812 56.2441 40.8922 55.9465 41.1249C55.2545 41.5306 54.5385 42.3374 54.7521 43.3688C55.0041 44.5678 56.3081 45.0038 56.3825 44.9521C56.8005 44.2301 57.1226 43.4574 57.3409 42.6534ZM70.0953 44.309C70.5945 43.4355 71.1081 42.5295 71.6473 41.6648C71.679 41.6034 71.6999 41.5371 71.7089 41.4687C71.6948 41.331 71.6285 41.2038 71.5233 41.113C71.1505 40.9605 70.7977 41.1558 70.4729 41.3893C68.5425 42.9218 67.2281 45.13 66.0969 47.0039L65.9993 47.2144C65.6065 48.0211 65.1993 48.8485 65.2209 49.7426C65.2409 49.8664 65.3257 50.026 65.4465 50.0689C65.8841 50.2365 66.2465 49.9022 66.5977 49.5925L66.8449 49.3749C68.1073 47.8099 69.1193 46.0304 70.0953 44.309Z" fill="#9139FA"/>
</svg>
