<svg width="137" height="52" viewBox="0 0 137 52" fill="none" xmlns="http://www.w3.org/2000/svg">
<path d="M32.3842 40.3348C30.0676 40.3348 27.4709 37.1163 26.1739 32.6612L25.9247 31.7141C32.2226 28.4191 36.2487 23.0547 36.2487 16.8843H25.2958C25.2958 18.311 24.1038 19.8962 22.0254 21.2334C19.1914 23.0566 15.1552 24.1024 10.952 24.1024V4.01562H0V47.6713H10.9529V35.1678C12.4927 35.1678 13.9969 35.0728 15.4546 34.8911C15.4893 35.1097 15.5349 35.3282 15.597 35.5459C16.8255 39.8931 18.8655 43.6482 21.496 46.4056C24.6149 49.6739 28.38 51.402 32.3842 51.402C35.409 51.402 37.8606 48.925 37.8606 45.8689C37.8606 42.8127 35.409 40.3357 32.3842 40.3357V40.3348Z" fill="#161616"/>
<path d="M55.4267 51.401C51.4225 51.401 47.6574 49.6737 44.5386 46.4045C44.3241 46.1795 44.1133 45.948 43.9061 45.7101C43.6998 45.948 43.488 46.1795 43.2735 46.4045C40.1547 49.6728 36.3896 51.401 32.3854 51.401C29.3606 51.401 26.9089 48.924 26.9089 45.8678C26.9089 42.8117 29.3606 40.3347 32.3854 40.3347C34.7111 40.3347 37.3197 37.0931 38.6112 32.6113C38.7901 31.927 39.1005 31.275 39.534 30.695C40.5691 29.3089 42.1874 28.4946 43.9061 28.4946C43.928 28.4946 43.949 28.4946 43.9709 28.4946C43.6761 28.1423 43.3949 27.779 43.1293 27.4027C41.4417 25.0226 40.3619 22.2172 40.0068 19.2902C39.2648 13.1742 41.6854 7.27587 46.4837 3.51148C49.1735 1.4015 52.2668 0.285645 55.4276 0.285645C64.8453 0.285645 72.3691 9.95484 73.4023 22.801C73.8934 22.5575 74.3589 22.2947 74.7961 22.0134C76.8744 20.6763 78.0664 19.091 78.0664 17.6644C78.0664 14.6082 80.5181 12.1312 83.5429 12.1312C86.5677 12.1312 89.0194 14.6082 89.0194 17.6644C89.0194 25.7041 82.1884 32.377 72.4001 34.8836C69.8663 44.6265 63.3101 51.401 55.4276 51.401H55.4267ZM49.2356 32.7302C50.539 37.1503 53.122 40.3347 55.4267 40.3347C56.8387 40.3347 58.4077 39.1303 59.7312 37.0304C59.9768 36.6413 60.2077 36.229 60.424 35.7984C56.7904 35.4664 53.3128 34.5875 50.2232 33.2079C49.8882 33.0585 49.5596 32.899 49.2365 32.7302H49.2356ZM55.4267 11.352C54.7111 11.352 53.9618 11.6554 53.1996 12.252C50.7161 14.1997 50.748 16.8805 50.8767 17.942C51.1551 20.2318 52.5653 22.1555 54.6491 23.085C56.9674 24.1197 59.6792 24.7256 62.5516 24.8547C62.4047 20.9686 61.3952 17.2955 59.7312 14.6543C58.4077 12.5545 56.8387 11.3501 55.4267 11.3501V11.352Z" fill="#6D00F1"/>
<path d="M121.873 20.0183V16.8856H110.92V47.6717H121.873V35.1681C121.873 33.7415 123.065 32.1562 125.143 30.8191C127.977 28.9959 132.013 27.9501 136.216 27.9501V16.8838C130.85 16.8838 125.924 18.0338 121.874 20.0183H121.873Z" fill="#161616"/>
<path d="M89.024 4.01562H78.071V47.6713H89.024V4.01562Z" fill="#161616"/>
<path d="M105.443 16.8857H94.49V47.6718H105.443V16.8857Z" fill="#161616"/>
<path d="M99.9665 0C96.9416 0 94.49 2.47701 94.49 5.53316C94.49 8.58931 96.9416 11.0663 99.9665 11.0663C102.991 11.0663 105.443 8.58931 105.443 5.53316C105.443 2.47701 102.991 0 99.9665 0Z" fill="#161616"/>
</svg>
