<svg width="106" height="40" viewBox="0 0 106 40" fill="none" xmlns="http://www.w3.org/2000/svg">
<path d="M25.2006 31.3877C23.3979 31.3877 21.3772 28.8832 20.3679 25.4163L20.174 24.6793C25.0749 22.1152 28.2079 17.9408 28.2079 13.1391H19.6846C19.6846 14.2493 18.757 15.4829 17.1397 16.5235C14.9343 17.9422 11.7934 18.756 8.5226 18.756V3.125H0V37.0968H8.52331V27.3668C9.72154 27.3668 10.8921 27.2929 12.0264 27.1515C12.0534 27.3216 12.0889 27.4917 12.1372 27.6611C13.0932 31.044 14.6807 33.9661 16.7277 36.1119C19.1547 38.6551 22.0846 40 25.2006 40C27.5544 40 29.4622 38.0724 29.4622 35.6942C29.4622 33.316 27.5544 31.3884 25.2006 31.3884V31.3877Z" fill="white"/>
<path d="M43.1317 39.9991C40.0157 39.9991 37.0858 38.655 34.6588 36.111C34.4919 35.9359 34.3278 35.7558 34.1666 35.5706C34.0061 35.7558 33.8413 35.9359 33.6744 36.111C31.2474 38.6543 28.3175 39.9991 25.2015 39.9991C22.8477 39.9991 20.9398 38.0716 20.9398 35.6934C20.9398 33.3151 22.8477 31.3876 25.2015 31.3876C27.0113 31.3876 29.0413 28.8651 30.0463 25.3774C30.1855 24.845 30.427 24.3376 30.7644 23.8862C31.5698 22.8076 32.8292 22.174 34.1666 22.174C34.1836 22.174 34.2 22.174 34.217 22.174C33.9876 21.8998 33.7688 21.6171 33.5622 21.3243C32.2489 19.4721 31.4086 17.2891 31.1323 15.0113C30.5549 10.252 32.4385 5.66204 36.1724 2.73268C38.2656 1.09074 40.6727 0.222412 43.1324 0.222412C50.461 0.222412 56.3158 7.74675 57.1199 17.7433C57.502 17.5539 57.8642 17.3493 58.2045 17.1305C59.8218 16.0899 60.7494 14.8563 60.7494 13.7461C60.7494 11.3679 62.6572 9.44035 65.011 9.44035C67.3649 9.44035 69.2727 11.3679 69.2727 13.7461C69.2727 20.0024 63.957 25.1952 56.34 27.1457C54.3683 34.7274 49.2664 39.9991 43.1324 39.9991H43.1317ZM38.3139 25.47C39.3282 28.9096 41.3383 31.3876 43.1317 31.3876C44.2305 31.3876 45.4515 30.4504 46.4814 28.8163C46.6724 28.5135 46.8521 28.1927 47.0205 27.8576C44.1929 27.5992 41.4867 26.9153 39.0824 25.8418C38.8217 25.7255 38.566 25.6013 38.3146 25.47H38.3139ZM43.1317 8.83395C42.5748 8.83395 41.9917 9.07005 41.3986 9.53436C39.466 11.05 39.4908 13.1361 39.591 13.9621C39.8076 15.744 40.905 17.241 42.5265 17.9643C44.3306 18.7695 46.4409 19.241 48.6761 19.3415C48.5618 16.3174 47.7762 13.4591 46.4814 11.4038C45.4515 9.76974 44.2305 8.83252 43.1317 8.83252V8.83395Z" fill="#FDCC0D"/>
<path d="M94.838 15.5776V13.1399H86.3147V37.0968H94.838V27.3668C94.838 26.2567 95.7656 25.0231 97.3829 23.9825C99.5883 22.5638 102.729 21.75 106 21.75V13.1384C101.824 13.1384 97.9909 14.0333 94.8387 15.5776H94.838Z" fill="white"/>
<path d="M69.2764 3.125H60.7531V37.0968H69.2764V3.125Z" fill="white"/>
<path d="M82.0533 13.1399H73.53V37.0968H82.0533V13.1399Z" fill="white"/>
<path d="M77.7916 0C75.4378 0 73.53 1.92755 73.53 4.30577C73.53 6.68399 75.4378 8.61154 77.7916 8.61154C80.1455 8.61154 82.0533 6.68399 82.0533 4.30577C82.0533 1.92755 80.1455 0 77.7916 0Z" fill="white"/>
</svg>
