<svg width="120" height="80" viewBox="0 0 120 80" fill="none" xmlns="http://www.w3.org/2000/svg">
<path d="M108.001 40V64H35.9199V40H108.001ZM60.6816 41.1279V63.0263H66.2051V54.5185H66.5723V63.0263H72.4014L70.3926 52.1797H67.7568V51.8642H70.4131L72.4014 41.1289H66.5723V49.6689H66.2051V41.1279H60.6816ZM48.9004 41.1279V63.0254H54.4238V54.2343H54.791V63.0254H60.3145V41.1279H54.791V49.3554H54.4238V41.1279H48.9004ZM74.0586 41.1279L72.585 63.0254H78.1084V58.5205H78.4756V63.0254H83.999L82.6484 41.1279H74.0586ZM42.7383 41.1269C40.9181 41.1275 39.5268 41.6044 38.5654 42.5566C37.6045 43.5095 37.1241 44.9091 37.124 46.7539V57.3681C37.1235 59.213 37.6041 60.617 38.5654 61.58C39.5263 62.543 40.9174 63.0243 42.7383 63.0244C44.5991 63.0249 46.0312 62.5388 47.0332 61.5654C48.035 60.5929 48.5361 59.1934 48.5361 57.3681V52.3808H43.0127V57.7939C43.0127 58.1174 42.9517 58.2797 42.8291 58.2802C42.7061 58.2802 42.6445 58.1179 42.6445 57.7939V46.3593C42.6446 46.0357 42.7062 45.873 42.8291 45.873C42.9516 45.8735 43.0126 46.0362 43.0127 46.3593V51.7715H48.5361V46.7539C48.536 44.9496 48.0351 43.5603 47.0332 42.5869C46.0317 41.614 44.5996 41.127 42.7383 41.1269ZM78.4756 50.9511V53.6406H78.1084V50.9511H78.4756Z" fill="white"/>
<path d="M72 15.9999V39.9999H11.999V15.9999H72ZM42.3076 17.1288V21.9735H45.0527V38.872H50.5439V21.9735H53.2891V17.1288H42.3076ZM53.5957 17.1269V38.869H59.0869V31.1034H59.1484C59.31 31.1034 59.4025 31.1299 59.4238 31.1806C59.4513 31.3187 59.4607 31.4608 59.4531 31.6015V34.3974C59.4531 35.2465 59.4681 36.0334 59.498 36.7577C59.5265 37.4675 59.6136 38.1744 59.7578 38.87H65.2461C65.1005 38.1854 65.0144 37.4893 64.9873 36.7899C64.9573 36.065 64.9424 35.2878 64.9424 34.4599V34.2108C64.952 33.4545 64.8492 32.7007 64.6377 31.9745C64.4663 31.3816 64.2088 30.8169 63.875 30.2978C63.6102 29.8846 63.2691 29.5254 62.8691 29.2411C62.5687 29.0161 62.2069 28.8864 61.832 28.869V28.496C62.2005 28.4829 62.5593 28.3708 62.8691 28.1708C63.2756 27.9137 63.6191 27.5683 63.875 27.161C64.2103 26.6369 64.4678 26.0663 64.6377 25.4677C64.8268 24.7913 64.9293 24.0939 64.9424 23.3925V22.9355C64.9423 20.9476 64.4442 19.4819 63.4482 18.5399C62.4512 17.598 61.037 17.1269 59.207 17.1269H53.5957ZM65.3096 17.1269V38.87H70.8008V17.1269H65.3096ZM36.2402 17.1337C34.4297 17.1332 33.0463 17.6062 32.0908 18.5526C31.135 19.4981 30.6573 20.8865 30.6572 22.7177V22.9892C30.6506 23.7554 30.6908 24.5219 30.7783 25.2831C30.843 25.8633 30.9871 26.4324 31.2061 26.9735C31.3997 27.4422 31.6845 27.8679 32.0439 28.2255C32.4415 28.6093 32.8885 28.9396 33.3721 29.2069L34.3486 29.7499C34.877 30.0513 35.2895 30.2931 35.585 30.4745C35.8175 30.6082 36.0321 30.7711 36.2246 30.9579C36.3429 31.0741 36.4282 31.2203 36.4697 31.3808C36.5031 31.5596 36.5181 31.7419 36.5146 31.9237V33.704C36.5146 34.0055 36.4526 34.1571 36.3311 34.1571C36.2099 34.1567 36.1484 33.9958 36.1484 33.6737V31.3192H30.6572V33.2509C30.6582 35.0823 31.1312 36.4761 32.0762 37.4315C33.0221 38.3876 34.4103 38.8651 36.2402 38.8651C38.0911 38.8651 39.5148 38.3828 40.5107 37.4169C41.5067 36.4519 42.0049 35.0628 42.0049 33.2509V32.8583C42.0117 32.0971 41.9706 31.3352 41.8828 30.579C41.8185 30.015 41.6802 29.4612 41.4707 28.9335C41.2863 28.4839 41.0163 28.0741 40.6768 27.7265C40.2949 27.3506 39.8577 27.0343 39.3809 26.7899L38.5576 26.3378C37.9683 26.016 37.511 25.7536 37.1855 25.5526C36.9284 25.4028 36.6872 25.2264 36.4678 25.0253C36.3331 24.9053 36.2375 24.7471 36.1934 24.5722C36.1605 24.3881 36.1454 24.2005 36.1484 24.0136V22.3232C36.1485 22.0029 36.21 21.8411 36.3311 21.8407C36.4525 21.8407 36.5146 22.001 36.5146 22.3232V24.6796H42.0049V22.7177C42.0048 20.9269 41.5067 19.5479 40.5107 18.5819C39.5148 17.6161 38.091 17.1337 36.2402 17.1337ZM59.1475 21.9706C59.3091 21.9706 59.4007 21.9979 59.4219 22.0487C59.4489 22.1763 59.4592 22.3072 59.4521 22.4374V25.7616C59.46 25.9022 59.4496 26.0435 59.4219 26.1815C59.4008 26.234 59.3093 26.2597 59.1475 26.2597H59.0859V21.9706H59.1475Z" fill="white"/>
</svg>
