<svg width="717" height="564" viewBox="0 0 717 564" fill="none" xmlns="http://www.w3.org/2000/svg">
<path d="M595.503 80.0694C554.761 51.3625 492.218 48.7383 419.332 72.6196C364.075 90.7248 303.111 125.055 254.483 171.634C128.759 118.577 59.0427 15.3688 58.2407 14.2151C48.5386 -0.378924 28.851 -4.4133 14.2568 5.28851C-0.320258 14.9129 -4.43188 34.5833 5.25309 49.2549C8.77207 54.671 79.3948 160.031 210.966 221.948C195.597 243.599 183.184 266.962 174.82 291.872C153.796 354.488 170.158 392.276 187.601 413.058C217.743 448.853 268.951 464.829 335.743 459.284C368.734 456.503 425.727 445.615 540.115 383.094C543.249 381.429 546.624 379.411 550.223 377.117C538.002 392.631 523.432 410.31 506.054 430.377C488.358 450.78 474.76 478.762 470.575 503.54C467.444 521.718 474.383 540.337 488.649 551.956C502.759 563.54 522.171 566.618 539.179 559.972C560.003 551.894 581.31 545.305 610.438 537.927C707.565 513.313 781.684 524.276 782.382 524.43C799.061 526.984 814.722 516.137 818.311 499.931L818.345 499.775C818.482 499.155 818.636 498.457 818.774 497.837C821.466 480.537 809.773 464.282 792.395 461.573C788.85 461.032 705.455 448.26 594.895 476.243C574.207 481.504 557.093 486.418 541.126 491.668C544.765 484.42 549.334 477.379 554.136 471.854C629.181 385.328 670.492 322.568 676.572 285.194C679.29 268.877 671.732 253.048 657.349 244.901C642.905 236.66 625.392 238.232 612.694 248.924C565.913 288.265 527.394 317.48 509.699 327.227C393.848 390.482 346.109 394.471 330.44 395.8C304.582 397.964 257.848 397.784 236.207 372.086C226.093 360.085 225.699 339.825 235.025 312.036C242.958 288.333 256.018 266.089 272.387 245.799C283.115 249.151 294.178 252.089 305.56 254.691C334.277 261.294 435.751 278.394 534.171 222.587C561.803 206.906 635.116 165.305 618.466 110.453C614.891 98.6794 606.974 88.1411 595.503 80.0694ZM554.673 129.27C549.81 135.433 536.778 148.003 502.903 167.264C443.162 201.214 373.524 203.445 325.827 194.022C361.858 166.128 402.658 144.984 439.234 132.991C487.213 117.26 530.689 115.988 554.673 129.27Z" fill="#FDCC0D"/>
</svg>
