<svg width="40" height="40" viewBox="0 0 40 40" fill="none" xmlns="http://www.w3.org/2000/svg">
<rect width="40" height="40" rx="20" fill="#5B5B5B"/>
<g clip-path="url(#clip0_3845_439)">
<path fill-rule="evenodd" clip-rule="evenodd" d="M26.9894 13.3094C25.7387 13.369 24.5423 13.8383 23.5847 14.645C22.627 15.4517 21.9613 16.551 21.6902 17.7734C21.0611 16.4564 20.5852 15.0715 20.2718 13.646H15.5954V19.4456C15.5954 21.5534 14.6414 23.1176 12.7694 23.1176C10.8974 23.1176 9.8318 21.5606 9.8318 19.4456V13.646H7.1426V19.4456C7.07972 21.0541 7.6349 22.6256 8.6942 23.8376C9.2102 24.3984 9.84011 24.8423 10.5417 25.1397C11.2433 25.4371 12.0004 25.5811 12.7622 25.562C15.9986 25.562 18.2666 23.0726 18.2666 19.514V15.59C18.8174 17.7014 19.7246 19.7012 20.954 21.503L19.514 29.711H22.2464L23.1932 23.897C23.5088 24.1658 23.8418 24.41 24.1922 24.6296C25.1048 25.2056 26.1542 25.5296 27.2324 25.5692H27.4808C28.2833 25.5785 29.0794 25.425 29.8209 25.1181C30.5625 24.8113 31.2342 24.3573 31.7954 23.7836C32.3566 23.2103 32.7959 22.5292 33.0867 21.7815C33.3775 21.0337 33.5138 20.2349 33.4874 19.433C33.5058 18.6342 33.3635 17.8399 33.069 17.0972C32.7745 16.3545 32.3338 15.6786 31.773 15.1094C31.2123 14.5403 30.5429 14.0896 29.8047 13.7841C29.0664 13.4786 28.2743 13.3245 27.4754 13.331L26.9894 13.3094ZM30.8234 19.433C30.8234 17.2298 29.3816 15.761 27.488 15.761C25.5944 15.761 24.1634 16.9796 23.672 20.9C24.0542 21.5098 24.5686 22.026 25.177 22.4105C25.7855 22.7949 26.4725 23.0378 27.1874 23.1212L27.488 23.1032C29.3528 23.1032 30.8234 21.6344 30.8234 19.433Z" fill="#222222"/>
</g>
<defs>
<clipPath id="clip0_3845_439">
<rect width="32" height="32" fill="white" transform="translate(4 4)"/>
</clipPath>
</defs>
</svg>
