<svg width="30" height="30" viewBox="0 0 30 30" fill="none" xmlns="http://www.w3.org/2000/svg">
<path d="M17.6601 18.6592C18.8094 22.0643 19.5824 25.5857 19.9647 29.1592C18.3689 29.7173 16.69 30.0012 14.9994 30C12.0246 30.0049 9.11568 29.1205 6.64678 27.4614C7.7973 25.3302 9.36577 23.453 11.2575 21.9404C13.1493 20.4278 15.3261 19.3114 17.6586 18.6577L17.6601 18.6592Z" fill="#5B5B5B"/>
<path d="M20.6372 18.0967C23.6042 17.7903 26.6007 18.222 29.3605 19.3535C28.2896 22.8728 25.9655 25.8778 22.8275 27.7983C22.4061 24.5026 21.6726 21.2539 20.6372 18.0967Z" fill="#5B5B5B"/>
<path d="M15.2162 12.728C15.7152 13.7457 16.1801 14.7818 16.611 15.8364C11.4148 17.3585 7.00478 20.8244 4.2982 25.5132C2.77741 23.9549 1.61057 22.0867 0.878619 20.0361C0.146606 17.9852 -0.132446 15.7996 0.0581542 13.6304C5.07333 14.6922 10.3646 14.3839 15.2162 12.728Z" fill="#5B5B5B"/>
<path d="M26.5811 5.46533C29.0806 8.51736 30.2871 12.427 29.9421 16.3564C26.6417 15.1148 23.0826 14.717 19.5896 15.2007C19.1072 13.9826 18.5794 12.783 18.0073 11.6045C21.2222 10.1095 24.1298 8.02663 26.5811 5.46533Z" fill="#5B5B5B"/>
<path d="M7.89652 1.78565C10.1392 4.32745 12.1147 7.09314 13.7921 10.0386C9.53438 11.3942 4.99654 11.6161 0.626619 10.6831C1.77725 6.87236 4.39127 3.67322 7.89652 1.78565Z" fill="#5B5B5B"/>
<path d="M14.9994 4.30399e-06C18.5818 0.000148583 21.872 1.25619 24.4509 3.35156C22.2187 5.69441 19.5598 7.59062 16.6184 8.93994C14.9627 5.97539 13.0241 3.17751 10.8282 0.587406C12.1838 0.196357 13.5885 -0.00106295 14.9994 4.30399e-06Z" fill="#5B5B5B"/>
</svg>
