<svg preserveAspectRatio="none" width="100%" height="100%" overflow="visible" style="display: block;" viewBox="0 0 448.054 809.701" fill="none" xmlns="http://www.w3.org/2000/svg">
<path id="Vector" d="M333.3 809.701C332.729 809.701 332.086 809.701 331.515 809.701C315.812 808.702 303.82 795.283 304.82 779.508C305.034 776.296 310.03 700.633 356.07 609.052C364.707 591.921 372.344 577.859 380.053 564.868C372.986 566.653 365.92 569.294 360.138 572.434C269.63 621.472 206.531 645.528 172.554 643.6C157.708 642.815 145.288 633.107 140.933 618.903C136.508 604.627 141.29 589.566 153.139 580.5C196.752 547.095 229.872 518.971 241.863 505.337C319.881 415.97 332.657 374.855 336.869 361.364C343.792 339.094 352.715 298.05 334.37 274.066C325.805 262.86 308.103 258.577 281.907 261.361C259.565 263.716 237.509 270.854 216.524 281.276C217.38 291.34 217.809 301.619 217.88 312.112C218.094 338.594 213.383 430.959 145.288 506.479C126.158 527.679 75.4076 583.927 30.5102 558.658C20.8741 553.233 13.1652 544.239 8.31139 532.605C-8.96232 491.276 0.887977 435.885 36.0064 376.568C62.6308 331.599 104.602 284.773 154.924 251.153C132.796 130.521 55.7784 49.2909 54.9218 48.363C44.0009 37.0136 44.2864 18.9545 55.6356 8.03333C66.9135 -2.8878 84.9724 -2.67366 95.9647 8.67575C100.033 12.8158 178.764 95.2596 207.53 222.744C229.515 213.465 252.427 207.112 275.911 204.614C334.941 198.332 364.921 220.032 379.767 239.376C405.321 272.782 409.39 320.82 391.545 378.352C382.694 406.762 362.065 454.658 284.976 542.883C282.906 545.31 280.479 547.88 277.767 550.592C293.756 542.883 312.1 533.532 333.086 522.183C354.428 510.62 381.623 504.124 404.179 505.266C420.739 506.051 435.729 515.759 443.152 530.534C450.575 545.167 449.505 562.798 440.368 576.432C429.233 593.135 419.311 610.551 407.177 634.678C366.705 715.123 361.923 782.292 361.923 782.934C360.923 798.067 348.361 809.701 333.443 809.701H333.3ZM160.705 318.108C129.227 344.304 102.746 375.997 85.1151 405.762C61.9884 444.807 52.4236 482.71 59.4187 506.337C65.7714 503.267 79.3334 494.273 102.817 468.291C144.217 422.465 159.706 361.792 160.705 318.108Z" fill="var(--fill-0, #FFE273)"/>
</svg>
