<svg preserveAspectRatio="none" width="100%" height="100%" overflow="visible" style="display: block;" viewBox="0 0 408.396 764.119" fill="none" xmlns="http://www.w3.org/2000/svg">
<path id="Vector" d="M303.799 764.119C303.279 764.119 302.693 764.119 302.173 764.119C287.859 763.176 276.929 750.512 277.84 735.625C278.035 732.594 282.589 661.191 324.554 574.766C332.426 558.599 339.388 545.329 346.414 533.069C339.973 534.753 333.532 537.245 328.262 540.209C245.765 586.487 188.251 609.188 157.281 607.369C143.749 606.628 132.428 597.467 128.459 584.062C124.426 570.589 128.785 556.376 139.585 547.821C179.337 516.296 209.526 489.755 220.456 476.889C291.568 392.553 303.214 353.752 307.052 341.021C313.363 320.004 321.496 281.271 304.775 258.638C296.968 248.062 280.833 244.02 256.955 246.647C236.591 248.87 216.487 255.607 197.359 265.441C198.14 274.939 198.53 284.639 198.595 294.542C198.79 319.533 194.496 406.699 132.428 477.967C114.992 497.974 68.7332 551.054 27.8098 527.208C19.0265 522.089 11.9999 513.601 7.57574 502.621C-8.16906 463.619 0.809381 411.347 32.8195 355.369C57.0873 312.931 95.3432 268.742 141.211 237.015C121.042 123.174 50.8414 46.5161 50.0607 45.6404C40.1063 34.9299 40.3666 17.8874 50.7113 7.58109C60.9909 -2.72523 77.4514 -2.52315 87.4708 8.18735C91.1793 12.0943 162.942 89.897 189.161 210.205C209.2 201.448 230.085 195.453 251.49 193.095C305.296 187.167 332.621 207.645 346.154 225.9C369.446 257.425 373.154 302.76 356.889 357.053C348.821 383.863 330.019 429.063 259.753 512.322C257.866 514.612 255.654 517.037 253.182 519.597C267.755 512.322 284.476 503.497 303.604 492.787C323.057 481.874 347.845 475.744 368.405 476.822C383.499 477.563 397.162 486.724 403.928 500.668C410.695 514.477 409.719 531.115 401.391 543.982C391.241 559.744 382.198 576.18 371.137 598.949C334.248 674.865 329.889 738.252 329.889 738.859C328.978 753.139 317.527 764.119 303.929 764.119H303.799ZM146.481 300.2C117.789 324.922 93.6516 354.83 77.5815 382.92C56.5017 419.767 47.7835 455.536 54.1595 477.832C59.95 474.936 72.3116 466.448 93.7167 441.929C131.452 398.683 145.57 341.425 146.481 300.2Z" fill="var(--fill-0, #FFE273)"/>
</svg>
