<svg width="708" height="749" viewBox="0 0 708 749" fill="none" xmlns="http://www.w3.org/2000/svg">
<path d="M690.954 744.552C690.392 744.883 689.76 745.255 689.198 745.586C673.224 753.589 654.457 745.791 647.253 727.875C645.797 724.221 611.445 638.171 609.225 510.84C608.834 487.007 609.053 467.127 609.897 448.381C603.869 454.438 598.284 461.436 594.224 468.239C530.598 574.587 480.982 637.594 446.542 655.167C431.522 662.909 414.261 659.438 402.603 646.35C390.838 633.226 387.728 613.902 394.684 597.072C420.27 535.082 438.269 484.979 442.995 463.046C473.396 319.614 464.632 267.023 461.775 249.756C457.031 221.268 444.51 170.989 414.008 155.263C399.761 147.911 380.116 153.463 355.779 171.705C335.014 187.242 317.011 207.87 301.766 231.485C307.833 242.05 313.589 253.098 319.105 264.589C333.06 293.568 376.362 397.81 348.539 520.272C340.715 554.658 319.96 645.888 262.658 644.138C250.359 643.761 238.104 638.344 227.288 628.37C188.837 592.961 169.783 526.377 173.561 440.834C176.424 375.981 193.429 300.195 225.506 234.082C141.119 114.33 23.1597 69.6934 21.8351 69.17C5.19628 63.0262 -3.8956 43.0136 1.60603 24.4336C7.03741 5.89489 24.9219 -4.33601 41.6309 1.76637C47.7839 3.95831 168.059 48.9355 262.536 172.371C279.357 149.431 298.61 129.17 320.426 112.814C375.263 71.6992 416.03 78.1724 440.682 90.827C483.17 112.73 512.107 163.167 524.404 236.738C530.437 273.09 534.994 337.683 504.913 479.322C504.136 483.189 503.081 487.42 501.819 491.973C513.554 474.234 526.755 453.326 541.518 428.69C556.522 403.613 579.916 380.713 602.708 368.895C619.413 360.161 639.204 362.142 654.179 374.078C669.08 385.858 677.176 405.855 675.26 426.133C672.97 450.944 672.245 475.835 672.824 509.383C674.744 621.249 704.899 697.84 705.232 698.546C712.102 715.756 705.777 735.823 691.095 744.469L690.954 744.552ZM265.946 304.314C248.562 351.348 238.948 401.526 237.045 444.457C234.549 500.771 244.807 547.97 263.954 569.882C268.613 562.827 277.293 545.083 286.92 502.917C303.881 428.56 287.636 352.903 265.946 304.314Z" fill="#FDCC0D"/>
</svg>
